STARTFONT 2.3
FONT -FontForge-Pacifico-Book-R-Normal--36-360-72-72-P-212-ISO10646-1
SIZE 36 72 72  2
FONTBOUNDINGBOX 82 70 -22 -17
COMMENT "Generated by fontforge, http://fontforge.sourceforge.net"
COMMENT "Copyright 2018 The Pacifico Project Authors (https://github.com/googlefonts/Pacifico)"
STARTPROPERTIES 41
FOUNDRY "FontForge"
FAMILY_NAME "Pacifico"
WEIGHT_NAME "Book"
SLANT "R"
SETWIDTH_NAME "Normal"
ADD_STYLE_NAME ""
PIXEL_SIZE 36
POINT_SIZE 360
RESOLUTION_X 72
RESOLUTION_Y 72
SPACING "P"
AVERAGE_WIDTH 212
CHARSET_REGISTRY "ISO10646"
CHARSET_ENCODING "1"
FONTNAME_REGISTRY ""
CHARSET_COLLECTIONS "ISO8859-2 ISO8859-5 ISO8859-9 ISO8859-4 ISO10646-1"
BITS_PER_PIXEL 2
FONT_NAME "Pacifico-Regular"
FACE_NAME "Pacifico Regular"
COPYRIGHT "Copyright 2018 The Pacifico Project Authors (https://github.com/googlefonts/Pacifico)"
FONT_VERSION "3.001"
FONT_ASCENT 29
FONT_DESCENT 7
UNDERLINE_POSITION -4
UNDERLINE_THICKNESS 2
X_HEIGHT 16
CAP_HEIGHT 30
DEFAULT_CHAR 1
RAW_ASCENT 800
RAW_DESCENT 200
NORM_SPACE 10
RELATIVE_WEIGHT 40
RELATIVE_SETWIDTH 50
SUPERSCRIPT_X 0
SUPERSCRIPT_Y 12
SUPERSCRIPT_SIZE 21
SUBSCRIPT_X 0
SUBSCRIPT_Y 2
SUBSCRIPT_SIZE 21
AVG_LOWERCASE_WIDTH 170
AVG_UPPERCASE_WIDTH 294
ENDPROPERTIES
CHARS 1514
STARTCHAR NULL.dup1
ENCODING 0
SWIDTH 0 0
DWIDTH 0 0
BBX 1 1 0 0
BITMAP
00
ENDCHAR
STARTCHAR nonmarkingreturn
ENCODING 13
SWIDTH 265 0
DWIDTH 10 0
BBX 1 1 0 0
BITMAP
00
ENDCHAR
STARTCHAR space
ENCODING 32
SWIDTH 265 0
DWIDTH 10 0
BBX 1 1 0 0
BITMAP
00
ENDCHAR
STARTCHAR exclam
ENCODING 33
SWIDTH 340 0
DWIDTH 12 0
BBX 12 31 1 0
BITMAP
0001BE
0003FF
0007FF
000BFE
000BFD
000FFD
001FFC
001FF8
002FF4
003FF0
003FF0
007FE0
007FD0
00BFC0
00FF80
00FF40
01FF00
01FE00
02FD00
02FC00
03F800
02F400
000000
000000
1BE000
7FF400
BFF800
BFFC00
BFF800
7FF400
1FD000
ENDCHAR
STARTCHAR quotedbl
ENCODING 34
SWIDTH 510 0
DWIDTH 18 0
BBX 15 12 4 19
BITMAP
0BE00BD0
2FF42FF0
3FF43FF4
7FF07FF0
7FF07FF0
7FE07FE0
BFD0BFD0
BFD0BFD0
BFC0BFC0
FF80FF80
FF40FF40
7E007E00
ENDCHAR
STARTCHAR numbersign
ENCODING 35
SWIDTH 700 0
DWIDTH 25 0
BBX 24 22 1 0
BITMAP
000014000500
0000FE007F40
0001FF00BF80
0002FE00FF40
0003FD01FF00
0BFFFFFFFFF8
1FFFFFFFFFFD
1FFFFFFFFFFD
0BFFFFFFFFF8
002FF00FF800
003FE01FF400
007FD01FF000
007FC02FE000
7FFFFFFFFFE0
BFFFFFFFFFF0
BFFFFFFFFFF0
6FFFFFFFFFD0
03FE01FF4000
07FD02FF0000
07FC02FE0000
07F802FD0000
02E001F40000
ENDCHAR
STARTCHAR dollar
ENCODING 36
SWIDTH 524 0
DWIDTH 19 0
BBX 17 31 1 -5
BITMAP
00001E0000
00002F0000
00003E0000
00003E0000
00003E0000
001BFF9000
00BFFFF800
03FFFFFE00
0BFEBEFF40
0FF4BCBF40
1FF0F8BF40
1FF0F83E00
0FF8F40000
0BFFF40000
07FFF90000
01FFFF8000
002FFFF400
0002FFFD00
0503EBFE00
3F43E2FF00
7F83D1FF00
BFC7D1FE00
7FEBDBFD00
3FFFFFF800
0FFFFFE000
01FFFE4000
000F800000
000F800000
001F400000
001F400000
001E000000
ENDCHAR
STARTCHAR percent
ENCODING 37
SWIDTH 896 0
DWIDTH 32 0
BBX 31 27 1 0
BITMAP
006FE000002E0000
02FFFD0000BF0000
0BFFFF0002FF4000
1FF6FF400BFF0000
2FD2FF81BFFD0000
3FC1FFFFFFF80000
3F80FFFFFFF00000
7F807FFFFFE00000
3F803FFAFFC00000
3FC07F02FF400000
2FE1FE07FE000000
1FFFFC0BFD000000
07FFF41FF8000000
01BF803FF006F900
0000007FD03FFF80
000000FF80FFFFE0
000002FF42FE1FF4
000007FE03F80BF8
00000BFC07F807F8
00001FF40BF407F8
00003FF00BF407F8
0000BFD00BF407F4
0000FF8007F80BF0
0002FF0003FD1FE0
0003FE0002FFFFC0
0003FC0000BFFF00
0001F400001BE400
ENDCHAR
STARTCHAR ampersand
ENCODING 38
SWIDTH 851 0
DWIDTH 31 0
BBX 29 35 1 -3
BITMAP
000006FF90000000
00002FFFF8000000
0001FFFFFD000000
0003FFFFFF000000
000BFE42FF400000
000FFC00BF800000
001FF400BF800000
001FF400BF800000
001FF000BF800000
001FF401FF400000
001FF402FF000000
000FF80BFD000000
000BFD2FF8000000
0007FFFFE0000000
0003FFFF80000000
0002FFFD00000000
000BFFF400000000
007FFFF400000500
01FFFFFC00007F80
07FFDFFF0000FF80
0FFE07FF8002FF40
2FFC02FFE00BFE00
3FF400BFF42FF800
7FE0003FFDBFF000
7FE0001FFFFFD000
7FE00007FFFF4000
7FF40002FFFD0000
3FFE001BFFF80000
1FFFFFFFFFFE0000
07FFFFFFFFFF8000
01BFFFFF97FFE000
001AFFA401FFF400
0000000000BFF400
00000000002FF000
0000000000054000
ENDCHAR
STARTCHAR quotesingle
ENCODING 39
SWIDTH 290 0
DWIDTH 10 0
BBX 7 12 4 19
BITMAP
0BE0
2FF4
3FF4
7FF0
7FF0
7FE0
BFD0
BFD0
BFC0
FF80
FF40
7E00
ENDCHAR
STARTCHAR parenleft
ENCODING 40
SWIDTH 613 0
DWIDTH 22 0
BBX 24 39 3 -5
BITMAP
0000001AFA40
000002FFFFF4
00001FFFFFFD
00007FFFFFFE
0001FFF407FD
0007FF800078
000FFE000000
001FFC000000
003FF4000000
00BFE0000000
00FFC0000000
01FF80000000
03FF40000000
07FE00000000
0BFD00000000
0FFC00000000
0FF800000000
1FF800000000
2FF400000000
2FF000000000
3FF000000000
3FE000000000
7FE000000000
7FD000000000
BFD000000000
BFD000000000
BFD000000000
BFC000000000
BFC000000000
BFD000000000
BFD000000000
7FD000014000
7FE0000FC000
3FF0007FD000
2FF906FFC000
0FFFFFFF4000
07FFFFFD0000
01FFFFE00000
001BFA000000
ENDCHAR
STARTCHAR parenright
ENCODING 41
SWIDTH 613 0
DWIDTH 22 0
BBX 24 39 -3 -5
BITMAP
000001AFA400
00001BFFFE00
00007FFFFF80
0002FFFFFFE0
0007FF907FF4
000BF8001FF8
0007E0000FFC
000140000BFC
000000000BFD
000000000BFD
0000000007FD
000000000BFD
000000000BFD
000000000BFD
000000000BFD
000000000BFC
000000000FFC
000000000FF8
000000001FF8
000000001FF4
000000002FF4
000000003FF0
000000003FE0
000000007FE0
00000000BFD0
00000000FFC0
00000001FF80
00000003FF40
00000007FE00
0000000FFD00
0000001FF800
0000007FF400
000000FFE000
290003FF8000
BF902FFF0000
FFFFFFFD0000
BFFFFFE00000
2FFFFF400000
01BFE4000000
ENDCHAR
STARTCHAR asterisk
ENCODING 42
SWIDTH 520 0
DWIDTH 19 0
BBX 15 16 4 18
BITMAP
0002E000
0007F400
1F47F400
2FC7F000
2FE7E1F4
1FFBDBFC
02FFFFF8
007FFFE4
6FFFF400
BFFFFE00
BF9FBFD0
7D2F6FE0
003F4FE0
007F47D0
003F0000
00150000
ENDCHAR
STARTCHAR plus
ENCODING 43
SWIDTH 700 0
DWIDTH 25 0
BBX 20 22 3 0
BITMAP
0000050000
00002F8000
00003FC000
00007F8000
00007F8000
0000BF8000
0000BF4000
0000BF4000
0000FF4000
6FFFFFFFF9
BFFFFFFFFE
FFFFFFFFFE
7FFFFFFFF8
0002FE0000
0002FD0000
0002FD0000
0003FD0000
0003FC0000
0003FC0000
0007FC0000
0007F80000
0002E00000
ENDCHAR
STARTCHAR comma
ENCODING 44
SWIDTH 257 0
DWIDTH 9 0
BBX 7 13 0 -6
BITMAP
0150
0BF8
1FFC
1FFC
2FFC
2FF8
2FF4
2FF0
3FE0
3FC0
7F80
7F00
3D00
ENDCHAR
STARTCHAR hyphen
ENCODING 45
SWIDTH 403 0
DWIDTH 15 0
BBX 12 5 2 9
BITMAP
0056A4
7FFFFC
FFFFFD
FFFFFC
7FEA90
ENDCHAR
STARTCHAR period
ENCODING 46
SWIDTH 257 0
DWIDTH 9 0
BBX 7 7 1 0
BITMAP
1FD0
7FF4
BFF8
FFF8
FFF4
BFF0
2F90
ENDCHAR
STARTCHAR slash
ENCODING 47
SWIDTH 509 0
DWIDTH 18 0
BBX 20 34 0 0
BITMAP
000000007D
00000000FF
00000002FF
00000003FE
0000000BFD
0000000FF8
0000002FF4
0000007FE0
000000BFD0
000001FF80
000002FF00
000007FE00
00000FFC00
00001FF800
00003FF000
00007FD000
0000FFC000
0002FF4000
0003FF0000
000BFD0000
000FF80000
002FF40000
003FE00000
00BFD00000
01FF800000
02FF000000
07FE000000
0BFC000000
1FF8000000
3FF0000000
7FD0000000
BFC0000000
BF40000000
2E00000000
ENDCHAR
STARTCHAR zero
ENCODING 48
SWIDTH 543 0
DWIDTH 20 0
BBX 17 21 2 0
BITMAP
001BFE0000
00BFFFD000
03FFFFF400
0BFFFFFC00
1FF80BFE00
3FE003FF00
7FD002FF00
BFC001FF40
BF8001FF40
FF8001FF40
FF4001FF40
FF4001FF00
FF4002FF00
FF4002FE00
FF8007FD00
BFC00BFC00
7FE02FF400
3FFFFFE000
1FFFFFC000
07FFFE0000
00AFE40000
ENDCHAR
STARTCHAR one
ENCODING 49
SWIDTH 376 0
DWIDTH 14 0
BBX 10 22 2 0
BITMAP
000540
06FFE0
6FFFF0
BFFFE0
FFFFE0
7ABFD0
007FD0
00BFD0
00BFC0
00FFC0
00FF80
01FF80
01FF80
01FF40
02FF40
02FF00
03FF00
03FF00
03FE00
07FE00
03FD00
01F800
ENDCHAR
STARTCHAR two
ENCODING 50
SWIDTH 560 0
DWIDTH 20 0
BBX 18 22 1 0
BITMAP
0006BE9000
002FFFF800
01FFFFFF00
03FFFFFF80
07FE42FFC0
0BF800FFC0
0FF400BFC0
0FF400BFC0
0BF000FFC0
029001FF80
000003FF00
00000BFD00
00002FF800
0000BFF000
0002FFC000
001FFE0000
01FFF40000
1BFF800000
3FFFFFFFD0
7FFFFFFFE0
7FFFFFFFE0
2FFFFFFF80
ENDCHAR
STARTCHAR three
ENCODING 51
SWIDTH 520 0
DWIDTH 19 0
BBX 17 22 1 0
BITMAP
001AFE9000
01BFFFF800
07FFFFFE00
0FFFFFFF00
2FF907FF40
2FE002FF40
2FD002FF40
1F8002FF00
00000BFD00
0001BFF400
000FFF9000
001FFF9000
000FFFF800
00016FFD00
290007FF00
BE0003FF00
FF4003FF00
FFD01BFF00
BFFFFFFD00
3FFFFFF800
1FFFFFE000
01AFF90000
ENDCHAR
STARTCHAR four
ENCODING 52
SWIDTH 577 0
DWIDTH 21 0
BBX 19 22 1 0
BITMAP
0002F80000
000BFC0000
001FF80000
003FF00000
007FE00000
00FFC02F40
01FF807FC0
02FF00BF80
07FE00FF80
0BFC01FF40
0FF801FF00
1FF402FF00
3FE002FE00
3FFFFFFFF4
7FFFFFFFF8
3FFFFFFFF8
1FFFFFFFE4
000007FC00
000007FC00
00000BFC00
000007F800
000002E400
ENDCHAR
STARTCHAR five
ENCODING 53
SWIDTH 518 0
DWIDTH 19 0
BBX 17 21 1 0
BITMAP
02BFFFFF40
0FFFFFFFC0
1FFFFFFFC0
0BFFFFFF40
03FE000000
03FD000000
07FC000000
07F8000000
0BFFE90000
0FFFFFD000
0FFFFFF800
06FFFFFD00
00006FFF00
000007FF00
2F0002FF00
7F8002FF00
7FC003FE00
3FF41BFD00
2FFFFFF800
0BFFFFD000
00AFF90000
ENDCHAR
STARTCHAR six
ENCODING 54
SWIDTH 541 0
DWIDTH 19 0
BBX 18 22 1 0
BITMAP
0001AFA000
001FFFFD00
007FFFFF40
01FFFFFFC0
03FF81BFD0
0BFD003FE0
0FF8002FD0
1FF4000A80
2FF0000000
3FE1BF9000
3FEBFFF400
3FFFFFFD00
7FFFFFFF00
7FFD07FF40
3FF401FF40
3FF001FF40
2FF002FF40
1FF807FF00
0FFFFFFD00
07FFFFF800
01FFFFE000
002BFA0000
ENDCHAR
STARTCHAR seven
ENCODING 55
SWIDTH 497 0
DWIDTH 18 0
BBX 18 22 1 0
BITMAP
0540000140
2FFFFFFFD0
7FFFFFFFE0
7FFFFFFFE0
2FFFFFFFC0
00000BFE00
00002FF400
0000BFD000
0002FF4000
0007FD0000
000FF80000
002FF40000
003FE00000
007FD00000
00FFC00000
00FFC00000
01FF800000
01FF400000
02FF400000
02FF400000
01FF000000
00BD000000
ENDCHAR
STARTCHAR eight
ENCODING 56
SWIDTH 512 0
DWIDTH 18 0
BBX 17 22 1 0
BITMAP
0006FE9000
00BFFFF800
02FFFFFE00
0BFFFFFF40
0FFD02FF40
0FF400FF80
1FF400FF40
0FF801FF00
0BFD0BFD00
07FFFFF800
01FFFFD000
01FFFFE000
07FFFFF800
1FF42FFD00
3FD007FF00
7FC001FF00
BFC001FF00
7FE007FF00
7FFFFFFD00
2FFFFFF800
0BFFFFD000
01AFF90000
ENDCHAR
STARTCHAR nine
ENCODING 57
SWIDTH 541 0
DWIDTH 19 0
BBX 18 22 1 0
BITMAP
0006FE4000
007FFFF400
01FFFFFD00
07FFFFFF00
0BFE07FF40
0FF801FF80
1FF400FFC0
1FF400FFC0
1FF401FFC0
1FFD07FFD0
0FFFFFFFC0
07FFFFFFC0
01FFFEBFC0
002FE4BF80
000000FF40
2F4002FF00
BF8007FE00
7FE01FFC00
7FFFFFF400
2FFFFFD000
0BFFFF4000
01BFE40000
ENDCHAR
STARTCHAR colon
ENCODING 58
SWIDTH 257 0
DWIDTH 9 0
BBX 8 17 1 0
BITMAP
06F8
0FFE
2FFF
2FFF
2FFE
1FFD
07F4
0000
0000
0000
1FD0
7FF4
BFF8
FFF8
FFF4
BFF0
2F90
ENDCHAR
STARTCHAR semicolon
ENCODING 59
SWIDTH 257 0
DWIDTH 9 0
BBX 9 23 0 -6
BITMAP
01BE00
03FF80
0BFFC0
0BFFC0
0BFF80
07FF40
01FD00
000000
000000
000000
015000
0BF800
1FFC00
1FFC00
2FFC00
2FF800
2FF400
2FF000
3FE000
3FC000
7F8000
7F0000
3D0000
ENDCHAR
STARTCHAR less
ENCODING 60
SWIDTH 700 0
DWIDTH 25 0
BBX 21 17 3 2
BITMAP
000000001500
00000006FF00
0000006FFF40
00001BFFFF00
0006FFFFF800
01BFFFFE4000
2FFFFF900000
BFFFE4000000
FFF900000000
FFFE40000000
BFFFF9000000
1BFFFF900000
006FFFFE4000
0006FFFFF400
00001BFFF800
0000007FF800
00000006E000
ENDCHAR
STARTCHAR equal
ENCODING 61
SWIDTH 700 0
DWIDTH 25 0
BBX 22 12 2 5
BITMAP
0BFFFFFFFF80
1FFFFFFFFFD0
1FFFFFFFFFC0
0BFFFFFFFE40
000000000000
000000000000
000000000000
000000000000
2FFFFFFFFE00
7FFFFFFFFF00
7FFFFFFFFF00
3FFFFFFFFD00
ENDCHAR
STARTCHAR greater
ENCODING 62
SWIDTH 700 0
DWIDTH 25 0
BBX 21 17 2 2
BITMAP
014000000000
0BF900000000
0FFFE0000000
0FFFFE400000
02FFFFF90000
001BFFFF9000
00006FFFFE00
000006FFFF80
0000001FFF80
0000007FFF80
00001BFFFF00
0006FFFFE400
01BFFFF90000
2FFFFE400000
7FFFE4000000
BFF900000000
3E4000000000
ENDCHAR
STARTCHAR question
ENCODING 63
SWIDTH 476 0
DWIDTH 17 0
BBX 17 31 2 0
BITMAP
001AFE9000
01BFFFF800
07FFFFFE00
0FFFFFFF40
1FF807FF80
2FE002FF80
2FD002FF80
2FD002FF80
1FD003FF40
01400BFF00
00001FFD00
00007FF800
0001FFE000
0007FF8000
000FFD0000
002FF40000
007FD00000
00FF400000
01FE000000
01FD000000
01FC000000
01F4000000
0000000000
0000000000
1BE0000000
3FF8000000
BFFC000000
BFFC000000
BFF8000000
7FF4000000
1FD0000000
ENDCHAR
STARTCHAR at
ENCODING 64
SWIDTH 1015 0
DWIDTH 37 0
BBX 35 37 1 -10
BITMAP
00000001AFFE900000
0000006FFFFFFE4000
000007FFFFFFFFE000
00002FFFFFFFFFF800
0001FFFE5001BFFE00
0007FFD0000007FF40
001FFE00000001FFC0
003FF8000000007FD0
00BFE0000000002FE0
01FF80000000001FF0
03FF00006F80000FF4
07FD0002FFD5000BF4
0FFC001FFFFF800BF4
1FF8003FFFFF400BF4
2FF000BFF4FF400FF4
3FF001FF80FF000FF4
3FE003FF01FF001FF0
7FD007FD02FE001FF0
7FD00BFC02FE002FE0
7FC00BF803FD007FD0
BFC00FF807FD00BFC0
BFC00FF80BFD01FF40
BFC00BFC1FFE0BFE00
7FD00BFFFFFFFFFC00
7FD003FFFDFFFFF400
3FE001FFF87FFF8000
3FF0006F901BF90000
2FF400000000000000
0FFC00000000000000
0BFE00000000000000
03FF8000000001B800
01FFF40000001FFC00
007FFF90005BFFFC00
001FFFFFFFFFFFF400
0002FFFFFFFFFF4000
00006FFFFFFFE40000
000001AFFFA5000000
ENDCHAR
STARTCHAR A
ENCODING 65
SWIDTH 786 0
DWIDTH 28 0
BBX 31 31 2 0
BITMAP
00000006BFFE9400
000001BFFFFFFF00
00001BFFFFFFFF40
0000BFFFFFFFFF00
0003FFF94005A800
000FFF9000000000
003FFD0000BE0000
00BFF40002FF4000
02FFD00003FF4000
03FF400003FF0000
0BFE000007FF0000
0FFD000007FE0000
2FF800000BFD0000
3FF400000FFD0000
3FF000001FFC0000
7FF000001FF80000
BFE000002FF80000
BFE000003FF40000
FFD000007FF40000
FFD00000BFF00000
FFD00000FFF00000
FFD00001FFF00000
FFD00002FFE00000
BFE00007FFE00038
7FF0000FFFF000FC
3FF8002FFFF002F8
2FFE01FF7FF81FF4
0FFFFFFE3FFFFFE0
07FFFFF81FFFFF80
01FFFFE007FFFD00
001BFA0001BFA000
ENDCHAR
STARTCHAR B
ENCODING 66
SWIDTH 827 0
DWIDTH 30 0
BBX 32 33 0 -2
BITMAP
0000016BFFFA4000
0001BFFFFFFFF800
006FFFFFFFFFFF40
06FFFFFFFFFFFFE0
1FFFFE50001BFFF4
3FFE40000000BFF8
7FE4000000002FFC
3E00150000001FFD
0000FF8000000FFD
0001FF8000001FFC
0002FF4000002FF8
0003FF4000007FF4
0003FF000002FFE0
0007FE00016FFF80
000BFD01FFFFFD00
000FFD03FFFFD000
000FFC03FFFE0000
001FF802FFFFD000
001FF80001FFF400
002FF400003FFC00
002FF400001FFD00
003FF000000FFD00
003FF000000FFD00
007FF000001FFC00
007FE000003FF800
007FE00001FFF400
00BFE0006FFFE000
00BFFFFFFFFF8000
00BFFFFFFFFD0000
00FFFFFFFF900000
00FFFFFEA4000000
00FFC00000000000
007E400000000000
ENDCHAR
STARTCHAR C
ENCODING 67
SWIDTH 686 0
DWIDTH 25 0
BBX 28 31 2 0
BITMAP
000001BFE80000
00006FFFFF8000
0002FFFFFFE000
000BFFFFFFF400
002FFF406FF800
00BFF8000FFC00
01FFD0000BFC00
03FF80000BFD00
0BFE00000BFC00
0FFD00000BFC00
1FFC00000FF800
2FF400000BF000
3FF40000004000
7FF00000000000
7FE00000000000
BFE00000000000
BFE00000000000
BFE00000000000
BFE00000000000
BFE00000000000
BFF00000000000
7FF00000000000
3FF80000000000
2FFC0000000000
1FFF0000000014
0BFFD0000006FD
02FFF94005BFFC
00BFFFFFFFFFF8
002FFFFFFFFFE0
0006FFFFFFF900
00001AFFE94000
ENDCHAR
STARTCHAR D
ENCODING 68
SWIDTH 836 0
DWIDTH 30 0
BBX 29 31 1 0
BITMAP
00005AFFE9000000
001BFFFFFFE00000
01FFFFFFFFFD0000
1FFFFFFFFFFF8000
3FFF94005FFFE000
7FF4000001FFF400
7F400000007FFC00
14015400001FFD00
0007FD00000BFE00
000BFD000007FF00
000FFC000003FF40
001FFC000003FF40
001FF8000003FF40
002FF4000003FF40
003FF0000003FF40
003FF0000003FF40
007FE0000007FF00
00BFE0000007FF00
00BFD000000BFE00
00FFC000000FFD00
00FFC000001FFC00
01FF8000003FF800
01FF800000BFF400
02FF800001FFE000
02FF400007FFC000
03FF40002FFF4000
03FF4016FFFD0000
03FFFFFFFFE00000
03FFFFFFFF400000
02FFFFFFF4000000
006BFFE900000000
ENDCHAR
STARTCHAR E
ENCODING 69
SWIDTH 686 0
DWIDTH 25 0
BBX 29 31 1 0
BITMAP
000005BFFA000000
00006FFFFFE00000
0002FFFFFFFC0000
000FFFFFFFFE0000
003FFF400BFF4000
00BFF80002FF4000
00FFE00001FF8000
01FFD00000FF8000
01FFC00001FF8000
01FFC00001FF4000
01FFD00001FF0000
00BFF00000B80000
007FFE4000000000
001FFFFF00000000
0002FFFF40000000
001FFFFF00000000
01FFFFFD00000000
0BFFE40000000000
1FFE000000000000
3FF8000000000000
7FF0000000000000
BFE0000000000000
FFD0000000000000
FFE0000000000000
BFF0000000001A00
7FFD00000005BF40
2FFF940005BFFF00
0FFFFFFFFFFFFE00
02FFFFFFFFFFF800
006FFFFFFFFE4000
0001AFFFEA500000
ENDCHAR
STARTCHAR F
ENCODING 70
SWIDTH 712 0
DWIDTH 26 0
BBX 34 31 0 0
BITMAP
0000006ABFFFFEA940
00006FFFFFFFFFFFD0
0007FFFFFFFFFFFFE0
002FFFFFFFFFFFFFD0
00BFF94BFD00001500
01FF800BFD00000000
02FF000BFD00000000
02FE000FFD00000000
03FD000FFC00000000
02FE000FFC00000000
02FF000FFC00000000
01FF401FFC00000000
007E001FF800000000
0000001FF800000000
00000BFFFFFFF80000
00002FFFFFFFFC0000
00002FFFFFFFF80000
00000BFFFFFFE00000
0000003FF000000000
0000003FF000000000
0000007FE000000000
0000007FE000000000
000000BFD000000000
640000FFC000000000
BC0001FF8000000000
FF0007FF4000000000
FFD01FFF0000000000
7FFFFFFD0000000000
2FFFFFF40000000000
07FFFFD00000000000
006FF9000000000000
ENDCHAR
STARTCHAR G
ENCODING 71
SWIDTH 811 0
DWIDTH 29 0
BBX 31 48 2 -17
BITMAP
000001AFF9000000
00002FFFFFD00000
0001FFFFFFF40000
000BFFFFFFFD0000
002FFF501BFE0000
00BFF80003FF0000
01FFD00002FF0000
03FF800002FF4000
0BFE000002FF4000
0FFD000002FF0000
1FFC000003FE0000
2FF4000002FD0000
3FF4000000A40000
7FF0000000000000
7FE0000000000000
BFE0000000000000
BFE0000000000000
BFE0000000000000
BFE00002FFFF8000
BFE00007FFFFC000
BFF00007FFFFC000
7FF00002FFFFC000
3FF8000000BF8000
2FFC000000BF8014
1FFE000000FF40BC
0BFFD00000FF47FC
03FFF90016FF6FF8
00FFFFFFFFFFFFE0
002FFFFFFFFFFF40
0006FFFFFFFFF800
00001BFFA6FFD000
000000000BFE0000
000000002FFD0000
00000000FFFC0000
00000007FFF80000
0000000FEBF80000
0000003F8BF40000
000000BF0FF00000
000001FC1FE00000
000003F42FD00000
000007F03FC00000
00000BE07F800000
00000FD0FF400000
00000FE2FE000000
00000FFFFD000000
00000BFFF8000000
000007FFE0000000
000001BE40000000
ENDCHAR
STARTCHAR H
ENCODING 72
SWIDTH 873 0
DWIDTH 31 0
BBX 37 32 -1 0
BITMAP
000000000000002F9000
0006BE40000001FFF400
002FFFE0000007FFF800
01FFFFF400000FF5FC00
07FFFFF800002FE0BD00
1FF81FFC00007FC0BD00
3FD00FFC0000BF80FD00
7F400BFC0001FF00FC00
BD000BFC0002FF01FC00
74000FFC0003FE02F800
00000FFC0007FD07F400
00000FFC000BFC0FF000
00000FF8000BFC2FD000
00001FF8000FFAFF8000
00001FF4000FFFFE0000
00002FF9556FFFF80000
002FFFFFFFFFFF900000
007FFFFFFFFFF9000000
00BFFFFFFFFFF0000000
002FFFE9542FF0000000
0000BFD0003FF0000000
0000FFC0003FF0000000
0000FFC0002FF0000000
0001FF80002FF4000000
0002FF40002FF40003C0
0002FF40001FF8000BC0
0003FF00000FFC002FC0
0007FE00000BFE01FF40
000BFE000007FFFFFE00
000BFD000002FFFFF800
000BF8000000BFFFD000
0002E00000001BF90000
ENDCHAR
STARTCHAR I
ENCODING 73
SWIDTH 495 0
DWIDTH 18 0
BBX 21 31 -1 0
BITMAP
001BFFFFFF40
003FFFFFFFC0
007FFFFFFF80
002FFFFFFE00
00000FFC0000
00001FF80000
00001FF80000
00002FF40000
00002FF40000
00003FF40000
00003FF00000
00003FF00000
00007FE00000
00007FE00000
0000BFD00000
0000BFD00000
0000FFC00000
0000FFC00000
0001FF800000
0001FF800000
0002FF800000
0002FF400000
0003FF400000
0003FF000000
0007FF000000
0007FE000000
0007FE000000
1AFFFFFE4000
7FFFFFFFC000
BFFFFFFF8000
7FFFFFFE0000
ENDCHAR
STARTCHAR J
ENCODING 74
SWIDTH 743 0
DWIDTH 27 0
BBX 26 34 2 -3
BITMAP
00006AFFFEA500
001BFFFFFFFF80
01FFFFFFFFFFE0
07FFFFFFFFFFD0
1FFE900007FF40
2FF400000BFE00
7FD000000BFD00
7FC000000BFD00
7FC000000FFD00
7FD000000FFC00
3FE000000FFC00
2FE000001FF800
0F8000001FF800
000000002FF400
000000007FF400
0000001BFFF000
000000BFFFF000
00000BFFFFE000
00007FFEBFD000
0001FFE4BFD000
0007FF40FFC000
001FFD00FF8000
003FF001FF4000
00BFD002FF0000
00FF8003FE0000
01FF4007FD0000
02FF000FF80000
02FF001FF40000
02FF007FE00000
02FF81FFC00000
01FFFFFF400000
00BFFFFD000000
002FFFF4000000
0006FE40000000
ENDCHAR
STARTCHAR K
ENCODING 75
SWIDTH 937 0
DWIDTH 34 0
BBX 38 31 1 0
BITMAP
0001AFFE9000001B8000
001FFFFFFE00007FE000
00BFFFFFFF4000BFE000
02FFFFFFFF4000FFD000
0BFF401FFE0001FFC000
0FF8002FF80002FF8000
1FF0002FF40007FF0000
2FE0002FF4000BFE0000
2FE0003FF0001FFD0000
2FE0003FF0002FF80000
1FF4007FF0007FF00000
0FF4007FE001FFD00000
0BF4007FE007FF400000
029000BFD02FFD000000
000000BFD6FFF4000000
00000FFFFFFF80000000
00002FFFFFF900000000
00002FFFFFE400000000
00001BFFFFFE00000000
000001FF8BFF80000000
000002FF42FFC0000000
000002FF40FFE0000000
000003FF00BFF4000000
780007FE003FF80002C0
FE000BFE002FFD0007D0
FF400FFD000FFE001FD0
FFD07FF8000BFF80BF80
7FFFFFF40003FFFFFF00
2FFFFFD00001FFFFFC00
0BFFFF4000007FFFE000
01AFE40000000BFE4000
ENDCHAR
STARTCHAR L
ENCODING 76
SWIDTH 673 0
DWIDTH 24 0
BBX 31 31 -2 0
BITMAP
000000006FFA4000
0000000BFFFFE000
0000007FFFFFF800
000001FFFFFFFD00
000007FFD00BFF00
00000FFE0002FF40
00002FFC0001FF40
00003FF40001FF40
00007FF00001FF40
0000BFE00002FF40
0000FFD00002FF00
0000FFD00001FD00
0000FFC000005000
0001FFC000000000
0001FFC000000000
0001FF8000000000
0001FF8000000000
0001FF8000000000
0001FF4000000000
0002FF4000000000
0002FF4000000000
0002FF0000000000
0002FF0000000000
0002FF0000000024
01BFFF94000001FC
1FFFFFFFE9405BF8
3FFFFFFFFFFFFFF4
7FFFFBFFFFFFFFE0
7FFFE06FFFFFFF80
3FFF8001FFFFFD00
06F900001AFF9000
ENDCHAR
STARTCHAR M
ENCODING 77
SWIDTH 1232 0
DWIDTH 44 0
BBX 49 31 0 0
BITMAP
000AF90001BF80000AFD000000
007FFF400BFFF400BFFF800000
02FFFF807FFFFC02FFFFE00000
0BFFFFC0FFFFFD0BFFFFF00000
2FE4BFC2FD07FE1FE07FF40000
7F807FC7F403FE3F403FF40000
FE007FCFD002FE7E003FF40000
F8007FDF8002FEFC003FF40000
60007FAF0002FEF4003FF40000
0000BFBD0003FFE0007FF00000
0000BFFC0003FFD0007FF00000
0000FFF80007FFC000BFE00000
0000FFF40007FF8000BFD00000
0000FFF00007FF4000FFD00000
0001FFE0000BFF0001FFC00000
0001FFD0000BFE0001FF800000
0002FFC0000FFD0002FF800000
0002FF80001FFD0003FF400000
0003FF80001FFC0003FF400000
0003FF40002FF80007FF000000
0007FF00002FF80007FE000000
0007FF00003FF4000BFE000000
000BFE00003FF4000BFD000000
000BFE00007FF0000BFD000380
000BFD00007FF0000BFD000BC0
000FFD0000BFE0000BFE002FC0
000FFC0000BFE00007FF41FF40
000FFC0000BFD00003FFFFFE00
000FFC0000BFD00002FFFFF800
000FF80000BFC00000BFFFD000
0007E000002F4000001BF90000
ENDCHAR
STARTCHAR N
ENCODING 78
SWIDTH 884 0
DWIDTH 32 0
BBX 37 31 0 0
BITMAP
0006FD00006FE8000000
007FFF8006FFFF400000
02FFFFC01FFFFFC00000
0BFFFFD07FFFFFD00000
2FE4BFD0FF41FFE00000
7F807FD2F800BFE00000
FE007FD7E0007FE00000
F8007FDBC0007FE00000
6000BFDF4000BFE00000
0000BFEE0000BFD00000
0000BFFD0000FFD00000
0000FFF80000FFC00000
0000FFF40001FFC00000
0000FFF00002FF800000
0001FFE00002FF400000
0001FFD00003FF400000
0002FFC00007FF000000
0002FFC00007FF000000
0003FF80000BFE000000
0003FF40000BFD000000
0007FF00000FFD000000
0007FF00000FFC000000
000BFE00001FFC000000
000BFE00001FFC000740
000BFD00001FFC001F40
000FFD00001FFC007F40
000FFC00000FFE02FF00
000FFC00000BFFFFFC00
000FFC000003FFFFF400
000FF8000001FFFF8000
0007E00000002BF90000
ENDCHAR
STARTCHAR O
ENCODING 79
SWIDTH 816 0
DWIDTH 29 0
BBX 27 31 2 0
BITMAP
000001BFE90000
00002FFFFFD000
0002FFFFFFF800
000BFFFFFFFE00
002FFE402FFF40
00BFF40003FFC0
01FFD00001FFE0
03FF400000BFF0
0BFE0000007FF4
0FFD0000003FF4
1FFC0000002FF8
2FF80000002FF8
3FF40000002FF8
7FF00000002FF8
7FF00000002FF8
BFE00000002FF8
BFE00000002FF4
BFE00000003FF4
BFE00000007FF0
BFE00000007FE0
BFE0000000BFD0
7FF0000001FFC0
7FF4000002FF80
3FF8000007FF00
2FFD00001FFD00
0FFF40007FF800
07FFE006FFE000
02FFFFFFFF8000
00BFFFFFFE0000
001FFFFFE40000
0001AFF9000000
ENDCHAR
STARTCHAR P
ENCODING 80
SWIDTH 805 0
DWIDTH 29 0
BBX 29 34 1 -3
BITMAP
0000001AFFA40000
000002FFFFFF4000
00002FFFFFFFE000
0000BFFFFFFFF800
0007FFD401BFFD00
000FFD00001FFF00
002FF400000BFF40
00BFD02F8003FF40
00FF40BFC002FF80
02FE00FFC002FF80
03FD00FFC002FF80
0BF801FF8003FF40
0FF401FF8007FF00
1FF002FF800BFE00
1FE002FF401FFD00
2FD003FF407FF800
3FD003FF06FFF000
3FC1FFFFFFFFC000
3FC2FFFFFFFE0000
7F82FFFFFFE40000
7F81BFFFF9400000
7F800FFC00000000
7F800FFC00000000
7F801FF800000000
7F801FF800000000
3FC02FF400000000
3FC03FF400000000
2FD03FF000000000
1FF07FE000000000
0FF8BFE000000000
07FFFFD000000000
02FFFFC000000000
007FFF4000000000
000AF80000000000
ENDCHAR
STARTCHAR Q
ENCODING 81
SWIDTH 816 0
DWIDTH 29 0
BBX 30 42 2 -11
BITMAP
000001BFE9000000
00006FFFFFD00000
0002FFFFFFF80000
000BFFFFFFFE0000
002FFE401FFF4000
00BFF40003FFC000
01FFD00001FFE000
03FF400000BFF000
0BFE0000007FF400
0FFD0000003FF400
1FF80000002FF800
2FF40000002FF800
3FF40000002FF800
7FF00000002FF800
7FE00000002FF800
BFE00000002FF800
BFE00000003FF400
BFE00000003FF400
BFE00000007FF000
BFE0000000BFE000
BFF0000000FFD000
7FF0000001FFC000
3FF4000003FF4000
2FFC00000BFF0000
1FFE00002FFD0000
0BFF8001FFF80000
07FFFAAFFFE00000
01FFFFFFFF800000
007FFFFFFD000000
0006FFFF90000000
00001BFF80000000
000002FFE0000000
000000BFF4000000
0000007FF8000000
0000002FFC000090
0000001FFE0002E0
0000000FFF400BE0
00000007FFD06FC0
00000002FFFFFF40
00000000FFFFFE00
000000007FFFF400
0000000006FE4000
ENDCHAR
STARTCHAR R
ENCODING 82
SWIDTH 880 0
DWIDTH 32 0
BBX 35 31 2 0
BITMAP
0000016FFE90000000
00001FFFFFFD000000
0001FFFFFFFF800000
000BFFFFFFFFE00000
002FFE4006FFF40000
00BFE00000BFF80000
01FF8000002FFC0000
03FE01FD001FFC0000
0BF803FE001FFC0000
0FF007FE001FFC0000
1FE00BFE002FF80000
2FD00BFD003FF40000
3FC00FFD00BFE00000
7F800FFC02FFC00000
BF401FF81FFF400000
BF41FFFFFFF8000000
FF03FFFFFF90000000
FF03FFFFFD00000000
FF01FFFFFF80000000
FF003FF6FFE0000000
FF007FE0BFF4000000
FF007FE03FF8000000
BF00BFD01FFD000010
BF40BFD00FFE0000B4
7F80FFC007FF4002F4
3FC0FFC003FFC00BF0
2FE1FF8001FFE02FE0
0FFFFF8000FFFFFF80
07FFFF40007FFFFE00
01FFFE00001FFFF800
001BF4000002FF9000
ENDCHAR
STARTCHAR S
ENCODING 83
SWIDTH 693 0
DWIDTH 25 0
BBX 24 31 1 0
BITMAP
00001AFFA400
0002FFFFFF80
001FFFFFFFE0
007FFFFFFFFC
00FFF9006FFD
02FF800007FE
03FF400002FF
03FF000002FF
07FE000003FF
07FF000003FE
03FF800002FD
02FFE0000064
01FFFD000000
00BFFFD00000
002FFFFE4000
0007FFFFE400
0000BFFFFE00
000006FFFF80
0000006FFFE0
05000002FFF0
3FC000007FF4
7FC000002FF8
BFC000001FF8
BFC000001FF4
BFC000002FF4
BFE00000BFF0
7FF90006FFD0
2FFFFFFFFF80
0BFFFFFFFE00
01FFFFFFE400
001AFFE90000
ENDCHAR
STARTCHAR T
ENCODING 84
SWIDTH 697 0
DWIDTH 25 0
BBX 32 31 1 0
BITMAP
00001AAFFFFFFFA4
001BFFFFFFFFFFFD
01FFFFFFFFFFFFFD
0BFFFFFFFFFFFFFC
2FFE501FF8000000
3FE0002FF8000000
7FC0002FF4000000
BF80003FF4000000
BF80003FF0000000
BFC0007FF0000000
7FD000BFE0000000
3FD000BFE0000000
1F4000FFD0000000
000000FFD0000000
000001FFC0000000
000001FFC0000000
000002FF80000000
000002FF40000000
000002FF40000000
000003FF40000000
000003FF00000000
000007FF00000000
000007FE00000000
00000BFE00000000
00000BFD00000000
00000FFD00000000
00000FFD00000000
00000FFD00000000
00001FFC00000000
00000FFC00000000
000007E400000000
ENDCHAR
STARTCHAR U
ENCODING 85
SWIDTH 890 0
DWIDTH 32 0
BBX 37 31 0 0
BITMAP
0006FE0000001B800000
007FFFC000002FE00000
02FFFFE000003FF00000
0BFFFFF000003FF00000
2FF47FF400007FF00000
7F803FF400007FF00000
FE003FF40000BFE00000
F8003FF00000BFE00000
60003FF00000FFD00000
00007FF00000FFD00000
0000BFE00001FFC00000
0000BFD00002FFC00000
0000FFD00003FF800000
0001FFC00003FF800000
0001FF800007FF400000
0002FF80000BFF400000
0002FF40000FFF000000
0003FF00002FFF000000
0007FF00003FFF000000
0007FE00007FFE000000
000BFD0000FBFE000000
000BFD0001FBFD000000
000FFC0007EBFD000240
000FFC000FDBFD000B80
000FFD003F8BFD001F80
000FFE42FF4BFE007F40
000FFFFFFE0BFF42FF00
000BFFFFF807FFFFFC00
0007FFFFE002FFFFF400
0001FFFF8000FFFF8000
00006FE900001BF90000
ENDCHAR
STARTCHAR V
ENCODING 86
SWIDTH 763 0
DWIDTH 27 0
BBX 29 32 4 0
BITMAP
000000006FE00000
07E40001FFFC0000
1FF80007FFFE0000
2FF8000FFFFF0000
2FF4001FE1FF4000
3FF4002FC0FF4000
3FF0003F80FF8000
3FF0003F80FF4000
7FF0003F40FF4000
7FE0003F80FF4000
7FE0003F81FF0000
7FE0003FC2FF0000
BFE0002FD2FE0000
BFE0001FF7FD0000
BFE0000FFFFC0000
BFE00007FFFD0000
BFE00001FFFFFF40
BFE000007FFFFF80
7FE000003FFFFF40
7FE00000BFEAFE00
7FE00000FF800000
7FF00002FF400000
3FF00007FE000000
3FF4000FFC000000
2FF8002FF4000000
1FFC00BFE0000000
0FFE07FF80000000
0BFFFFFF00000000
07FFFFFC00000000
02FFFFE000000000
00BFFF4000000000
001BE40000000000
ENDCHAR
STARTCHAR W
ENCODING 87
SWIDTH 1217 0
DWIDTH 44 0
BBX 45 32 4 0
BITMAP
00000000000000002BE40000
07E0000002F80001FFFD0000
1FF8000007FD0003FFFF0000
2FF800000FFD000BFFFF4000
2FF400000FFD000FE0FF8000
3FF400001FFC001FD0BFC000
3FF000001FFC002FC0BFC000
3FF000002FF8002FC0BF8000
7FF000002FF8002FC0BF8000
7FF000003FF8002FC0BF8000
7FE000007FF8002FC0FF4000
7FE00000BFF4002FD1FF4000
BFE00000BFF4001FE1FF0000
BFE00000FFF4000FFAFE0000
BFD00001FFF4000BFFFD0000
BFD00002FFF40003FFFD0000
BFD00003FFF40000FFFFFF80
BFD00007FFF400002FFFFFC0
BFD0000BFFF400002FFFFF80
BFE0000FFFF400007FEABE40
7FE0001FEFF40000BFC00000
7FE0003FDFF80001FF800000
7FF0007FCBF80003FF000000
3FF000FF4BF8000BFD000000
2FF402FF07FC001FF8000000
2FF807FD07FE007FF0000000
1FFD1FF803FF42FFD0000000
0FFFFFF402FFFFFF40000000
07FFFFD001FFFFFD00000000
03FFFF8000BFFFF400000000
01FFFD00002FFF9000000000
002FE000000BF90000000000
ENDCHAR
STARTCHAR X
ENCODING 88
SWIDTH 712 0
DWIDTH 26 0
BBX 32 31 -1 0
BITMAP
0006FE4000007F40
007FFFE00002FF80
02FFFFF40007FF40
0BFFFFFC001FFE00
1FF42FFE003FF800
2F800BFF00BFF000
2E0003FF42FFD000
040002FF8BFF4000
000001FFDFFD0000
000000FFFFF80000
000000BFFFE00000
0000007FFF800000
0000007FFF000000
0000003FFC000000
0000007FF8000000
000000FFF8000000
000003FFFC000000
00000BFFFD000000
00002FFFFE000000
0000BFFBFE000000
0001FFD3FF000000
0007FF82FF400000
001FFE02FF800000
003FFC01FFC0002C
00FFF400FFD000BD
02FFD000BFE002FC
0BFF80007FF41BF8
2FFE00002FFFFFE0
7FFC00000FFFFF80
7FF0000007FFFE00
2F80000000AFE400
ENDCHAR
STARTCHAR Y
ENCODING 89
SWIDTH 851 0
DWIDTH 31 0
BBX 35 42 0 -11
BITMAP
0006FE0000000BD000
007FFFD000002FF000
02FFFFE000003FF000
0BFFFFF000003FF000
2FE47FF400007FF000
7F803FF400007FE000
FE003FF40000BFE000
F8003FF00000BFD000
60007FF00000FFD000
00007FE00001FFD000
0000BFE00001FFC000
0000BFD00002FFC000
0000FFD00003FF8000
0001FFC00007FF8000
0001FF80000FFF4000
0002FF80001FFF4000
0003FF40002FFF0000
0003FF00007FFF0000
0003FF0000FEFF0000
0003FF0002F7FE0000
0003FF400BF3FE0000
0002FFD07FD7FD0000
0001FFFFFF47FD16F4
0000FFFFFD0BFFFFF8
00003FFFE40BFFFFF4
000006FA40BFFFFFE0
000000001BFFFFA400
00000001BFFFF80000
0000000BFFEFF40000
0000007FF91FF40000
000001FF902FF00000
000007FE002FE00000
00000FF4003FD00000
00002FE0007FD00000
00003FD000BF800000
00007FC001FF400000
00007FD003FF000000
00007FE01FFD000000
00003FFFFFF4000000
00002FFFFFD0000000
00000BFFFF40000000
000001BFE400000000
ENDCHAR
STARTCHAR Z
ENCODING 90
SWIDTH 721 0
DWIDTH 26 0
BBX 31 31 0 0
BITMAP
00001AFFFEA50000
0006FFFFFFFFF800
002FFFFFFFFFFE00
01FFFFFFFFFFFF00
03FFD40005BFFE00
07FE000000FFE400
0BF8000001FFD000
0BF4000003FF8000
0FF400000BFF0000
0BF800001FFD0000
0BFC00002FF80000
03FD00007FF00000
01F80000FFE00000
00000002FFC00000
00000007FF400000
0000000FFE000000
0000002FFC000000
0000007FF4000000
000000FFE0000000
000002FFC0000000
000007FF40000000
00001FFE00000000
00003FFC00000000
0000BFF400000064
02BFFFE4000002F8
1FFFFFFFE5006FF4
3FFFFFFFFFFFFFF0
7FFFFFFFFFFFFFD0
7FFFE06FFFFFFF40
3FFF8006FFFFF800
0AF900001BFE9000
ENDCHAR
STARTCHAR bracketleft
ENCODING 91
SWIDTH 405 0
DWIDTH 15 0
BBX 16 37 2 -3
BITMAP
001BFFFD
003FFFFF
007FFFFE
007FFFF9
00BFC000
00BFC000
00FFC000
00FF8000
01FF8000
01FF8000
01FF4000
02FF4000
02FF0000
03FF0000
03FF0000
07FE0000
07FE0000
07FD0000
0BFD0000
0BFD0000
0FFC0000
0FFC0000
0FF80000
1FF80000
1FF80000
2FF40000
2FF40000
2FF00000
3FF00000
3FF00000
3FE00000
7FE00000
7FE00000
BFFFFD00
BFFFFF00
7FFFFE00
1BFFF800
ENDCHAR
STARTCHAR backslash
ENCODING 92
SWIDTH 509 0
DWIDTH 18 0
BBX 13 34 4 0
BITMAP
2D000000
BF000000
FF400000
FF800000
BFC00000
BFD00000
7FE00000
3FF00000
2FF00000
1FF40000
0FF80000
0BFC0000
0BFD0000
07FE0000
03FF0000
02FF0000
01FF4000
00FF8000
00BFC000
00BFD000
007FE000
003FF000
002FF000
001FF400
000FF800
000BFC00
000BFD00
0007FE00
0003FF00
0002FF00
0001FF40
0000FF40
0000BF40
00007D00
ENDCHAR
STARTCHAR bracketright
ENCODING 93
SWIDTH 405 0
DWIDTH 15 0
BBX 16 37 -2 -3
BITMAP
002FFFF8
00BFFFFE
00BFFFFE
006FFFFE
000007FE
000007FD
00000BFD
00000BFD
00000FFC
00000FFC
00000FF8
00001FF8
00001FF8
00001FF4
00002FF4
00002FF0
00003FF0
00003FF0
00007FE0
00007FE0
00007FD0
0000BFD0
0000BFD0
0000BFC0
0000FFC0
0000FF80
0001FF80
0001FF80
0001FF40
0002FF40
0002FF00
0003FF00
0003FE00
6FFFFE00
BFFFFD00
BFFFFC00
2FFFE400
ENDCHAR
STARTCHAR asciicircum
ENCODING 94
SWIDTH 700 0
DWIDTH 25 0
BBX 18 19 3 2
BITMAP
00001F4000
00007FC000
0000BFD000
0001FFE000
0003FFF000
0007FFF400
000FF7F800
002FE3FC00
003FC2FD00
00BF81FE00
01FF00FF00
02FD00BF00
07FC007F40
0FF4003F80
1FE0002FC0
3FD0001FD0
BF80001FE0
BF40000FE0
7D000007D0
ENDCHAR
STARTCHAR underscore
ENCODING 95
SWIDTH 354 0
DWIDTH 13 0
BBX 13 4 -1 -4
BITMAP
6FFFFE40
BFFFFF80
BFFFFF80
7FFFFF40
ENDCHAR
STARTCHAR grave
ENCODING 96
SWIDTH 600 0
DWIDTH 22 0
BBX 8 11 4 19
BITMAP
2E00
7F80
BFC0
7FE0
2FF0
0FF4
07FC
01FD
00BE
003F
000E
ENDCHAR
STARTCHAR a
ENCODING 97
SWIDTH 470 0
DWIDTH 17 0
BBX 21 17 1 0
BITMAP
0006F8000000
002FFE500000
00FFFFF80000
03FFFFF80000
0BFF4BF40000
1FFC0FF40000
2FF41FF00000
3FE01FF00000
7FD02FE00000
BFC03FE00740
BF807FD01F80
BF80BFD07F40
BFD1FFE1FF00
7FFFFFFFFD00
3FFFDBFFF400
1FFF87FFD000
06F901BE0000
ENDCHAR
STARTCHAR b
ENCODING 98
SWIDTH 473 0
DWIDTH 17 0
BBX 20 34 2 0
BITMAP
0001BD0000
000BFF4000
002FFFC000
007FFFD000
00FF5FD000
01FE0FD000
02FD0FD000
07FC0FD000
0BF81FC000
0FF42F8000
1FF03F4000
1FE07F0000
2FE0BE0000
3FD1FC0000
3FD2F40000
7FC7E00000
7FCBC00000
BFDFF80000
BFFFFF4000
FFFFFFC000
FFF9FFE000
FFE0FFF000
FFC0FFF419
FF80BFFFFE
FF807FFFFE
FF802FFFFE
BF800FFFA4
BF800FF000
7FC02FE000
3FE07FD000
2FFFFF8000
1FFFFE0000
07FFF80000
00BF900000
ENDCHAR
STARTCHAR c
ENCODING 99
SWIDTH 368 0
DWIDTH 13 0
BBX 17 17 1 0
BITMAP
001BE40000
01FFFD0000
07FFFF0000
0FFFFF4000
2FF87F4000
3FE07F0000
7FD0BE0000
BFC0780000
BF80000000
BF80000780
BFC0001FC0
BFD000BF80
7FF407FF40
3FFFFFFD00
1FFFFFF400
07FFFF8000
006FE80000
ENDCHAR
STARTCHAR d
ENCODING 100
SWIDTH 515 0
DWIDTH 19 0
BBX 22 34 1 0
BITMAP
00000001F800
0000000BFF00
0000002FFF40
0000003FFF80
000000BF6FC0
000000FF1FC0
000001FE1FC0
000002FD1F80
000003FC1F80
000003FC2F80
000007F82F40
00000BF83F00
00000BF47E00
00000FF4BD00
00000FF4FC00
00001FF1F800
00001FF2F400
0006FFF3F000
002FFFF7E000
00FFFFEBC000
03FFFFFF8000
0BFE2FFF4000
1FF82FFE0000
2FF02FFD0000
7FD02FF80000
7FC02FF00000
BFC02FE000B0
BF801FE002F0
BFC03FF00BF0
BFD1FFF86FE0
7FFFFFFFFF80
3FFFE3FFFE00
1FFF81FFF800
02FD006F9000
ENDCHAR
STARTCHAR e
ENCODING 101
SWIDTH 393 0
DWIDTH 14 0
BBX 18 17 1 0
BITMAP
001BF80000
01FFFE0000
07FFFF8000
0FFFFF8000
2FF47FC000
3FD03FC000
7FC07F8000
BF81FF0000
BF9BFD0000
BFFFF401E0
BFFE400BE0
BFE0006FE0
7FF406FFD0
2FFFFFFF40
0FFFFFFD00
07FFFFE000
006FF90000
ENDCHAR
STARTCHAR f
ENCODING 102
SWIDTH 371 0
DWIDTH 13 0
BBX 15 46 2 -12
BITMAP
00002F80
0001FFE0
0003FFF4
000BFFF8
001FE3F8
003FD2F8
007F82F8
00FF42F8
01FF03F4
02FE03F4
03FD07F0
07FC0BE0
0BFC0FD0
0FF81F80
0FF43F40
1FF47E00
2FF0FC00
2FE2F400
3FE7E000
3FEFC000
7FFF0000
7FFD0000
BFF40000
BFD00000
BF800010
FF8BFFFC
FF9FFFFC
FF7FFFF8
FF6FAF90
FF6F4000
FF5F4000
FF5F8000
FF4F8000
FF4FC000
FF4BC000
FF8BC000
FF8BD000
FF8BD000
BF8BD000
BF8BC000
7FCBC000
7FCFC000
3FFF8000
2FFF4000
0FFE0000
02F40000
ENDCHAR
STARTCHAR g
ENCODING 103
SWIDTH 479 0
DWIDTH 17 0
BBX 21 34 0 -17
BITMAP
0001BE000000
000BFF940000
003FFFFE0000
00FFFFFE0000
02FFD3FD0000
07FF03FD0000
0BFD07FC0000
0FF807FC0000
1FF40BF80000
2FF00FF806C0
2FE00FF42FC0
2FE02FF5FFC0
2FF47FFBFF40
1FFFFFFFFD00
0FFFFFFFE000
07FFEFFF4000
01BE6FF80000
0000BFD00000
0007FFC00000
001FFFC00000
007FFF800000
01FEBF400000
03F8BF400000
0BF0FF000000
1FD1FE000000
3F82FD000000
7F03FC000000
BE07F8000000
FD0FF4000000
FE2FE0000000
FFFFD0000000
BFFF80000000
7FFE00000000
1BE400000000
ENDCHAR
STARTCHAR h
ENCODING 104
SWIDTH 502 0
DWIDTH 18 0
BBX 21 34 2 0
BITMAP
0001BD000000
000BFF400000
002FFFC00000
007FFFD00000
00BF5FD00000
01FE0FD00000
02FD0FD00000
03FC0FD00000
07F81FC00000
0BF42F800000
0FF03F400000
1FF07F000000
2FE0FD000000
2FD1F8000000
3FD3F4000000
3FCBE0000000
7FEF80000000
7FFF06E00000
BFFD7FF80000
BFF4FFF80000
BFE3FFF80000
FF8BFFF80000
FF5FEFF40000
FF6F4FF40000
FFBE1FF00000
FFFC1FE00000
FFF82FE00780
FFF42FD01F80
FFF03FD07F80
FFE03FE1FF00
FFD03FFFFD00
FFC02FFFF400
FF401FFF8000
7D0007F90000
ENDCHAR
STARTCHAR i
ENCODING 105
SWIDTH 246 0
DWIDTH 9 0
BBX 13 25 1 0
BITMAP
00BE0000
03FF8000
07FF8000
0BFF8000
07FF4000
01F90000
00000000
00000000
02F40000
0BF80000
0FF40000
1FF40000
1FF00000
2FF00000
3FE00000
3FD00000
3FD00000
7FC00B40
7FC01F40
7FC07F40
7FD2FF00
3FFFFC00
2FFFF400
0FFF8000
06F90000
ENDCHAR
STARTCHAR j
ENCODING 106
SWIDTH 254 0
DWIDTH 9 0
BBX 21 42 -8 -17
BITMAP
000000BE0000
000003FF8000
000007FFC000
000007FFC000
000003FF4000
000001FD0000
000000000000
000000000000
000001BD0000
000003FE0000
000003FD0000
000007FD0000
000007FD0000
000007FC0000
00000BFC0000
00000BF80000
00000BF80000
00000FF80780
00000FF42FC0
00000FF4BFC0
00001FF7FF40
00001FFFF900
00001FFFE000
00002FFF4000
00002FF80000
00007FD00000
0002FFC00000
000BFFC00000
002FFF800000
00FFBF400000
02F8FF400000
0BF0FF000000
1FC1FE000000
3F42FD000000
7F03FC000000
BE07F8000000
FD0FF0000000
FE2FE0000000
FFFFC0000000
FFFF40000000
7FFE00000000
1BE400000000
ENDCHAR
STARTCHAR k
ENCODING 107
SWIDTH 525 0
DWIDTH 19 0
BBX 22 34 2 0
BITMAP
0001BD000000
000BFF400000
002FFFC00000
007FFFD00000
00BF5FD00000
01FE0FD00000
02FD0FD00000
03FC0FD00000
07F81FC00000
0BF42F800000
0FF03F400000
1FF07F000000
2FE0FE000000
2FD1FC000000
3FD3F4000000
3FCBE0000000
7FEFC0000000
7FFF47F40000
BFFE3FFE0000
BFF8FFFF0000
BFF3FFFF4000
FFCBFFFF4000
FF4FE1FF4000
FF6F80FF0000
FF7F01FE0000
FFFD07FC0000
FFF86FF401D0
FFF5FF8007E0
FFF1FF401FD0
FFE1FF90BFC0
FFD0FFFFFF40
BFC0BFFFFD00
7F802FFFF000
2E0006FE4000
ENDCHAR
STARTCHAR l
ENCODING 108
SWIDTH 326 0
DWIDTH 12 0
BBX 15 34 2 0
BITMAP
0001BD00
000BFF40
002FFFC0
007FFFC0
00BF5FD0
01FE0FD0
02FD0FD0
03FC0FD0
07F81FD0
0BF41FC0
0FF01FC0
1FE02F80
2FE03F40
3FD07F00
3FD0BE00
7FC0FD00
7FC1FC00
BF83F400
BF87F000
BF8FE000
FF5FC000
FFBF4000
FFFE0000
FFFD0000
FFF80000
FFF00000
BFD000B4
BF8002F4
7FC00BF4
3FE06FE0
2FFFFFC0
1FFFFE00
07FFF800
01BF9000
ENDCHAR
STARTCHAR m
ENCODING 109
SWIDTH 744 0
DWIDTH 27 0
BBX 31 17 1 0
BITMAP
02F406F400BE0000
0BF41FFC07FF4000
0FF47FFC1FFF8000
1FF1FFFC7FFF4000
2FE3FFFCFFFF4000
2FEBEFF9FEFF0000
3FDFCBFBF1FF0000
3FEF4BFBD2FE0000
3FFE0BFFC2FE0000
3FFD0FFF43FD00B4
7FFC0FFF03FC02F4
7FF80FFE07FC0BF4
3FF41FFD07FD2FE0
3FF00FFC07FFFFC0
3FE00FF803FFFF00
2FD00BF402FFF800
0B8007E000BF9000
ENDCHAR
STARTCHAR n
ENCODING 110
SWIDTH 496 0
DWIDTH 18 0
BBX 22 17 1 0
BITMAP
02F402F80000
0BF41FFD0000
0FF47FFE0000
1FF1FFFE0000
2FE3FFFD0000
2FE7FBFD0000
3FDFD7FC0000
3FEF87F80000
3FFF0BF80000
3FFD0BF402D0
7FFC0FF40BD0
7FF80FF01FD0
3FF41FF4BFC0
3FF01FFFFF00
3FE00FFFFC00
2FD00BFFE000
0B8002FE4000
ENDCHAR
STARTCHAR o
ENCODING 111
SWIDTH 451 0
DWIDTH 16 0
BBX 20 17 1 0
BITMAP
001BF80000
01FFFF4000
07FFFFD000
0FFFFFE000
2FF4FFF400
3FE0FFF415
7FC0BFFFFF
BF807FFFFF
BF801FFFFE
BF800BFFA4
BFC00FF000
BFD01FE000
7FE07FD000
2FFFFF8000
1FFFFF0000
07FFFD0000
00BF900000
ENDCHAR
STARTCHAR p
ENCODING 112
SWIDTH 481 0
DWIDTH 17 0
BBX 27 34 -5 -17
BITMAP
0000BD0BF40000
0002FE2FFE0000
0002FEBFFF4000
0002FFFFFF8000
0002FFE0FFC000
0002FF80BFC000
0002FF00BFC000
0002FE00BFC000
0002FE00FF8000
0002FE01FF4038
0007FE02FF00FC
000BFE07FE03F8
001FFE1FFC1FF4
002FFFBFFFFFE0
007FFFFFFFFF80
00BFFFFFFFFD00
01FAFFE46FA000
02F6FD00000000
03F3FD00000000
07E3FD00000000
0BD3FD00000000
0FC3FC00000000
1F87FC00000000
2F47F800000000
3F47F800000000
3F0BF400000000
3F0BF000000000
7F0FF000000000
7F0FE000000000
7F6FD000000000
3FFFC000000000
3FFF4000000000
1FFE0000000000
07F40000000000
ENDCHAR
STARTCHAR q
ENCODING 113
SWIDTH 500 0
DWIDTH 18 0
BBX 22 33 1 -14
BITMAP
000000150000
000000FF0000
0006FEFF0000
002FFFFE0000
00BFFFFE0000
02FFFFFD0000
0BFF4BFC0000
1FFC0FF80000
2FF40FF40000
3FE01FF00000
7FD02FE00000
BFC03FE00000
BF807FD2FFE0
BF80BFCBFFE0
BFD2FFCFFFD0
7FFFFF8FFF80
3FFFFF4BC000
1FFEFF4BC000
06F9FF0BC000
0001FF0BD000
0002FF0BC000
0002FE0BC000
0002FE0BC000
0002FE0BC000
0002FE0FC000
0003FE0F8000
0002FE1F4000
0002FF2F4000
0002FF7F0000
0001FFFE0000
0000FFFC0000
00007FF40000
00001B900000
ENDCHAR
STARTCHAR r
ENCODING 114
SWIDTH 455 0
DWIDTH 16 0
BBX 21 17 1 0
BITMAP
02F402F80000
0BF41FFD0000
0FF47FFE0000
1FF0FFFD0000
2FE2FFFD0000
2FE7FFFC0000
3FDFD7FC0B40
3FEF87FD2F40
3FFF07FFFF40
3FFE07FFFE00
7FFC02FFF400
7FF8006E8000
3FF400000000
3FF000000000
3FE000000000
2FD000000000
0B8000000000
ENDCHAR
STARTCHAR s
ENCODING 115
SWIDTH 427 0
DWIDTH 15 0
BBX 21 18 -1 -1
BITMAP
00007F000000
0001FF000000
0002FE000000
0007FD000000
000BFC000000
000FFD000000
002FFF000000
003FFF800000
00BFFFD00000
01FD7FF00280
07F82FF80BC0
0FF00FFC2FC0
2FD00BFCBF80
7F47FFFFFF00
7E1FFFFFFC00
141FFFFFE000
000FFFFE4000
0002FE400000
ENDCHAR
STARTCHAR t
ENCODING 116
SWIDTH 393 0
DWIDTH 14 0
BBX 19 32 0 0
BITMAP
000007E000
00002FFC00
0000BFFD00
0001FFFE00
0003F8FE00
000BF4BE00
000FE0BE00
001FD0FD00
002FD0FD00
003FC1FC00
007F83F400
00BF87F000
00BF5FD000
00FF7F4000
01FFFE0000
7FFFFFFF00
FFFFFFFF00
FFFFFFFE00
7FFFFFE800
02FE000000
02FE000000
02FE000000
02FE000000
02FE000000
02FE000074
02FF0001F8
01FF4007F8
00FFD02FF4
00BFFFFFD0
003FFFFF40
000FFFFD00
0001BF9000
ENDCHAR
STARTCHAR u
ENCODING 117
SWIDTH 462 0
DWIDTH 17 0
BBX 21 17 1 0
BITMAP
02F401F80000
07F803F80000
0FF407F80000
0FF40BF40000
1FF00FF40000
2FE01FF00000
3FE02FE00000
3FD03FE00000
3FD0BFD00000
7FC0FFD00B00
7FC2FFC02F40
7FD7FFC0BF00
7FFFFFC2FE00
3FFF7FFFF800
2FFF3FFFE000
1FFD1FFF8000
07E40BF90000
ENDCHAR
STARTCHAR v
ENCODING 118
SWIDTH 449 0
DWIDTH 16 0
BBX 20 17 1 0
BITMAP
1F8006E000
3FC01FF800
7FC03FF800
7FC0BFF800
7FD0BFF400
7FD0BFF059
3FD07FFFFF
3FD07FFFFF
3FD0FFFFFE
3FD2FFBFE4
3FD7FD0000
2FEBF80000
2FFFF00000
2FFFD00000
1FFF800000
0FFE000000
02F4000000
ENDCHAR
STARTCHAR w
ENCODING 119
SWIDTH 700 0
DWIDTH 25 0
BBX 29 17 1 0
BITMAP
1F8002E001B80000
3FC00BF007FE0000
7FC00FF00FFE0000
7FC02FF41FFE0000
7FD03FF42FFE0000
7FD07FF42FFD1640
3FD0BFF41FFFFFC0
3FD1FFF41FFFFFC0
3FD2FFF43FFFFF80
3FD3FFF4BFEFF900
3FDBF7F9FF400000
2FEFE7FAFE000000
2FFFC7FFFC000000
2FFF87FFF4000000
1FFF43FFE0000000
0FFD02FF80000000
02F400BE00000000
ENDCHAR
STARTCHAR x
ENCODING 120
SWIDTH 529 0
DWIDTH 19 0
BBX 24 17 0 0
BITMAP
006F9006F800
01FFF87FFD00
02FFFEFFFE00
03FFFFFFFD00
03F8FFF8FD00
01F0BFF0B800
00007FE00000
00007FD00000
0140BFD00004
1FC0BFC0002E
3FC0FFD0007E
7FC1FFE001FD
7FC7FFF41BFC
7FFFFFFFFFF4
3FFFEFFFFFD0
1FFF87FFFE00
06F9006FE400
ENDCHAR
STARTCHAR y
ENCODING 121
SWIDTH 479 0
DWIDTH 17 0
BBX 21 34 0 -17
BITMAP
00BD007E0000
01FE00FE0000
03FD01FE0000
03FD02FD0000
07FC03FD0000
0BF807FC0000
0FF80BFC0000
0FF40FF80000
0FF42FF80000
1FF03FF80280
1FF0BFF41FC0
1FF5FFF4BFC0
1FFFFFF7FF40
0FFFEFFFFD00
0BFFDFFFE000
07FF5FFF4000
01F92FF80000
0000BFD00000
0002FFC00000
000BFF800000
003FFF800000
00FEBF400000
02F8BF000000
0BF0FF000000
1FC1FE000000
3F42FD000000
7F03FC000000
BE07F8000000
FD0FF0000000
FE2FE0000000
FFFFC0000000
BFFF40000000
7FFE00000000
1BE400000000
ENDCHAR
STARTCHAR z
ENCODING 122
SWIDTH 445 0
DWIDTH 16 0
BBX 19 17 2 0
BITMAP
7FFFFFF800
BFFFFFFC00
BFFFFFFC00
7FFFFFF800
000BFFD000
007FFD0000
02FFD00000
0FFE000000
2FF4000010
7FE00000B8
BFD00002F8
BFD0001BF4
BFF401BFE0
7FFFFFFF80
2FFFFFFE00
07FFFFF400
006FFA4000
ENDCHAR
STARTCHAR braceleft
ENCODING 123
SWIDTH 490 0
DWIDTH 18 0
BBX 19 37 2 -3
BITMAP
000001BFE0
00001FFFF8
00007FFFF8
0000FFFFE4
0001FFD000
0002FF4000
0003FF0000
0003FE0000
0003FE0000
0007FE0000
0007FD0000
0007FD0000
000BFD0000
000BFC0000
001FFC0000
007FF40000
7FFFE00000
FFFF800000
FFFF400000
7FFFC00000
01BFE00000
007FE00000
003FE00000
003FE00000
007FE00000
007FD00000
007FD00000
00BFD00000
00BFC00000
00FFC00000
00FFC00000
00BFC00000
00BFE40000
007FFFE400
002FFFFC00
000BFFFC00
0001BFE400
ENDCHAR
STARTCHAR bar
ENCODING 124
SWIDTH 326 0
DWIDTH 12 0
BBX 11 45 1 -11
BITMAP
0007E0
000FF4
001FF4
001FF4
001FF0
002FF0
002FE0
002FE0
003FE0
003FD0
007FD0
007FC0
007FC0
00BFC0
00BF80
00FF80
00FF40
01FF40
01FF00
02FF00
02FE00
03FE00
03FD00
03FD00
07FD00
07FC00
0BFC00
0BF800
0FF800
0FF400
1FF400
1FF000
1FF000
2FF000
2FE000
3FE000
3FD000
7FD000
7FD000
7FC000
BFC000
BF8000
FF8000
FF4000
7E0000
ENDCHAR
STARTCHAR braceright
ENCODING 125
SWIDTH 490 0
DWIDTH 18 0
BBX 20 37 -2 -3
BITMAP
002FF90000
00BFFFD000
00BFFFF000
002FFFF800
00002FFC00
00000FFC00
00000BFC00
00000BFC00
00000BFC00
00000FFC00
00000FF800
00001FF800
00001FF800
00001FF400
00001FF800
00000FFD00
00000BFFF8
000002FFFD
000006FFFD
00001FFFF8
00003FF900
00007FE000
0000BFD000
0000BFC000
0000FFC000
0000FF8000
0001FF8000
0001FF8000
0001FF4000
0002FF4000
0002FF4000
0003FF0000
001FFE0000
2FFFFD0000
7FFFF80000
7FFFD00000
2FF9000000
ENDCHAR
STARTCHAR asciitilde
ENCODING 126
SWIDTH 700 0
DWIDTH 25 0
BBX 21 9 2 6
BITMAP
001500000000
01FFD0001B40
03FFF8003FC0
0BFFFF80BF80
1FFBFFF5FF40
3FE0BFFFFE00
7FC01BFFFC00
3F4001FFF400
1500002F9000
ENDCHAR
STARTCHAR uni00A0
ENCODING 160
SWIDTH 265 0
DWIDTH 10 0
BBX 1 1 0 0
BITMAP
00
ENDCHAR
STARTCHAR exclamdown
ENCODING 161
SWIDTH 340 0
DWIDTH 12 0
BBX 12 31 -1 -14
BITMAP
0006F8
000FFE
001FFF
002FFF
002FFF
001FFD
0007F4
000000
000000
000F80
002FC0
003FC0
007F80
00BF80
00FF40
00FF40
01FF00
02FF00
03FE00
07FE00
0BFD00
0FFC00
1FFC00
1FF800
2FF400
3FF400
7FF000
BFE000
BFE000
FFD000
7E4000
ENDCHAR
STARTCHAR cent
ENCODING 162
SWIDTH 466 0
DWIDTH 17 0
BBX 15 26 1 -5
BITMAP
00007400
0000F800
0000F400
0000F400
0001F400
001BFE40
00BFFFD0
03FFFFF0
0BFFFBF4
1FF6E7F4
2FD3D7F4
3FC3D7F0
7FC3D7D0
7F87C000
7F87C010
7FCB80B8
3FDB82F8
2FFF9BF4
0FFFFFE0
07FFFF80
01BFFD00
001F4000
001F0000
002F0000
002E0000
002D0000
ENDCHAR
STARTCHAR sterling
ENCODING 163
SWIDTH 525 0
DWIDTH 19 0
BBX 19 22 0 0
BITMAP
00001BE900
0001FFFF80
000BFFFFF0
001FFFFFF4
003FF81FF8
00BFD00BF8
00FF8003F8
00FF400190
01FF000000
01FF000000
1FFFFFE000
3FFFFFF400
2FFFFFE000
02FE000000
02FE000000
03FE000000
03FD000000
1BFD000000
3FFFFFFFE0
7FFFFFFFF4
3FFFFFFFF0
2FAABFFFD0
ENDCHAR
STARTCHAR currency
ENCODING 164
SWIDTH 700 0
DWIDTH 25 0
BBX 18 17 4 2
BITMAP
3800000780
BF1BFA1FD0
7FFFFFFF80
1FFFFFFE00
0BF907FD00
0FE000FE00
1FC0007F00
1F80003F40
2F80003F40
1F80003F40
1FC0007F00
0FE000FE00
0BF907FD00
0FFFFFFE00
3FFFFFFF80
BF5BFA1FD0
7D00000780
ENDCHAR
STARTCHAR yen
ENCODING 165
SWIDTH 497 0
DWIDTH 18 0
BBX 19 22 1 0
BITMAP
1500000150
BF40000FF4
BFC0002FF0
7FE0007FE0
3FF000FF80
1FF802FF00
0FFC07FD00
07FE0FF800
02FF2FF000
01FFBFD000
00BFFF4000
003FFE0000
2FFFFFFD00
3FFFFFFD00
002FF40000
002FF00000
7FFFFFFC00
7FFFFFFC00
003FF00000
003FE00000
003FE00000
001F800000
ENDCHAR
STARTCHAR brokenbar
ENCODING 166
SWIDTH 326 0
DWIDTH 12 0
BBX 11 45 1 -11
BITMAP
0007E0
000FF4
001FF4
001FF4
001FF0
002FF0
002FE0
003FE0
003FD0
007FD0
007FD0
007FC0
00BFC0
00BF80
00FF80
00FF40
00FF40
01FF40
01FE00
006400
000000
000000
000000
000000
000000
01A000
07F800
0BF800
0FF800
0FF800
0FF400
1FF400
1FF000
2FF000
2FE000
3FE000
3FE000
3FD000
7FD000
7FC000
BFC000
BF8000
BF8000
FF4000
7E0000
ENDCHAR
STARTCHAR section
ENCODING 167
SWIDTH 607 0
DWIDTH 22 0
BBX 18 31 2 0
BITMAP
0001AFE900
000BFFFF80
002FFFFFD0
00BFD02FF0
00FF400FF0
01FF000FF0
01FF000FF0
01FF400FE0
01FFD00640
00BFF90000
00BFFF9000
01FFFFF800
07FEFFFF00
0BF42FFF80
0BF402FFC0
0FF4007FD0
0BFC003FD0
0BFF402FD0
07FFE47FC0
01FFFFFF40
007FFFFE00
000BFFFC00
05006FFD00
3F8007FE00
7F8002FF00
7F8001FF00
7F8002FE00
3FE40BFD00
2FFFFFF800
0BFFFFE000
01AFF90000
ENDCHAR
STARTCHAR dieresis
ENCODING 168
SWIDTH 600 0
DWIDTH 22 0
BBX 13 6 5 19
BITMAP
2F407E00
BFC1FF40
FFC2FF80
FFC2FF80
FF81FF40
7E00BD00
ENDCHAR
STARTCHAR copyright
ENCODING 169
SWIDTH 647 0
DWIDTH 23 0
BBX 21 21 3 13
BITMAP
0006BFA40000
006FFFFE4000
01FE556FD000
07F40007F400
1FC06FD0FC00
2F42FFF47E00
7E0BE0B82F40
BD1F80B81F80
BC2F00640F80
F82E00000FC0
F83E00000BC0
F83E00000FC0
BC2F00040F80
BD1F90781F80
7E0BFFF42F40
2F41FF807E00
1FC00000FC00
07F40007F400
01FE556FD000
006FFFFE4000
0006BFA40000
ENDCHAR
STARTCHAR ordfeminine
ENCODING 170
SWIDTH 393 0
DWIDTH 14 0
BBX 13 14 3 16
BITMAP
001BC000
01FFFE00
07FFFF40
1FF8BF40
3FD0FF00
7F80FF00
BF41FE00
FF02FE00
FF03FD00
FF07FD00
FF4FFD00
BFFFFD00
7FFAFD00
1BE1F800
ENDCHAR
STARTCHAR guillemotleft
ENCODING 171
SWIDTH 615 0
DWIDTH 22 0
BBX 20 14 1 2
BITMAP
0007D000B8
002FF007FD
01FFF02FFD
0BFFD1FFF8
7FFE0BFFD0
BFF41FFE00
FFC01FF800
FFD01FF800
7FF80BFF40
1FFE02FFD0
07FF80BFF4
01FFE02FFD
002FE007FC
000B8001F4
ENDCHAR
STARTCHAR logicalnot
ENCODING 172
SWIDTH 700 0
DWIDTH 25 0
BBX 20 12 3 0
BITMAP
6FFFFFFFF8
BFFFFFFFFD
FFFFFFFFFE
7FFFFFFFFE
00000003FD
00000003FD
00000007FC
00000007FC
0000000BFC
0000000BF8
00000007F4
0000000150
ENDCHAR
STARTCHAR uni00AD
ENCODING 173
SWIDTH 403 0
DWIDTH 15 0
BBX 12 5 2 9
BITMAP
0056A4
7FFFFC
FFFFFD
FFFFFC
7FEA90
ENDCHAR
STARTCHAR registered
ENCODING 174
SWIDTH 647 0
DWIDTH 23 0
BBX 21 21 3 13
BITMAP
0006BFA40000
006FFFFE4000
01FE556FD000
07F40007F400
1FC2BE80FC00
2F4BFFF47E00
7E02E0F82F40
BD02E0B81F80
BC02D0F80F80
F803D6F00FC0
F803FF900BC0
F807FE000FC0
BC078F800F80
BD0B87D01F80
7E0B83E02F40
2F4F42F47E00
1FC60060FC00
07F40007F400
01FE556FD000
006FFFFE4000
0006BFA40000
ENDCHAR
STARTCHAR macron
ENCODING 175
SWIDTH 600 0
DWIDTH 22 0
BBX 12 4 5 19
BITMAP
6FFFFD
BFFFFE
BFFFFE
7FFFFC
ENDCHAR
STARTCHAR degree
ENCODING 176
SWIDTH 385 0
DWIDTH 14 0
BBX 12 11 3 20
BITMAP
01BE40
0BFFF0
2FFFF8
3F82FC
7F00FD
7E00FD
7F00FD
7F82FC
2FFFF4
0FFFE0
02FE40
ENDCHAR
STARTCHAR plusminus
ENCODING 177
SWIDTH 700 0
DWIDTH 25 0
BBX 19 21 3 0
BITMAP
00001F4000
00003FC000
00007FC000
00007F8000
00007F8000
0000BF8000
07FFFFFFF4
0FFFFFFFF8
0FFFFFFFF4
0BFFFFFFE0
0001FF0000
0001FE0000
0001FE0000
0002FE0000
0001FD0000
0000640000
0000000000
2FFFFFFF80
7FFFFFFFD0
BFFFFFFFC0
7FFFFFFF40
ENDCHAR
STARTCHAR uni00B2
ENCODING 178
SWIDTH 450 0
DWIDTH 16 0
BBX 15 17 2 13
BITMAP
006FF900
02FFFF40
0BFFFFD0
1FE47FE0
2FC02FE0
2F801FE0
2F802FE0
05007FD0
0000FF80
0002FF00
000BFD00
007FF400
06FF8000
2FFD0000
BFFFFFF0
FFFFFFF4
BFFFFFE0
ENDCHAR
STARTCHAR uni00B3
ENCODING 179
SWIDTH 450 0
DWIDTH 16 0
BBX 15 17 2 13
BITMAP
006BFA00
02FFFFD0
0BFFFFF0
1FE42FF4
1FC00FF4
1F401FF0
00007FD0
000AFF40
002FF800
002FFF40
0005BFD0
29002FE0
7F001FF0
7F807FE0
3FFFFFD0
1FFFFF40
02BFE400
ENDCHAR
STARTCHAR acute
ENCODING 180
SWIDTH 600 0
DWIDTH 22 0
BBX 9 11 9 19
BITMAP
007E00
00FF40
01FF40
02FF40
07FE00
0BF800
0FF000
2FD000
3F4000
7E0000
380000
ENDCHAR
STARTCHAR uni00B5
ENCODING 181
SWIDTH 462 0
DWIDTH 17 0
BBX 21 27 1 -10
BITMAP
02F401F80000
07F803F80000
0FF407F80000
0FF40BF40000
1FF00FF40000
2FE01FF00000
2FE02FE00000
3FD03FE00000
3FD0BFD00000
7FC0FFD00B00
7FC2FFC02F40
7FD7FFC0BF00
BFFFFFC2FE00
BFFF7FFFF800
BFFF3FFFE000
BFFD1FFF8000
BFE40BF90000
FF4000000000
FF4000000000
FF4000000000
FF4000000000
FF4000000000
FF4000000000
FF4000000000
FF4000000000
BF0000000000
140000000000
ENDCHAR
STARTCHAR paragraph
ENCODING 182
SWIDTH 739 0
DWIDTH 27 0
BBX 23 31 3 0
BITMAP
0001AFFFA500
006FFFFFFF80
02FFFFFFFFE0
0BFFFFFFFFF0
2FFFFFFFFFF4
3FFFFFF07FF0
7FFFFFF03FF0
7FFFFFE03FE0
7FFFFFE07FE0
7FFFFFD07FD0
3FFFFFD0BFD0
1FFFFFC0BFC0
07FFFFC0FFC0
01FFFF80FF80
001AFF81FF80
0002FF41FF40
0002FF42FF40
0003FF02FF00
0003FF03FF00
0007FE03FE00
0007FE07FE00
000BFD07FE00
000BFD0BFD00
000FFC0BFD00
000FFC0FFC00
000FFC0FFC00
001FF80FFC00
001FF81FF800
001FF81FF800
001FF41FF400
000BE00BE000
ENDCHAR
STARTCHAR periodcentered
ENCODING 183
SWIDTH 257 0
DWIDTH 9 0
BBX 8 7 1 5
BITMAP
0BE4
2FFC
3FFD
7FFD
7FFD
2FF8
0BE0
ENDCHAR
STARTCHAR cedilla
ENCODING 184
SWIDTH 600 0
DWIDTH 22 0
BBX 11 11 2 -9
BITMAP
06E900
0BFFC0
0BFFF0
001BF4
0003F4
0007F4
001BF4
7FFFF0
FFFFD0
FFFF40
6FE800
ENDCHAR
STARTCHAR uni00B9
ENCODING 185
SWIDTH 450 0
DWIDTH 16 0
BBX 11 17 3 13
BITMAP
001AF4
06FFF8
2FFFF8
7FFFF4
2A4FF4
001FF0
001FF0
002FE0
002FE0
002FE0
003FD0
003FD0
007FC0
007FC0
007FC0
007F80
002E00
ENDCHAR
STARTCHAR ordmasculine
ENCODING 186
SWIDTH 408 0
DWIDTH 15 0
BBX 13 14 3 16
BITMAP
00BF9000
07FFF800
1FFFFD00
3FD2FF00
7F40FF40
BF00BF40
FF00BF40
FF00BF40
FF00BF00
BF40FE00
7F82FD00
3FFFF800
1FFFE000
02FE4000
ENDCHAR
STARTCHAR guillemotright
ENCODING 187
SWIDTH 615 0
DWIDTH 22 0
BBX 20 14 1 2
BITMAP
1B4002E000
3FE007FD00
3FF807FF40
1FFE02FFD0
07FFC0BFF8
00FFF01FFE
002FF807FF
001FF802FF
00BFF41BFF
06FFE07FFD
1FFF42FFE0
7FF80BFF40
7FD00BF900
2E4006E000
ENDCHAR
STARTCHAR onequarter
ENCODING 188
SWIDTH 955 0
DWIDTH 34 0
BBX 31 30 3 0
BITMAP
001AF40000000000
06FFF80000000000
2FFFF80000000000
7FFFF40002D00000
2A4FF4000BF00000
001FF0001FF40000
001FF0003FE00000
002FE0007FD00000
002FE000FF800000
002FE002FF000000
003FD007FD000000
003FD00BF8000000
007FC01FF4000000
007FC03FE01BC000
007FC0BFC03FC000
007F81FF40BF8000
002E02FE01FF0A40
000007FD02FE2FC0
00000FF807FC3FC0
00002FF00BF47F80
00007FD01FF0BF40
0000BF802FE0BF40
0001FF403FC0FF00
0002FE007FFFFFF4
0002FC007FFFFFF4
0001F4002FFFFFE0
000000000001FD00
000000000002FD00
000000000002FD00
000000000000F800
ENDCHAR
STARTCHAR onehalf
ENCODING 189
SWIDTH 1024 0
DWIDTH 37 0
BBX 33 30 3 0
BITMAP
001AF4000000000000
06FFF8000000000000
2FFFF8000000000000
7FFFF40002D0000000
2A4FF4000BF0000000
001FF0001FF4000000
001FF0003FE0000000
002FE0007FD0000000
002FE000FF80000000
002FE002FF00000000
003FD007FD00000000
003FD00BF800000000
007FC01FF400000000
007FC03FE006FF9000
007FC0BFC02FFFF800
007F81FF40BFFFFD00
002E02FE01FE47FE00
000007FD02FC01FF00
00000FF802F801FF00
00002FF001F802FE00
00007FD0005003FD00
0000BF8000000BFC00
0001FF4000002FF400
0002FE000000BFD000
0002FC000007FF4000
0001F400006FFD0000
0000000002FFD00000
000000000BFFFFFF00
000000000BFFFFFF40
0000000007FFFFFE00
ENDCHAR
STARTCHAR threequarters
ENCODING 190
SWIDTH 1035 0
DWIDTH 37 0
BBX 35 30 2 0
BITMAP
006BFA000000000000
02FFFFD00000000000
0BFFFFF00000000000
1FE42FF40002D00000
1FC00FF4000BF00000
1F401FF0001FF00000
00007FD0003FE00000
000AFF4000BFC00000
002FF80001FF400000
002FFF4002FF000000
0005BFD007FD000000
29002FE00FF8000000
7F001FF02FF0000000
7F807FE03FD01B8000
3FFFFFD0BFC07FC000
1FFFFF41FF40BF8000
02BFE403FE01FF0A40
0000000BFC02FD3F80
0000000FF407FC7F80
0000002FF00BF47F80
0000007FD01FF0BF40
000000FF802FD0FF00
000001FF003FC0FF00
000003FE007FFFFFF0
000003FC007FFFFFF4
000001F4002FFFFFE0
00000000000002FD00
00000000000002FD00
00000000000002FC00
00000000000001F800
ENDCHAR
STARTCHAR questiondown
ENCODING 191
SWIDTH 476 0
DWIDTH 17 0
BBX 17 31 -2 -14
BITMAP
000001BD00
000007FF40
00000BFF80
00000BFF80
00000BFF80
000007FF40
000002F900
0000000000
0000000000
000007D000
00000BE000
00000FD000
00002FD000
00007FC000
0001FF8000
0007FF0000
001FFD0000
007FF40000
01FFD00000
07FF400000
1FFD000000
2FF8005400
3FF000FD00
7FE001FE00
BFE001FF00
BFE002FE00
7FF407FD00
3FFFFFFC00
2FFFFFF400
0BFFFFD000
00AFF90000
ENDCHAR
STARTCHAR Agrave
ENCODING 192
SWIDTH 786 0
DWIDTH 28 0
BBX 31 42 2 0
BITMAP
0000014000000000
00000BF400000000
00001FFD00000000
00000FFF40000000
000007FFE0000000
000001BFF8000000
0000001BFE000000
00000001FF400000
000000001B400000
0000000000000000
0000000000000000
00000006BFFE9400
000001BFFFFFFF00
00001BFFFFFFFF40
0000BFFFFFFFFF00
0003FFF94005A800
000FFF9000000000
003FFD0000BE0000
00BFF40002FF4000
02FFD00003FF4000
03FF400003FF0000
0BFE000007FF0000
0FFD000007FE0000
2FF800000BFD0000
3FF400000FFD0000
3FF000001FFC0000
7FF000001FF80000
BFE000002FF80000
BFE000003FF40000
FFD000007FF40000
FFD00000BFF00000
FFD00000FFF00000
FFD00001FFF00000
FFD00002FFE00000
BFE00007FFE00038
7FF0000FFFF000FC
3FF8002FFFF002F8
2FFE01FF7FF81FF4
0FFFFFFE3FFFFFE0
07FFFFF81FFFFF80
01FFFFE007FFFD00
001BFA0001BFA000
ENDCHAR
STARTCHAR Aacute
ENCODING 193
SWIDTH 786 0
DWIDTH 28 0
BBX 31 42 2 0
BITMAP
0000000000000500
0000000000007F80
000000000002FFC0
00000000000BFFC0
00000000002FFF40
0000000000FFF800
0000000007FF8000
000000000BF90000
0000000007900000
0000000000000000
0000000000000000
00000006BFFE9400
000001BFFFFFFF00
00001BFFFFFFFF40
0000BFFFFFFFFF00
0003FFF94005A800
000FFF9000000000
003FFD0000BE0000
00BFF40002FF4000
02FFD00003FF4000
03FF400003FF0000
0BFE000007FF0000
0FFD000007FE0000
2FF800000BFD0000
3FF400000FFD0000
3FF000001FFC0000
7FF000001FF80000
BFE000002FF80000
BFE000003FF40000
FFD000007FF40000
FFD00000BFF00000
FFD00000FFF00000
FFD00001FFF00000
FFD00002FFE00000
BFE00007FFE00038
7FF0000FFFF000FC
3FF8002FFFF002F8
2FFE01FF7FF81FF4
0FFFFFFE3FFFFFE0
07FFFFF81FFFFF80
01FFFFE007FFFD00
001BFA0001BFA000
ENDCHAR
STARTCHAR Acircumflex
ENCODING 194
SWIDTH 786 0
DWIDTH 28 0
BBX 31 43 2 0
BITMAP
0000000006F40000
000000001FFD0000
000000003FFF0000
00000000BFFF4000
00000001FF7F8000
00000003FD3FC000
0000000BF82FD000
0000001FF41FE000
0000002FE00FE000
0000001F8007D000
0000000000000000
0000000000000000
00000006BFFE9400
000001BFFFFFFF00
00001BFFFFFFFF40
0000BFFFFFFFFF00
0003FFF94005A800
000FFF9000000000
003FFD0000BE0000
00BFF40002FF4000
02FFD00003FF4000
03FF400003FF0000
0BFE000007FF0000
0FFD000007FE0000
2FF800000BFD0000
3FF400000FFD0000
3FF000001FFC0000
7FF000001FF80000
BFE000002FF80000
BFE000003FF40000
FFD000007FF40000
FFD00000BFF00000
FFD00000FFF00000
FFD00001FFF00000
FFD00002FFE00000
BFE00007FFE00038
7FF0000FFFF000FC
3FF8002FFFF002F8
2FFE01FF7FF81FF4
0FFFFFFE3FFFFFE0
07FFFFF81FFFFF80
01FFFFE007FFFD00
001BFA0001BFA000
ENDCHAR
STARTCHAR Atilde
ENCODING 195
SWIDTH 786 0
DWIDTH 28 0
BBX 31 40 2 0
BITMAP
00000002F8001500
0000000FFF407F00
0000002FFFE0FF00
0000007FEFFEFD00
000000BF4BFFFC00
000000BE01BFF400
00000014001F9000
0000000000000000
0000000000000000
00000006BFFE9400
000001BFFFFFFF00
00001BFFFFFFFF40
0000BFFFFFFFFF00
0003FFF94005A800
000FFF9000000000
003FFD0000BE0000
00BFF40002FF4000
02FFD00003FF4000
03FF400003FF0000
0BFE000007FF0000
0FFD000007FE0000
2FF800000BFD0000
3FF400000FFD0000
3FF000001FFC0000
7FF000001FF80000
BFE000002FF80000
BFE000003FF40000
FFD000007FF40000
FFD00000BFF00000
FFD00000FFF00000
FFD00001FFF00000
FFD00002FFE00000
BFE00007FFE00038
7FF0000FFFF000FC
3FF8002FFFF002F8
2FFE01FF7FF81FF4
0FFFFFFE3FFFFFE0
07FFFFF81FFFFF80
01FFFFE007FFFD00
001BFA0001BFA000
ENDCHAR
STARTCHAR Adieresis
ENCODING 196
SWIDTH 786 0
DWIDTH 28 0
BBX 31 39 2 0
BITMAP
00000006E00BD000
0000000FF82FF400
0000001FFC3FF400
0000001FFC3FF400
0000001FF82FF000
00000007E00B9000
0000000000000000
0000000000000000
00000006BFFE9400
000001BFFFFFFF00
00001BFFFFFFFF40
0000BFFFFFFFFF00
0003FFF94005A800
000FFF9000000000
003FFD0000BE0000
00BFF40002FF4000
02FFD00003FF4000
03FF400003FF0000
0BFE000007FF0000
0FFD000007FE0000
2FF800000BFD0000
3FF400000FFD0000
3FF000001FFC0000
7FF000001FF80000
BFE000002FF80000
BFE000003FF40000
FFD000007FF40000
FFD00000BFF00000
FFD00000FFF00000
FFD00001FFF00000
FFD00002FFE00000
BFE00007FFE00038
7FF0000FFFF000FC
3FF8002FFFF002F8
2FFE01FF7FF81FF4
0FFFFFFE3FFFFFE0
07FFFFF81FFFFF80
01FFFFE007FFFD00
001BFA0001BFA000
ENDCHAR
STARTCHAR Aring
ENCODING 197
SWIDTH 786 0
DWIDTH 28 0
BBX 31 43 2 0
BITMAP
000000000BF80000
000000007FFE0000
00000000FFFF8000
00000001FD2FC000
00000002F81FC000
00000002F81FC000
00000001FD2F8000
00000000FFFF4000
000000007FFE0000
000000001BE40000
0000000000000000
0000000000000000
00000006BFFE9400
000001BFFFFFFF00
00001BFFFFFFFF40
0000BFFFFFFFFF00
0003FFF94005A800
000FFF9000000000
003FFD0000BE0000
00BFF40002FF4000
02FFD00003FF4000
03FF400003FF0000
0BFE000007FF0000
0FFD000007FE0000
2FF800000BFD0000
3FF400000FFD0000
3FF000001FFC0000
7FF000001FF80000
BFE000002FF80000
BFE000003FF40000
FFD000007FF40000
FFD00000BFF00000
FFD00000FFF00000
FFD00001FFF00000
FFD00002FFE00000
BFE00007FFE00038
7FF0000FFFF000FC
3FF8002FFFF002F8
2FFE01FF7FF81FF4
0FFFFFFE3FFFFFE0
07FFFFF81FFFFF80
01FFFFE007FFFD00
001BFA0001BFA000
ENDCHAR
STARTCHAR AE
ENCODING 198
SWIDTH 1015 0
DWIDTH 37 0
BBX 39 31 2 0
BITMAP
0000001AF802FFFFFF40
000002FFFD0BFFFFFF80
00002FFFFD2FFFFFFF80
0001FFFFFD3FFFFFFF80
0007FFFE507FFFFFFE00
001FFFE000BFE0000000
007FFE0000FFD0000000
00FFF40001FFC0000000
02FFD00001FF80000000
07FF800002FF40000000
0BFF000003FF00000000
1FFD000007FF00000000
2FFC000007FE00000000
3FF400000BFFFFFFE000
7FF000000FFFFFFFF400
7FF000001FFFFFFFF000
BFE000002FFFFFFFD000
BFE000003FF800000000
FFD000007FF400000000
FFD00000BFF400000000
FFD00000FFF400000000
FFD00001FFF400000000
FFD00002FFF800000000
BFE00007FFF800000000
7FF0000FFFFD00000068
3FF8002FDFFF400006FC
2FFE01BF87FFE401BFFC
0FFFFFFF02FFFFFFFFF4
07FFFFFD00BFFFFFFFD0
00BFFFF4001FFFFFFD00
001BFE400001AFFA5000
ENDCHAR
STARTCHAR Ccedilla
ENCODING 199
SWIDTH 686 0
DWIDTH 25 0
BBX 28 40 2 -9
BITMAP
000001BFE80000
00002FFFFF8000
0002FFFFFFE000
000BFFFFFFF400
002FFF406FF800
00BFF8000FFC00
01FFD0000BFC00
03FF80000BFD00
0BFE00000BFC00
0FFD00000BFC00
1FFC00000FF800
2FF400000BF000
3FF40000004000
7FF00000000000
7FE00000000000
BFE00000000000
BFE00000000000
BFE00000000000
BFE00000000000
BFE00000000000
BFF00000000000
7FF00000000000
3FF80000000000
2FFC0000000000
1FFF0000000014
0BFFD0000006FD
03FFF94005BFFC
01FFFFFFFFFFF8
002FFFFFFFFFE0
0007FFFFFFFE00
0001FFFFFA4000
0001FFFD000000
000016FE000000
000000FE000000
000000FE000000
000002FE000000
001FFFFD000000
002FFFF8000000
002FFFE0000000
000BFE40000000
ENDCHAR
STARTCHAR Egrave
ENCODING 200
SWIDTH 686 0
DWIDTH 25 0
BBX 29 42 1 0
BITMAP
0001500000000000
0007F80000000000
000BFE0000000000
000BFF8000000000
0003FFF400000000
0000BFFD00000000
00000BFF40000000
000000BFC0000000
0000000B80000000
0000000000000000
0000000000000000
000005BFFA000000
00006FFFFFE00000
0002FFFFFFFC0000
000FFFFFFFFE0000
003FFF400BFF4000
00BFF80002FF4000
00FFE00001FF8000
01FFD00000FF8000
01FFC00001FF8000
01FFC00001FF4000
01FFD00001FF0000
00BFF00000B80000
007FFE4000000000
001FFFFF00000000
0002FFFF40000000
001FFFFF00000000
01FFFFFD00000000
0BFFE40000000000
1FFE000000000000
3FF8000000000000
7FF0000000000000
BFE0000000000000
FFD0000000000000
FFE0000000000000
BFF0000000001A00
7FFD00000005BF40
2FFF940005BFFF00
0FFFFFFFFFFFFE00
02FFFFFFFFFFF800
006FFFFFFFFE4000
0001AFFFEA500000
ENDCHAR
STARTCHAR Eacute
ENCODING 201
SWIDTH 686 0
DWIDTH 25 0
BBX 29 42 1 0
BITMAP
0000000000050000
00000000002FC000
0000000001FFD000
0000000007FFD000
000000001FFF8000
00000000BFFD0000
00000002FFD00000
00000007FD000000
00000002D0000000
0000000000000000
0000000000000000
000005BFFA000000
00006FFFFFE00000
0002FFFFFFFC0000
000FFFFFFFFE0000
003FFF400BFF4000
00BFF80002FF4000
00FFE00001FF8000
01FFD00000FF8000
01FFC00001FF8000
01FFC00001FF4000
01FFD00001FF0000
00BFF00000B80000
007FFE4000000000
001FFFFF00000000
0002FFFF40000000
001FFFFF00000000
01FFFFFD00000000
0BFFE40000000000
1FFE000000000000
3FF8000000000000
7FF0000000000000
BFE0000000000000
FFD0000000000000
FFE0000000000000
BFF0000000001A00
7FFD00000005BF40
2FFF940005BFFF00
0FFFFFFFFFFFFE00
02FFFFFFFFFFF800
006FFFFFFFFE4000
0001AFFFEA500000
ENDCHAR
STARTCHAR Ecircumflex
ENCODING 202
SWIDTH 686 0
DWIDTH 25 0
BBX 29 43 1 0
BITMAP
00000002F8000000
0000000FFF000000
0000002FFF400000
0000007FFF800000
000000FF6FC00000
000002FE1FE00000
000007FD1FF00000
00000FF80FF40000
00000FF00BF40000
00000BD002E00000
0000000000000000
0000000000000000
000005BFFA000000
00006FFFFFE00000
0002FFFFFFFC0000
000FFFFFFFFE0000
003FFF400BFF4000
00BFF80002FF4000
00FFE00001FF8000
01FFD00000FF8000
01FFC00001FF8000
01FFC00001FF4000
01FFD00001FF0000
00BFF00000B80000
007FFE4000000000
001FFFFF00000000
0002FFFF40000000
001FFFFF00000000
01FFFFFD00000000
0BFFE40000000000
1FFE000000000000
3FF8000000000000
7FF0000000000000
BFE0000000000000
FFD0000000000000
FFE0000000000000
BFF0000000001A00
7FFD00000005BF40
2FFF940005BFFF00
0FFFFFFFFFFFFE00
02FFFFFFFFFFF800
006FFFFFFFFE4000
0001AFFFEA500000
ENDCHAR
STARTCHAR Edieresis
ENCODING 203
SWIDTH 686 0
DWIDTH 25 0
BBX 29 39 1 0
BITMAP
000002F406E00000
00000BFD0FF80000
00000FFD1FFC0000
00000FFD1FF80000
00000BFC1FF40000
000002E40BE00000
0000000000000000
0000000000000000
000005BFFA000000
00006FFFFFE00000
0002FFFFFFFC0000
000FFFFFFFFE0000
003FFF400BFF4000
00BFF80002FF4000
00FFE00001FF8000
01FFD00000FF8000
01FFC00001FF8000
01FFC00001FF4000
01FFD00001FF0000
00BFF00000B80000
007FFE4000000000
001FFFFF00000000
0002FFFF40000000
001FFFFF00000000
01FFFFFD00000000
0BFFE40000000000
1FFE000000000000
3FF8000000000000
7FF0000000000000
BFE0000000000000
FFD0000000000000
FFE0000000000000
BFF0000000001A00
7FFD00000005BF40
2FFF940005BFFF00
0FFFFFFFFFFFFE00
02FFFFFFFFFFF800
006FFFFFFFFE4000
0001AFFFEA500000
ENDCHAR
STARTCHAR Igrave
ENCODING 204
SWIDTH 495 0
DWIDTH 18 0
BBX 21 42 -1 0
BITMAP
001400000000
00FE00000000
01FFD0000000
01FFF4000000
00BFFD000000
001FFF800000
0001FFE00000
00001FF40000
000001F00000
000000000000
000000000000
001BFFFFFF40
003FFFFFFFC0
007FFFFFFF80
002FFFFFFE00
00000FFC0000
00001FF80000
00001FF80000
00002FF40000
00002FF40000
00003FF40000
00003FF00000
00003FF00000
00007FE00000
00007FE00000
0000BFD00000
0000BFD00000
0000FFC00000
0000FFC00000
0001FF800000
0001FF800000
0002FF800000
0002FF400000
0003FF400000
0003FF000000
0007FF000000
0007FE000000
0007FE000000
1AFFFFFE4000
7FFFFFFFC000
BFFFFFFF8000
7FFFFFFE0000
ENDCHAR
STARTCHAR Iacute
ENCODING 205
SWIDTH 495 0
DWIDTH 18 0
BBX 23 42 -1 0
BITMAP
000000000150
0000000007F4
000000002FF8
00000000BFF8
00000003FFF0
0000001FFF80
0000007FF800
000000FF8000
000000B80000
000000000000
000000000000
001BFFFFFF40
003FFFFFFFC0
007FFFFFFF80
002FFFFFFE00
00000FFC0000
00001FF80000
00001FF80000
00002FF40000
00002FF40000
00003FF40000
00003FF00000
00003FF00000
00007FE00000
00007FE00000
0000BFD00000
0000BFD00000
0000FFC00000
0000FFC00000
0001FF800000
0001FF800000
0002FF800000
0002FF400000
0003FF400000
0003FF000000
0007FF000000
0007FE000000
0007FE000000
1AFFFFFE4000
7FFFFFFFC000
BFFFFFFF8000
7FFFFFFE0000
ENDCHAR
STARTCHAR Icircumflex
ENCODING 206
SWIDTH 495 0
DWIDTH 18 0
BBX 21 43 -1 0
BITMAP
0000006F4000
000002FFD000
000007FFE000
00000FFFF000
00002FE7F800
00007FD3FC00
0000FF82FD00
0001FF02FE00
0002FD01FE00
0001F800B800
000000000000
000000000000
001BFFFFFF40
003FFFFFFFC0
007FFFFFFF80
002FFFFFFE00
00000FFC0000
00001FF80000
00001FF80000
00002FF40000
00002FF40000
00003FF40000
00003FF00000
00003FF00000
00007FE00000
00007FE00000
0000BFD00000
0000BFD00000
0000FFC00000
0000FFC00000
0001FF800000
0001FF800000
0002FF800000
0002FF400000
0003FF400000
0003FF000000
0007FF000000
0007FE000000
0007FE000000
1AFFFFFE4000
7FFFFFFFC000
BFFFFFFF8000
7FFFFFFE0000
ENDCHAR
STARTCHAR Idieresis
ENCODING 207
SWIDTH 495 0
DWIDTH 18 0
BBX 21 39 -1 0
BITMAP
00007E00BD00
0001FF82FF00
0002FF83FF40
0002FF83FF40
0001FF43FF00
0000BD01B800
000000000000
000000000000
001BFFFFFF40
003FFFFFFFC0
007FFFFFFF80
002FFFFFFE00
00000FFC0000
00001FF80000
00001FF80000
00002FF40000
00002FF40000
00003FF40000
00003FF00000
00003FF00000
00007FE00000
00007FE00000
0000BFD00000
0000BFD00000
0000FFC00000
0000FFC00000
0001FF800000
0001FF800000
0002FF800000
0002FF400000
0003FF400000
0003FF000000
0007FF000000
0007FE000000
0007FE000000
1AFFFFFE4000
7FFFFFFFC000
BFFFFFFF8000
7FFFFFFE0000
ENDCHAR
STARTCHAR Eth
ENCODING 208
SWIDTH 821 0
DWIDTH 30 0
BBX 29 31 0 0
BITMAP
00000AFFFA400000
00003FFFFFF40000
00007FFFFFFE0000
0000BFFFFFFFD000
0000FFC01BFFF400
0001FF8000BFF800
0002FF40002FFD00
0002FF40000BFF00
0003FF000007FF40
0007FE000003FF80
000BFD000002FF80
000BFD000002FF80
000FFC000001FFC0
1BFFFFFF9001FFC0
7FFFFFFFF001FF80
7FFFFFFFF002FF80
3FFFFFFFD002FF80
007FE0000003FF40
007FE0000003FF40
00BFD0000007FF00
00BFD000000FFE00
00FFC000001FFC00
00FFC000003FF800
01FFC00000BFF000
01FF800002FFD000
02FF80001FFF4000
02FF4006FFFD0000
02FFFFFFFFF40000
02FFFFFFFF800000
02FFFFFFF8000000
006BFFE940000000
ENDCHAR
STARTCHAR Ntilde
ENCODING 209
SWIDTH 884 0
DWIDTH 32 0
BBX 37 40 0 0
BITMAP
00000001B90005000000
00000007FF802F400000
0000001FFFF4BF400000
0000002FEFFEFF000000
0000007F86FFFD000000
0000007F007FF8000000
00000014001BD0000000
00000000000000000000
00000000000000000000
0006FD00006FE8000000
007FFF8006FFFF400000
02FFFFC01FFFFFC00000
0BFFFFD07FFFFFD00000
2FE4BFD0FF41FFE00000
7F807FD2F800BFE00000
FE007FD7E0007FE00000
F8007FDBC0007FE00000
6000BFDF4000BFE00000
0000BFEE0000BFD00000
0000BFFD0000FFD00000
0000FFF80000FFC00000
0000FFF40001FFC00000
0000FFF00002FF800000
0001FFE00002FF400000
0001FFD00003FF400000
0002FFC00007FF000000
0002FFC00007FF000000
0003FF80000BFE000000
0003FF40000BFD000000
0007FF00000FFD000000
0007FF00000FFC000000
000BFE00001FFC000000
000BFE00001FFC000740
000BFD00001FFC001F40
000FFD00001FFC007F40
000FFC00000FFE02FF00
000FFC00000BFFFFFC00
000FFC000003FFFFF400
000FF8000001FFFF8000
0007E00000002BF90000
ENDCHAR
STARTCHAR Ograve
ENCODING 210
SWIDTH 816 0
DWIDTH 29 0
BBX 27 42 2 0
BITMAP
00014000000000
000BF400000000
000FFD00000000
000FFF40000000
0007FFE0000000
0001BFF8000000
00001BFF000000
000001BF400000
0000001B400000
00000000000000
00000000000000
000001BFE90000
00002FFFFFD000
0002FFFFFFF800
000BFFFFFFFE00
002FFE402FFF40
00BFF40003FFC0
01FFD00001FFE0
03FF400000BFF0
0BFE0000007FF4
0FFD0000003FF4
1FFC0000002FF8
2FF80000002FF8
3FF40000002FF8
7FF00000002FF8
7FF00000002FF8
BFE00000002FF8
BFE00000002FF4
BFE00000003FF4
BFE00000007FF0
BFE00000007FE0
BFE0000000BFD0
7FF0000001FFC0
7FF4000002FF80
3FF8000007FF00
2FFD00001FFD00
0FFF40007FF800
07FFE006FFE000
02FFFFFFFF8000
00BFFFFFFE0000
001FFFFFE40000
0001AFF9000000
ENDCHAR
STARTCHAR Oacute
ENCODING 211
SWIDTH 816 0
DWIDTH 29 0
BBX 27 42 2 0
BITMAP
00000000000500
00000000007F80
0000000001FFC0
000000000BFFC0
000000002FFF40
00000000FFF800
00000003FF9000
0000000BF90000
00000007900000
00000000000000
00000000000000
000001BFE90000
00002FFFFFD000
0002FFFFFFF800
000BFFFFFFFE00
002FFE402FFF40
00BFF40003FFC0
01FFD00001FFE0
03FF400000BFF0
0BFE0000007FF4
0FFD0000003FF4
1FFC0000002FF8
2FF80000002FF8
3FF40000002FF8
7FF00000002FF8
7FF00000002FF8
BFE00000002FF8
BFE00000002FF4
BFE00000003FF4
BFE00000007FF0
BFE00000007FE0
BFE0000000BFD0
7FF0000001FFC0
7FF4000002FF80
3FF8000007FF00
2FFD00001FFD00
0FFF40007FF800
07FFE006FFE000
02FFFFFFFF8000
00BFFFFFFE0000
001FFFFFE40000
0001AFF9000000
ENDCHAR
STARTCHAR Ocircumflex
ENCODING 212
SWIDTH 816 0
DWIDTH 29 0
BBX 27 43 2 0
BITMAP
00000006F80000
0000001FFD0000
0000003FFF0000
000000BFFF4000
000001FF7F8000
000003FD3FC000
00000BF82FD000
00001FF41FE000
00002FE00FE000
00000B8007D000
00000000000000
00000000000000
000001BFE90000
00002FFFFFD000
0002FFFFFFF800
000BFFFFFFFE00
002FFE402FFF40
00BFF40003FFC0
01FFD00001FFE0
03FF400000BFF0
0BFE0000007FF4
0FFD0000003FF4
1FFC0000002FF8
2FF80000002FF8
3FF40000002FF8
7FF00000002FF8
7FF00000002FF8
BFE00000002FF8
BFE00000002FF4
BFE00000003FF4
BFE00000007FF0
BFE00000007FE0
BFE0000000BFD0
7FF0000001FFC0
7FF4000002FF80
3FF8000007FF00
2FFD00001FFD00
0FFF40007FF800
07FFE006FFE000
02FFFFFFFF8000
00BFFFFFFE0000
001FFFFFE40000
0001AFF9000000
ENDCHAR
STARTCHAR Otilde
ENCODING 213
SWIDTH 816 0
DWIDTH 29 0
BBX 27 40 2 0
BITMAP
000002F8001500
00000BFF407F00
00002FFFE0FF00
00007FEFFEFD00
0000BF47FFFC00
0000BE01BFF400
000014001F9000
00000000000000
00000000000000
000001BFE90000
00002FFFFFD000
0002FFFFFFF800
000BFFFFFFFE00
002FFE402FFF40
00BFF40003FFC0
01FFD00001FFE0
03FF400000BFF0
0BFE0000007FF4
0FFD0000003FF4
1FFC0000002FF8
2FF80000002FF8
3FF40000002FF8
7FF00000002FF8
7FF00000002FF8
BFE00000002FF8
BFE00000002FF4
BFE00000003FF4
BFE00000007FF0
BFE00000007FE0
BFE0000000BFD0
7FF0000001FFC0
7FF4000002FF80
3FF8000007FF00
2FFD00001FFD00
0FFF40007FF800
07FFE006FFE000
02FFFFFFFF8000
00BFFFFFFE0000
001FFFFFE40000
0001AFF9000000
ENDCHAR
STARTCHAR Odieresis
ENCODING 214
SWIDTH 816 0
DWIDTH 29 0
BBX 27 39 2 0
BITMAP
000006E00BD000
00000FF82FF400
00001FFC3FF400
00001FFC3FF400
00001FF82FF000
000007E00B9000
00000000000000
00000000000000
000001BFE90000
00002FFFFFD000
0002FFFFFFF800
000BFFFFFFFE00
002FFE402FFF40
00BFF40003FFC0
01FFD00001FFE0
03FF400000BFF0
0BFE0000007FF4
0FFD0000003FF4
1FFC0000002FF8
2FF80000002FF8
3FF40000002FF8
7FF00000002FF8
7FF00000002FF8
BFE00000002FF8
BFE00000002FF4
BFE00000003FF4
BFE00000007FF0
BFE00000007FE0
BFE0000000BFD0
7FF0000001FFC0
7FF4000002FF80
3FF8000007FF00
2FFD00001FFD00
0FFF40007FF800
07FFE006FFE000
02FFFFFFFF8000
00BFFFFFFE0000
001FFFFFE40000
0001AFF9000000
ENDCHAR
STARTCHAR multiply
ENCODING 215
SWIDTH 700 0
DWIDTH 25 0
BBX 18 17 4 2
BITMAP
0140000140
0FD0000FD0
1FF4007FE0
1FFD01FFD0
0BFF07FF40
03FFDFFD00
00FFFFF400
007FFFD000
001FFF0000
002FFF4000
00FFFFD000
03FFFFF000
1FFE2FFC00
7FF40FFE00
FFD007FF40
FF4001FF00
7900007D00
ENDCHAR
STARTCHAR Oslash
ENCODING 216
SWIDTH 816 0
DWIDTH 29 0
BBX 27 38 2 -4
BITMAP
000000007E0000
00000000FF0000
00000001FE0000
000001BFFE0000
00002FFFFFD000
0002FFFFFFF800
000BFFFFFFFE00
002FFE4BFFFF40
00BFF40FF7FFC0
01FFD00FE1FFE0
03FF401FE0BFF0
0BFE002FD07FF4
0FFD003FC03FF4
1FFC003F802FF8
2FF8007F402FF8
3FF400BF402FF8
7FF000FF002FF8
7FF000FE002FF8
BFE001FD002FF8
BFE002FC002FF4
BFE003FC003FF4
BFE003F8007FF0
BFE007F4007FE0
BFE00BF000BFD0
7FF00FF001FFC0
7FF41FE002FF80
3FF81FD007FF00
2FFD2FC01FFD00
0FFF3FC07FF800
07FFFF86FFE000
02FFFFFFFF8000
00BFFFFFFE0000
001FFFFFE40000
0002FFF9000000
0002FD00000000
0003FC00000000
0003F800000000
0001F400000000
ENDCHAR
STARTCHAR Ugrave
ENCODING 217
SWIDTH 890 0
DWIDTH 32 0
BBX 37 42 0 0
BITMAP
00000140000000000000
00000FE0000000000000
00001FFD000000000000
00001FFF400000000000
00000BFFD00000000000
000001BFF80000000000
0000001FFE0000000000
00000001FF4000000000
000000001F0000000000
00000000000000000000
00000000000000000000
0006FE0000001B800000
007FFFC000002FE00000
02FFFFE000003FF00000
0BFFFFF000003FF00000
2FF47FF400007FF00000
7F803FF400007FF00000
FE003FF40000BFE00000
F8003FF00000BFE00000
60003FF00000FFD00000
00007FF00000FFD00000
0000BFE00001FFC00000
0000BFD00002FFC00000
0000FFD00003FF800000
0001FFC00003FF800000
0001FF800007FF400000
0002FF80000BFF400000
0002FF40000FFF000000
0003FF00002FFF000000
0007FF00003FFF000000
0007FE00007FFE000000
000BFD0000FBFE000000
000BFD0001FBFD000000
000FFC0007EBFD000240
000FFC000FDBFD000B80
000FFD003F8BFD001F80
000FFE42FF4BFE007F40
000FFFFFFE0BFF42FF00
000BFFFFF807FFFFFC00
0007FFFFE002FFFFF400
0001FFFF8000FFFF8000
00006FE900001BF90000
ENDCHAR
STARTCHAR Uacute
ENCODING 218
SWIDTH 890 0
DWIDTH 32 0
BBX 37 42 0 0
BITMAP
00000000000015000000
0000000000007F400000
000000000002FF800000
00000000000BFF800000
00000000003FFF000000
0000000001FFF8000000
0000000007FF80000000
000000000BF800000000
000000000B9000000000
00000000000000000000
00000000000000000000
0006FE0000001B800000
007FFFC000002FE00000
02FFFFE000003FF00000
0BFFFFF000003FF00000
2FF47FF400007FF00000
7F803FF400007FF00000
FE003FF40000BFE00000
F8003FF00000BFE00000
60003FF00000FFD00000
00007FF00000FFD00000
0000BFE00001FFC00000
0000BFD00002FFC00000
0000FFD00003FF800000
0001FFC00003FF800000
0001FF800007FF400000
0002FF80000BFF400000
0002FF40000FFF000000
0003FF00002FFF000000
0007FF00003FFF000000
0007FE00007FFE000000
000BFD0000FBFE000000
000BFD0001FBFD000000
000FFC0007EBFD000240
000FFC000FDBFD000B80
000FFD003F8BFD001F80
000FFE42FF4BFE007F40
000FFFFFFE0BFF42FF00
000BFFFFF807FFFFFC00
0007FFFFE002FFFFF400
0001FFFF8000FFFF8000
00006FE900001BF90000
ENDCHAR
STARTCHAR Ucircumflex
ENCODING 219
SWIDTH 890 0
DWIDTH 32 0
BBX 37 43 0 0
BITMAP
0000000006F400000000
000000002FFD00000000
000000007FFE00000000
00000000FFFF00000000
00000002FE7F80000000
00000007FD3FC0000000
0000000FF82FD0000000
0000001FF02FE0000000
0000002FD01FE0000000
0000001F800B80000000
00000000000000000000
00000000000000000000
0006FE0000001B800000
007FFFC000002FE00000
02FFFFE000003FF00000
0BFFFFF000003FF00000
2FF47FF400007FF00000
7F803FF400007FF00000
FE003FF40000BFE00000
F8003FF00000BFE00000
60003FF00000FFD00000
00007FF00000FFD00000
0000BFE00001FFC00000
0000BFD00002FFC00000
0000FFD00003FF800000
0001FFC00003FF800000
0001FF800007FF400000
0002FF80000BFF400000
0002FF40000FFF000000
0003FF00002FFF000000
0007FF00003FFF000000
0007FE00007FFE000000
000BFD0000FBFE000000
000BFD0001FBFD000000
000FFC0007EBFD000240
000FFC000FDBFD000B80
000FFD003F8BFD001F80
000FFE42FF4BFE007F40
000FFFFFFE0BFF42FF00
000BFFFFF807FFFFFC00
0007FFFFE002FFFFF400
0001FFFF8000FFFF8000
00006FE900001BF90000
ENDCHAR
STARTCHAR Udieresis
ENCODING 220
SWIDTH 890 0
DWIDTH 32 0
BBX 37 39 0 0
BITMAP
00000007E00BD0000000
0000001FF82FF0000000
0000002FF83FF4000000
0000002FF83FF4000000
0000001FF43FF0000000
0000000BE01B90000000
00000000000000000000
00000000000000000000
0006FE0000001B800000
007FFFC000002FE00000
02FFFFE000003FF00000
0BFFFFF000003FF00000
2FF47FF400007FF00000
7F803FF400007FF00000
FE003FF40000BFE00000
F8003FF00000BFE00000
60003FF00000FFD00000
00007FF00000FFD00000
0000BFE00001FFC00000
0000BFD00002FFC00000
0000FFD00003FF800000
0001FFC00003FF800000
0001FF800007FF400000
0002FF80000BFF400000
0002FF40000FFF000000
0003FF00002FFF000000
0007FF00003FFF000000
0007FE00007FFE000000
000BFD0000FBFE000000
000BFD0001FBFD000000
000FFC0007EBFD000240
000FFC000FDBFD000B80
000FFD003F8BFD001F80
000FFE42FF4BFE007F40
000FFFFFFE0BFF42FF00
000BFFFFF807FFFFFC00
0007FFFFE002FFFFF400
0001FFFF8000FFFF8000
00006FE900001BF90000
ENDCHAR
STARTCHAR Yacute
ENCODING 221
SWIDTH 851 0
DWIDTH 31 0
BBX 35 53 0 -11
BITMAP
000000000000050000
0000000000003FC000
000000000001FFD000
000000000007FFD000
00000000002FFF8000
0000000000BFF90000
0000000002FFD00000
0000000007FD000000
0000000003D0000000
000000000000000000
000000000000000000
0006FE0000000BD000
007FFFD000002FF000
02FFFFE000003FF000
0BFFFFF000003FF000
2FE47FF400007FF000
7F803FF400007FE000
FE003FF40000BFE000
F8003FF00000BFD000
60007FF00000FFD000
00007FE00001FFD000
0000BFE00001FFC000
0000BFD00002FFC000
0000FFD00003FF8000
0001FFC00007FF8000
0001FF80000FFF4000
0002FF80001FFF4000
0003FF40002FFF0000
0003FF00007FFF0000
0003FF0000FEFF0000
0003FF0002F7FE0000
0003FF400BF3FE0000
0002FFD07FD7FD0000
0001FFFFFF47FD16F4
0000FFFFFD0BFFFFF8
00003FFFE40BFFFFF4
000006FA40BFFFFFE0
000000001BFFFFA400
00000001BFFFF80000
0000000BFFEFF40000
0000007FF91FF40000
000001FF902FF00000
000007FE002FE00000
00000FF4003FD00000
00002FE0007FD00000
00003FD000BF800000
00007FC001FF400000
00007FD003FF000000
00007FE01FFD000000
00003FFFFFF4000000
00002FFFFFD0000000
00000BFFFF40000000
000001BFE400000000
ENDCHAR
STARTCHAR Thorn
ENCODING 222
SWIDTH 776 0
DWIDTH 28 0
BBX 27 38 1 -4
BITMAP
0000002F800000
0000007FD00000
000000BFD00000
000000FFD00000
000000FFC00000
000000FFC00000
000001FF800000
000001FFFA4000
00000BFFFFF800
0000BFFFFFFF40
0007FFFFFFFFD0
001FFFFF06FFF0
007FF7FF00BFF8
00FF87FE003FFC
02FE07FE002FFC
03FC0BFD001FFC
0BF80BFD001FFC
0FF00FFC001FFC
1FE00FFC002FF8
2FD01FFC007FF4
3FC01FF800BFF0
3FC02FF806FFD0
7F816FF56FFF40
7F87FFFFFFFD00
7F87FFFFFFF400
7F87FFFFFE4000
7F81BFFA900000
7F80BFE0000000
7F80BFD0000000
7F80FFC0000000
3FC0FFC0000000
2FC1FF80000000
2FD1FF80000000
0FE3FF40000000
0BFFFF00000000
03FFFE00000000
00FFFC00000000
001BE000000000
ENDCHAR
STARTCHAR germandbls
ENCODING 223
SWIDTH 596 0
DWIDTH 21 0
BBX 25 37 1 -8
BITMAP
00001BFE400000
0001FFFFE00000
000BFFFFF40000
002FFFFFFC0000
007FF40BFD0000
00FFC003FE0000
02FF4002FE0000
03FE0003FD0000
07FC0007FC0000
0BF8001FF80000
0FF400BFE00000
0FF407FF800000
1FF01FFE000000
2FF03FF4000000
2FE07FE0000000
2FE07FD0000000
3FE07FF0000000
3FD03FFD000000
3FD02FFF950000
3FD00FFFFFF900
3FD07FFFFFFF80
7FD1FFEFFFFFC0
7FD3FD0BFE1B80
7FDBF803FE0000
7FDBF802FE0000
7FD7FD07FD0000
7FD3FFFFF80000
7FD1FFFFE00000
7FD02BFE400000
7FD00000000000
7FD00000000000
7FD00000000000
7FD00000000000
7FD00000000000
7FD00000000000
7FC00000000000
15000000000000
ENDCHAR
STARTCHAR agrave
ENCODING 224
SWIDTH 470 0
DWIDTH 17 0
BBX 21 30 1 0
BITMAP
007D00000000
01FF00000000
01FF40000000
00FFC0000000
007FD0000000
002FE0000000
000FF4000000
0007F8000000
0001FC000000
0000BD000000
00002C000000
000000000000
000000000000
0006F8000000
002FFE500000
00FFFFF80000
03FFFFF80000
0BFF4BF40000
1FFC0FF40000
2FF41FF00000
3FE01FF00000
7FD02FE00000
BFC03FE00740
BF807FD01F80
BF80BFD07F40
BFD1FFE1FF00
7FFFFFFFFD00
3FFFDBFFF400
1FFF87FFD000
06F901BE0000
ENDCHAR
STARTCHAR aacute
ENCODING 225
SWIDTH 470 0
DWIDTH 17 0
BBX 21 30 1 0
BITMAP
0000002E0000
000000BF8000
000000FF8000
000001FF4000
000003FE0000
000007FC0000
00000BF40000
00001FE00000
00002F800000
00003F000000
00002D000000
000000000000
000000000000
0006F8000000
002FFE500000
00FFFFF80000
03FFFFF80000
0BFF4BF40000
1FFC0FF40000
2FF41FF00000
3FE01FF00000
7FD02FE00000
BFC03FE00740
BF807FD01F80
BF80BFD07F40
BFD1FFE1FF00
7FFFFFFFFD00
3FFFDBFFF400
1FFF87FFD000
06F901BE0000
ENDCHAR
STARTCHAR acircumflex
ENCODING 226
SWIDTH 470 0
DWIDTH 17 0
BBX 21 31 1 0
BITMAP
00000BD00000
00003FF00000
0000BFF40000
0001FFF80000
0003FEFC0000
0007F5FC0000
000FF1FD0000
002FD1FE0000
003FC0FF0000
00BF40FF0000
00FF00BF0000
00B9007D0000
000000000000
000000000000
0006F8000000
002FFE500000
00FFFFF80000
03FFFFF80000
0BFF4BF40000
1FFC0FF40000
2FF41FF00000
3FE01FF00000
7FD02FE00000
BFC03FE00740
BF807FD01F80
BF80BFD07F40
BFD1FFE1FF00
7FFFFFFFFD00
3FFFDBFFF400
1FFF87FFD000
06F901BE0000
ENDCHAR
STARTCHAR atilde
ENCODING 227
SWIDTH 470 0
DWIDTH 17 0
BBX 21 26 1 0
BITMAP
001B90005000
007FF802F400
00FFFF4BF400
02FEFFEFE000
03F82FFFD000
03F007FF4000
014000BD0000
000000000000
000000000000
0006F8000000
002FFE500000
00FFFFF80000
03FFFFF80000
0BFF4BF40000
1FFC0FF40000
2FF41FF00000
3FE01FF00000
7FD02FE00000
BFC03FE00740
BF807FD01F80
BF80BFD07F40
BFD1FFE1FF00
7FFFFFFFFD00
3FFFDBFFF400
1FFF87FFD000
06F901BE0000
ENDCHAR
STARTCHAR adieresis
ENCODING 228
SWIDTH 470 0
DWIDTH 17 0
BBX 21 25 1 0
BITMAP
002F406E0000
007FD0FF8000
00BFD1FFC000
00FFD1FF8000
00BFC1FF4000
002E407E0000
000000000000
000000000000
0006F8000000
002FFE500000
00FFFFF80000
03FFFFF80000
0BFF4BF40000
1FFC0FF40000
2FF41FF00000
3FE01FF00000
7FD02FE00000
BFC03FE00740
BF807FD01F80
BF80BFD07F40
BFD1FFE1FF00
7FFFFFFFFD00
3FFFDBFFF400
1FFF87FFD000
06F901BE0000
ENDCHAR
STARTCHAR aring
ENCODING 229
SWIDTH 470 0
DWIDTH 17 0
BBX 21 29 1 0
BITMAP
00006F900000
0002FFF40000
0007FFFC0000
000BE1FD0000
000FD0BE0000
000FC0BE0000
000FE1FD0000
000BFFFC0000
0003FFF40000
0000BF800000
000000000000
000000000000
0006F8000000
002FFE500000
00FFFFF80000
03FFFFF80000
0BFF4BF40000
1FFC0FF40000
2FF41FF00000
3FE01FF00000
7FD02FE00000
BFC03FE00740
BF807FD01F80
BF80BFD07F40
BFD1FFE1FF00
7FFFFFFFFD00
3FFFDBFFF400
1FFF87FFD000
06F901BE0000
ENDCHAR
STARTCHAR ae
ENCODING 230
SWIDTH 653 0
DWIDTH 24 0
BBX 27 17 1 0
BITMAP
0001BF46FE4000
002FFFAFFFD000
01FFFFFFFFF000
03FFFFFFFFF400
0BFF43FE0BF400
1FF80BF80BF400
3FE00FF40FF000
7FD01FF02FD000
7FC02FF6FF8000
BF802FFFFE007C
BF803FFFE001FC
BFC07FF9000BFC
BFD1FFFD007FF8
7FFFFBFFFFFFE0
2FFFF2FFFFFF40
0FFFD07FFFF900
02FE0006FE9000
ENDCHAR
STARTCHAR ccedilla
ENCODING 231
SWIDTH 368 0
DWIDTH 13 0
BBX 17 27 1 -10
BITMAP
001BE40000
01FFFD0000
07FFFF0000
0FFFFF4000
2FF87F4000
3FE07F4000
7FD0BF0000
BFC07D0000
BF80140000
BF80000140
BF80000B80
BFC0002F80
BFD000BF80
7FF40BFF00
2FFFFFFD00
0FFFFFE000
02FFFF4000
02FFF40000
02FFFC0000
0006FD0000
0000FD0000
0001FD0000
0007FD0000
1FFFF80000
3FFFF40000
2FFFD00000
1BF9000000
ENDCHAR
STARTCHAR egrave
ENCODING 232
SWIDTH 393 0
DWIDTH 14 0
BBX 18 30 1 0
BITMAP
02E0000000
0BF4000000
0FFC000000
0BFD000000
03FE000000
01FF400000
007F800000
002FC00000
000FE00000
0007F00000
0001E00000
0000000000
0000000000
001BF80000
01FFFE0000
07FFFF8000
0FFFFF8000
2FF47FC000
3FD03FC000
7FC07F8000
BF81FF0000
BF9BFD0000
BFFFF401E0
BFFE400BE0
BFE0006FE0
7FF406FFD0
2FFFFFFF40
0FFFFFFD00
07FFFFE000
006FF90000
ENDCHAR
STARTCHAR eacute
ENCODING 233
SWIDTH 393 0
DWIDTH 14 0
BBX 18 30 1 0
BITMAP
000001F400
000003FC00
00000BFD00
00000FFC00
00001FF400
00003FE000
00007F8000
0000BF0000
0001FD0000
0002F40000
0001E00000
0000000000
0000000000
001BF80000
01FFFE0000
07FFFF8000
0FFFFF8000
2FF47FC000
3FD03FC000
7FC07F8000
BF81FF0000
BF9BFD0000
BFFFF401E0
BFFE400BE0
BFE0006FE0
7FF406FFD0
2FFFFFFF40
0FFFFFFD00
07FFFFE000
006FF90000
ENDCHAR
STARTCHAR ecircumflex
ENCODING 234
SWIDTH 393 0
DWIDTH 14 0
BBX 18 31 1 0
BITMAP
00007E0000
0002FF4000
0007FFC000
000BFFC000
001FDFD000
003FCFE000
00BF4FF000
00FF0BF000
02FD0BF400
07FC07F800
07F407F800
07E002E000
0000000000
0000000000
001BF80000
01FFFE0000
07FFFF8000
0FFFFF8000
2FF47FC000
3FD03FC000
7FC07F8000
BF81FF0000
BF9BFD0000
BFFFF401E0
BFFE400BE0
BFE0006FE0
7FF406FFD0
2FFFFFFF40
0FFFFFFD00
07FFFFE000
006FF90000
ENDCHAR
STARTCHAR edieresis
ENCODING 235
SWIDTH 393 0
DWIDTH 14 0
BBX 18 25 1 0
BITMAP
01B802F400
03FE07FC00
07FF0BFD00
07FE0FFD00
07FD0BFC00
01F802E400
0000000000
0000000000
001BF80000
01FFFE0000
07FFFF8000
0FFFFF8000
2FF47FC000
3FD03FC000
7FC07F8000
BF81FF0000
BF9BFD0000
BFFFF401E0
BFFE400BE0
BFE0006FE0
7FF406FFD0
2FFFFFFF40
0FFFFFFD00
07FFFFE000
006FF90000
ENDCHAR
STARTCHAR igrave
ENCODING 236
SWIDTH 246 0
DWIDTH 9 0
BBX 15 30 -1 0
BITMAP
1F400000
7FC00000
7FD00000
3FE00000
2FF40000
0BF80000
03FC0000
01FE0000
007F0000
002F4000
000B0000
00000000
00000000
002F4000
00BF8000
00FF4000
01FF4000
01FF0000
02FF0000
03FE0000
03FD0000
03FD0000
07FC00B4
07FC01F4
07FC07F4
07FD2FF0
03FFFFC0
02FFFF40
00FFF800
006F9000
ENDCHAR
STARTCHAR iacute
ENCODING 237
SWIDTH 246 0
DWIDTH 9 0
BBX 13 30 1 0
BITMAP
0000B800
0002FD00
0003FE00
000BFD00
000FF800
001FF000
003FD000
007F4000
00BE0000
00FC0000
00B00000
00000000
00000000
02F40000
0BF80000
0FF40000
1FF40000
1FF00000
2FF00000
3FE00000
3FD00000
3FD00000
7FC00B40
7FC01F40
7FC07F40
7FD2FF00
3FFFFC00
2FFFF400
0FFF8000
06F90000
ENDCHAR
STARTCHAR icircumflex
ENCODING 238
SWIDTH 246 0
DWIDTH 9 0
BBX 14 31 0 0
BITMAP
001BD000
003FF000
00BFF400
01FFF800
03FAF800
0BF6FC00
0FE1FD00
2FD1FE00
7FC0FE00
BF40FF00
FE00BF00
B8007D00
00000000
00000000
00BD0000
02FE0000
03FD0000
07FD0000
07FC0000
0BFC0000
0FF80000
0FF40000
0FF40000
1FF002D0
1FF007D0
1FF01FD0
1FF4BFC0
0FFFFF00
0BFFFD00
03FFE000
01BE4000
ENDCHAR
STARTCHAR idieresis
ENCODING 239
SWIDTH 246 0
DWIDTH 9 0
BBX 14 25 0 0
BITMAP
2F406E00
BFC0FF80
FFD1FF80
FFD1FF80
BFC1FF40
2E40BE00
00000000
00000000
00BD0000
02FE0000
03FD0000
07FD0000
07FC0000
0BFC0000
0FF80000
0FF40000
0FF40000
1FF002D0
1FF007D0
1FF01FD0
1FF4BFC0
0FFFFF00
0BFFFD00
03FFE000
01BE4000
ENDCHAR
STARTCHAR eth
ENCODING 240
SWIDTH 451 0
DWIDTH 16 0
BBX 18 34 1 0
BITMAP
006E000000
00BFC00000
007FE007D0
001FF82FE0
000BFDBFD0
0003FFFF80
0001FFFD00
0006FFE400
006FFFD000
01FFFFE000
01FFAFF000
00B80FF400
00000FF800
00000BF800
00000BFC00
000007FC00
000007FD00
002BEBFD00
01FFFFFD00
07FFFFFD00
0FFFFFFD00
2FF41FFD00
3FE007FC00
7FC007FC00
BF8007FC00
BF800BF800
BF800FF400
BFC01FF000
BFD02FE000
7FE0BFD000
3FFFFF8000
1FFFFF0000
07FFFD0000
00BF900000
ENDCHAR
STARTCHAR ntilde
ENCODING 241
SWIDTH 496 0
DWIDTH 18 0
BBX 22 26 1 0
BITMAP
000BD0005000
003FF802F800
00BFFF47F800
01FEFFEFF000
03FC2FFFD000
03F407FF8000
005000BE0000
000000000000
000000000000
02F402F80000
0BF41FFD0000
0FF47FFE0000
1FF1FFFE0000
2FE3FFFD0000
2FE7FBFD0000
3FDFD7FC0000
3FEF87F80000
3FFF0BF80000
3FFD0BF402D0
7FFC0FF40BD0
7FF80FF01FD0
3FF41FF4BFC0
3FF01FFFFF00
3FE00FFFFC00
2FD00BFFE000
0B8002FE4000
ENDCHAR
STARTCHAR ograve
ENCODING 242
SWIDTH 451 0
DWIDTH 16 0
BBX 20 30 1 0
BITMAP
06E0000000
0FF4000000
0FF8000000
0BFD000000
07FE000000
01FF000000
00BF800000
002FC00000
000FD00000
0007E00000
0001D00000
0000000000
0000000000
001BF80000
01FFFF4000
07FFFFD000
0FFFFFE000
2FF4FFF400
3FE0FFF415
7FC0BFFFFF
BF807FFFFF
BF801FFFFE
BF800BFFA4
BFC00FF000
BFD01FE000
7FE07FD000
2FFFFF8000
1FFFFF0000
07FFFD0000
00BF900000
ENDCHAR
STARTCHAR oacute
ENCODING 243
SWIDTH 451 0
DWIDTH 16 0
BBX 20 30 1 0
BITMAP
000001E400
000007FC00
00000BFC00
00000FF800
00002FF400
00003FD000
00007F8000
0000FE0000
0001FC0000
0002F40000
0001D00000
0000000000
0000000000
001BF80000
01FFFF4000
07FFFFD000
0FFFFFE000
2FF4FFF400
3FE0FFF415
7FC0BFFFFF
BF807FFFFF
BF801FFFFE
BF800BFFA4
BFC00FF000
BFD01FE000
7FE07FD000
2FFFFF8000
1FFFFF0000
07FFFD0000
00BF900000
ENDCHAR
STARTCHAR ocircumflex
ENCODING 244
SWIDTH 451 0
DWIDTH 16 0
BBX 20 31 1 0
BITMAP
0000BE0000
0002FF4000
0007FF8000
000FFFC000
002FDFD000
003F8FD000
00BF4FE000
01FE0FF000
02FD0BF400
07F80BF400
0BF407F400
07D002E000
0000000000
0000000000
001BF80000
01FFFF4000
07FFFFD000
0FFFFFE000
2FF4FFF400
3FE0FFF415
7FC0BFFFFF
BF807FFFFF
BF801FFFFE
BF800BFFA4
BFC00FF000
BFD01FE000
7FE07FD000
2FFFFF8000
1FFFFF0000
07FFFD0000
00BF900000
ENDCHAR
STARTCHAR otilde
ENCODING 245
SWIDTH 451 0
DWIDTH 16 0
BBX 20 26 1 0
BITMAP
00BD000500
02FF901F80
0BFFF47F80
1FEBFEFF40
2FC2FFFE00
2F407FF800
05000BE000
0000000000
0000000000
001BF80000
01FFFF4000
07FFFFD000
0FFFFFE000
2FF4FFF400
3FE0FFF415
7FC0BFFFFF
BF807FFFFF
BF801FFFFE
BF800BFFA4
BFC00FF000
BFD01FE000
7FE07FD000
2FFFFF8000
1FFFFF0000
07FFFD0000
00BF900000
ENDCHAR
STARTCHAR odieresis
ENCODING 246
SWIDTH 451 0
DWIDTH 16 0
BBX 20 25 1 0
BITMAP
01F802F400
03FE0BFC00
07FE0FFD00
07FE0FFC00
07FD0BF800
02F406E000
0000000000
0000000000
001BF80000
01FFFF4000
07FFFFD000
0FFFFFE000
2FF4FFF400
3FE0FFF415
7FC0BFFFFF
BF807FFFFF
BF801FFFFE
BF800BFFA4
BFC00FF000
BFD01FE000
7FE07FD000
2FFFFF8000
1FFFFF0000
07FFFD0000
00BF900000
ENDCHAR
STARTCHAR divide
ENCODING 247
SWIDTH 700 0
DWIDTH 25 0
BBX 20 21 3 0
BITMAP
00002F4000
0000FFC000
0001FFD000
0001FFD000
0000FFC000
00007E4000
0000000000
0000000000
0000000000
7FFFFFFFFD
FFFFFFFFFE
FFFFFFFFFE
7FFFFFFFF8
0000000000
0000000000
0002F80000
000BFD0000
000FFD0000
000FFD0000
000BFC0000
0002E40000
ENDCHAR
STARTCHAR oslash
ENCODING 248
SWIDTH 459 0
DWIDTH 17 0
BBX 21 27 1 -5
BITMAP
000014000000
0000BC000000
0000BC000000
0000F8000000
0000F4000000
002FF8000000
01FFFF400000
07FFFFD00000
0FFFFFF00000
2FF7EFF40000
3FD3DBF80000
7FC7D7FEBF40
BF87C7FFFF40
BF8BC7FFFF40
BF8B87FFF900
BF8F8BF94000
BFDF4FF40000
7FEF6FF00000
3FFFFFD00000
1FFFFF800000
07FFFE000000
01BFE4000000
007D00000000
007C00000000
00BC00000000
00B800000000
005000000000
ENDCHAR
STARTCHAR ugrave
ENCODING 249
SWIDTH 462 0
DWIDTH 17 0
BBX 21 30 1 0
BITMAP
00B800000000
02FD00000000
03FF00000000
02FF40000000
00FF80000000
007FD0000000
001FE0000000
000BF0000000
0003F8000000
0001FC000000
000078000000
000000000000
000000000000
02F401F80000
07F803F80000
0FF407F80000
0FF40BF40000
1FF00FF40000
2FE01FF00000
3FE02FE00000
3FD03FE00000
3FD0BFD00000
7FC0FFD00B00
7FC2FFC02F40
7FD7FFC0BF00
7FFFFFC2FE00
3FFF7FFFF800
2FFF3FFFE000
1FFD1FFF8000
07E40BF90000
ENDCHAR
STARTCHAR uacute
ENCODING 250
SWIDTH 462 0
DWIDTH 17 0
BBX 21 30 1 0
BITMAP
0000007D0000
000000FF0000
000002FF4000
000003FF0000
000007FD0000
00000FF80000
00001FE00000
00002FC00000
00007F400000
0000BD000000
000078000000
000000000000
000000000000
02F401F80000
07F803F80000
0FF407F80000
0FF40BF40000
1FF00FF40000
2FE01FF00000
3FE02FE00000
3FD03FE00000
3FD0BFD00000
7FC0FFD00B00
7FC2FFC02F40
7FD7FFC0BF00
7FFFFFC2FE00
3FFF7FFFF800
2FFF3FFFE000
1FFD1FFF8000
07E40BF90000
ENDCHAR
STARTCHAR ucircumflex
ENCODING 251
SWIDTH 462 0
DWIDTH 17 0
BBX 21 31 1 0
BITMAP
00001F800000
0000BFD00000
0001FFF00000
0002FFF00000
0007F7F40000
000FF3F80000
001FD2FC0000
003FC2FC0000
00BF42FD0000
01FF01FE0000
01FD01FE0000
01F800B80000
000000000000
000000000000
02F401F80000
07F803F80000
0FF407F80000
0FF40BF40000
1FF00FF40000
2FE01FF00000
3FE02FE00000
3FD03FE00000
3FD0BFD00000
7FC0FFD00B00
7FC2FFC02F40
7FD7FFC0BF00
7FFFFFC2FE00
3FFF7FFFF800
2FFF3FFFE000
1FFD1FFF8000
07E40BF90000
ENDCHAR
STARTCHAR udieresis
ENCODING 252
SWIDTH 462 0
DWIDTH 17 0
BBX 21 25 1 0
BITMAP
006E00BD0000
00FF81FF0000
01FFC2FF4000
01FF83FF4000
01FF42FF0000
007E00B90000
000000000000
000000000000
02F401F80000
07F803F80000
0FF407F80000
0FF40BF40000
1FF00FF40000
2FE01FF00000
3FE02FE00000
3FD03FE00000
3FD0BFD00000
7FC0FFD00B00
7FC2FFC02F40
7FD7FFC0BF00
7FFFFFC2FE00
3FFF7FFFF800
2FFF3FFFE000
1FFD1FFF8000
07E40BF90000
ENDCHAR
STARTCHAR yacute
ENCODING 253
SWIDTH 479 0
DWIDTH 17 0
BBX 21 47 0 -17
BITMAP
0000001F4000
0000003FC000
000000BFD000
000000FFC000
000001FF4000
000003FE0000
000007F80000
00000BF00000
00001FD00000
00002F400000
00001E000000
000000000000
000000000000
00BD007E0000
01FE00FE0000
03FD01FE0000
03FD02FD0000
07FC03FD0000
0BF807FC0000
0FF80BFC0000
0FF40FF80000
0FF42FF80000
1FF03FF80280
1FF0BFF41FC0
1FF5FFF4BFC0
1FFFFFF7FF40
0FFFEFFFFD00
0BFFDFFFE000
07FF5FFF4000
01F92FF80000
0000BFD00000
0002FFC00000
000BFF800000
003FFF800000
00FEBF400000
02F8BF000000
0BF0FF000000
1FC1FE000000
3F42FD000000
7F03FC000000
BE07F8000000
FD0FF0000000
FE2FE0000000
FFFFC0000000
BFFF40000000
7FFE00000000
1BE400000000
ENDCHAR
STARTCHAR thorn
ENCODING 254
SWIDTH 508 0
DWIDTH 18 0
BBX 22 41 1 -12
BITMAP
001500000000
00BF40000000
01FF40000000
02FF40000000
02FF00000000
03FE00000000
03FD00000000
07FD00000000
07FC00000000
0BFC00000000
0BF800000000
0FF400000000
1FF40BE00000
1FF07FFC0000
1FF1FFFD0000
2FE3FFFE0000
2FEBFFFF0000
3FEFD3FF0000
3FFF42FF0000
3FFE02FE0000
7FFC02FE0000
7FF403FD01E0
7FF00BFC03F0
BFE01FF40FE0
BFD0BFE07FD0
BFDBFFFFFF80
BFFFFFFFFE00
BFFFFBFFF400
FFFE41BE8000
FF9000000000
FF4000000000
FF4000000000
FF4000000000
FF4000000000
FF4000000000
FF4000000000
FF4000000000
FF4000000000
FF4000000000
FF4000000000
BE0000000000
ENDCHAR
STARTCHAR ydieresis
ENCODING 255
SWIDTH 479 0
DWIDTH 17 0
BBX 21 42 0 -17
BITMAP
001B802F4000
003FE07FC000
007FF0BFD000
007FE0FFD000
007FD0BFC000
001F802E4000
000000000000
000000000000
00BD007E0000
01FE00FE0000
03FD01FE0000
03FD02FD0000
07FC03FD0000
0BF807FC0000
0FF80BFC0000
0FF40FF80000
0FF42FF80000
1FF03FF80280
1FF0BFF41FC0
1FF5FFF4BFC0
1FFFFFF7FF40
0FFFEFFFFD00
0BFFDFFFE000
07FF5FFF4000
01F92FF80000
0000BFD00000
0002FFC00000
000BFF800000
003FFF800000
00FEBF400000
02F8BF000000
0BF0FF000000
1FC1FE000000
3F42FD000000
7F03FC000000
BE07F8000000
FD0FF0000000
FE2FE0000000
FFFFC0000000
BFFF40000000
7FFE00000000
1BE400000000
ENDCHAR
STARTCHAR Amacron
ENCODING 256
SWIDTH 786 0
DWIDTH 28 0
BBX 31 37 2 0
BITMAP
00000007FFFF8000
0000000FFFFFD000
0000000FFFFFD000
0000000BFFFF8000
0000000000000000
0000000000000000
00000006BFFE9400
000001BFFFFFFF00
00001BFFFFFFFF40
0000BFFFFFFFFF00
0003FFF94005A800
000FFF9000000000
003FFD0000BE0000
00BFF40002FF4000
02FFD00003FF4000
03FF400003FF0000
0BFE000007FF0000
0FFD000007FE0000
2FF800000BFD0000
3FF400000FFD0000
3FF000001FFC0000
7FF000001FF80000
BFE000002FF80000
BFE000003FF40000
FFD000007FF40000
FFD00000BFF00000
FFD00000FFF00000
FFD00001FFF00000
FFD00002FFE00000
BFE00007FFE00038
7FF0000FFFF000FC
3FF8002FFFF002F8
2FFE01FF7FF81FF4
0FFFFFFE3FFFFFE0
07FFFFF81FFFFF80
01FFFFE007FFFD00
001BFA0001BFA000
ENDCHAR
STARTCHAR amacron
ENCODING 257
SWIDTH 470 0
DWIDTH 17 0
BBX 21 23 1 0
BITMAP
002FFFFD0000
007FFFFF0000
00BFFFFE0000
007FFFFD0000
000000000000
000000000000
0006F8000000
002FFE500000
00FFFFF80000
03FFFFF80000
0BFF4BF40000
1FFC0FF40000
2FF41FF00000
3FE01FF00000
7FD02FE00000
BFC03FE00740
BF807FD01F80
BF80BFD07F40
BFD1FFE1FF00
7FFFFFFFFD00
3FFFDBFFF400
1FFF87FFD000
06F901BE0000
ENDCHAR
STARTCHAR Abreve
ENCODING 258
SWIDTH 786 0
DWIDTH 28 0
BBX 31 40 2 0
BITMAP
0000001500001400
0000007F8001FD00
0000007FE007FD00
0000003FFFFFFC00
0000001FFFFFF400
00000007FFFFD000
000000006FF90000
0000000000000000
0000000000000000
00000006BFFE9400
000001BFFFFFFF00
00001BFFFFFFFF40
0000BFFFFFFFFF00
0003FFF94005A800
000FFF9000000000
003FFD0000BE0000
00BFF40002FF4000
02FFD00003FF4000
03FF400003FF0000
0BFE000007FF0000
0FFD000007FE0000
2FF800000BFD0000
3FF400000FFD0000
3FF000001FFC0000
7FF000001FF80000
BFE000002FF80000
BFE000003FF40000
FFD000007FF40000
FFD00000BFF00000
FFD00000FFF00000
FFD00001FFF00000
FFD00002FFE00000
BFE00007FFE00038
7FF0000FFFF000FC
3FF8002FFFF002F8
2FFE01FF7FF81FF4
0FFFFFFE3FFFFFE0
07FFFFF81FFFFF80
01FFFFE007FFFD00
001BFA0001BFA000
ENDCHAR
STARTCHAR abreve
ENCODING 259
SWIDTH 470 0
DWIDTH 17 0
BBX 21 27 1 0
BITMAP
01B80002E000
02FD000BF000
02FE001FF000
02FF807FE000
00FFFFFFC000
007FFFFF4000
001FFFFD0000
0001BF900000
000000000000
000000000000
0006F8000000
002FFE500000
00FFFFF80000
03FFFFF80000
0BFF4BF40000
1FFC0FF40000
2FF41FF00000
3FE01FF00000
7FD02FE00000
BFC03FE00740
BF807FD01F80
BF80BFD07F40
BFD1FFE1FF00
7FFFFFFFFD00
3FFFDBFFF400
1FFF87FFD000
06F901BE0000
ENDCHAR
STARTCHAR Aogonek
ENCODING 260
SWIDTH 786 0
DWIDTH 28 0
BBX 31 40 2 -9
BITMAP
00000006BFFE9400
000001BFFFFFFF00
00001BFFFFFFFF40
0000BFFFFFFFFF00
0003FFF94005A800
000FFF9000000000
003FFD0000BE0000
00BFF40002FF4000
02FFD00003FF4000
03FF400003FF0000
0BFE000007FF0000
0FFD000007FE0000
2FF800000BFD0000
3FF400000FFD0000
3FF000001FFC0000
7FF000001FF80000
BFE000002FF80000
BFE000003FF40000
FFD000007FF40000
FFD00000BFF00000
FFD00000FFF00000
FFD00001FFF00000
FFD00002FFE00000
BFE00007FFE00038
7FF0000FFFF000FC
3FF8002FFFF002F8
2FFE01FF7FF81FF4
0FFFFFFE2FFFFFD0
07FFFFF81FFFFF40
01FFFFE007FFF800
001BFA0001FFD000
0000000001FE0000
0000000003F80000
000000000BF00000
000000000BF00000
000000000BF80400
000000000BFFFE00
0000000003FFFF00
0000000001FFFE00
00000000006FE400
ENDCHAR
STARTCHAR aogonek
ENCODING 261
SWIDTH 470 0
DWIDTH 17 0
BBX 21 26 1 -9
BITMAP
0006F8000000
002FFE500000
00FFFFF80000
03FFFFF80000
0BFF4BF40000
1FFC0FF40000
2FF41FF00000
3FE01FF00000
7FD02FE00000
BFC03FE00B40
BF807FD02F80
BF80BFD0BF40
BFD1FFE6FF00
7FFFFFFFFD00
3FFFDBFFF400
1FFF87FFD000
06F90BFE0000
00002FF40000
00007F800000
0000BF000000
0000FE000000
0000FE000000
0000BF414000
00007FFFD000
00002FFFD000
000006FE4000
ENDCHAR
STARTCHAR Cacute
ENCODING 262
SWIDTH 686 0
DWIDTH 25 0
BBX 28 42 2 0
BITMAP
00000000000500
00000000007F40
0000000002FFC0
000000000BFF80
000000002FFF40
00000001FFF800
00000007FF8000
0000000BF90000
00000007900000
00000000000000
00000000000000
000001BFE80000
00006FFFFF8000
0002FFFFFFE000
000BFFFFFFF400
002FFF406FF800
00BFF8000FFC00
01FFD0000BFC00
03FF80000BFD00
0BFE00000BFC00
0FFD00000BFC00
1FFC00000FF800
2FF400000BF000
3FF40000004000
7FF00000000000
7FE00000000000
BFE00000000000
BFE00000000000
BFE00000000000
BFE00000000000
BFE00000000000
BFF00000000000
7FF00000000000
3FF80000000000
2FFC0000000000
1FFF0000000014
0BFFD0000006FD
02FFF94005BFFC
00BFFFFFFFFFF8
002FFFFFFFFFE0
0006FFFFFFF900
00001AFFE94000
ENDCHAR
STARTCHAR cacute
ENCODING 263
SWIDTH 368 0
DWIDTH 13 0
BBX 17 30 1 0
BITMAP
000002E400
000007FC00
00000BFC00
00001FF800
00002FF000
00003FD000
0000BF8000
0000FE0000
0001FC0000
0002F40000
0001D00000
0000000000
0000000000
001BE40000
01FFFD0000
07FFFF0000
0FFFFF4000
2FF87F4000
3FE07F0000
7FD0BE0000
BFC0780000
BF80000000
BF80000780
BFC0001FC0
BFD000BF80
7FF407FF40
3FFFFFFD00
1FFFFFF400
07FFFF8000
006FE80000
ENDCHAR
STARTCHAR Ccircumflex
ENCODING 264
SWIDTH 686 0
DWIDTH 25 0
BBX 28 43 2 0
BITMAP
00000006F40000
0000001FFD0000
0000007FFF0000
000000BFFF4000
000001FF7F8000
000003FD3FC000
00000BF82FD000
00001FF41FE000
00002FE00FE000
00001F800B9000
00000000000000
00000000000000
000001BFE80000
00006FFFFF8000
0002FFFFFFE000
000BFFFFFFF400
002FFF406FF800
00BFF8000FFC00
01FFD0000BFC00
03FF80000BFD00
0BFE00000BFC00
0FFD00000BFC00
1FFC00000FF800
2FF400000BF000
3FF40000004000
7FF00000000000
7FE00000000000
BFE00000000000
BFE00000000000
BFE00000000000
BFE00000000000
BFE00000000000
BFF00000000000
7FF00000000000
3FF80000000000
2FFC0000000000
1FFF0000000014
0BFFD0000006FD
02FFF94005BFFC
00BFFFFFFFFFF8
002FFFFFFFFFE0
0006FFFFFFF900
00001AFFE94000
ENDCHAR
STARTCHAR ccircumflex
ENCODING 265
SWIDTH 368 0
DWIDTH 13 0
BBX 17 31 1 0
BITMAP
0000BE0000
0002FF4000
0007FF8000
000FFFC000
002FDFD000
003F8FD000
00BF4FE000
01FE0FF000
02FD0BF000
07F80BF400
0BF407F400
07D002E000
0000000000
0000000000
001BE40000
01FFFD0000
07FFFF0000
0FFFFF4000
2FF87F4000
3FE07F0000
7FD0BE0000
BFC0780000
BF80000000
BF80000780
BFC0001FC0
BFD000BF80
7FF407FF40
3FFFFFFD00
1FFFFFF400
07FFFF8000
006FE80000
ENDCHAR
STARTCHAR Cdotaccent
ENCODING 266
SWIDTH 686 0
DWIDTH 25 0
BBX 28 39 2 0
BITMAP
0000000BE00000
0000003FFC0000
0000007FFC0000
0000007FFC0000
0000003FF80000
0000001BE00000
00000000000000
00000000000000
000001BFE80000
00006FFFFF8000
0002FFFFFFE000
000BFFFFFFF400
002FFF406FF800
00BFF8000FFC00
01FFD0000BFC00
03FF80000BFD00
0BFE00000BFC00
0FFD00000BFC00
1FFC00000FF800
2FF400000BF000
3FF40000004000
7FF00000000000
7FE00000000000
BFE00000000000
BFE00000000000
BFE00000000000
BFE00000000000
BFE00000000000
BFF00000000000
7FF00000000000
3FF80000000000
2FFC0000000000
1FFF0000000014
0BFFD0000006FD
02FFF94005BFFC
00BFFFFFFFFFF8
002FFFFFFFFFE0
0006FFFFFFF900
00001AFFE94000
ENDCHAR
STARTCHAR cdotaccent
ENCODING 267
SWIDTH 368 0
DWIDTH 13 0
BBX 17 25 1 0
BITMAP
0002F80000
000FFE0000
001FFF0000
001FFE0000
001FFD0000
0007F40000
0000000000
0000000000
001BE40000
01FFFD0000
07FFFF0000
0FFFFF4000
2FF87F4000
3FE07F0000
7FD0BE0000
BFC0780000
BF80000000
BF80000780
BFC0001FC0
BFD000BF80
7FF407FF40
3FFFFFFD00
1FFFFFF400
07FFFF8000
006FE80000
ENDCHAR
STARTCHAR Ccaron
ENCODING 268
SWIDTH 686 0
DWIDTH 25 0
BBX 28 42 2 0
BITMAP
000003E001F400
00000BF407F800
000007F80FF400
000003FC2FE000
000001FD7F8000
000000FEFF0000
0000007FFD0000
0000002FF80000
0000000BD00000
00000000000000
00000000000000
000001BFE80000
00006FFFFF8000
0002FFFFFFE000
000BFFFFFFF400
002FFF406FF800
00BFF8000FFC00
01FFD0000BFC00
03FF80000BFD00
0BFE00000BFC00
0FFD00000BFC00
1FFC00000FF800
2FF400000BF000
3FF40000004000
7FF00000000000
7FE00000000000
BFE00000000000
BFE00000000000
BFE00000000000
BFE00000000000
BFE00000000000
BFF00000000000
7FF00000000000
3FF80000000000
2FFC0000000000
1FFF0000000014
0BFFD0000006FD
02FFF94005BFFC
00BFFFFFFFFFF8
002FFFFFFFFFE0
0006FFFFFFF900
00001AFFE94000
ENDCHAR
STARTCHAR ccaron
ENCODING 269
SWIDTH 368 0
DWIDTH 13 0
BBX 17 31 1 0
BITMAP
007D002E00
00FE00FF00
00FF01FE00
00BF03FD00
00BF47F800
007F4BF000
003F9FD000
002FAFC000
002FFF4000
001FFE0000
000FFC0000
0007E40000
0000000000
0000000000
001BE40000
01FFFD0000
07FFFF0000
0FFFFF4000
2FF87F4000
3FE07F0000
7FD0BE0000
BFC0780000
BF80000000
BF80000780
BFC0001FC0
BFD000BF80
7FF407FF40
3FFFFFFD00
1FFFFFF400
07FFFF8000
006FE80000
ENDCHAR
STARTCHAR Dcaron
ENCODING 270
SWIDTH 836 0
DWIDTH 30 0
BBX 29 42 1 0
BITMAP
000007D002E00000
00000FF00BF40000
00000BF41FE00000
000007F83FD00000
000002FCBF400000
000001FEFE000000
000000BFFC000000
0000007FF4000000
0000001F90000000
0000000000000000
0000000000000000
00005AFFE9000000
001BFFFFFFE00000
01FFFFFFFFFD0000
1FFFFFFFFFFF8000
3FFF94005FFFE000
7FF4000001FFF400
7F400000007FFC00
14015400001FFD00
0007FD00000BFE00
000BFD000007FF00
000FFC000003FF40
001FFC000003FF40
001FF8000003FF40
002FF4000003FF40
003FF0000003FF40
003FF0000003FF40
007FE0000007FF00
00BFE0000007FF00
00BFD000000BFE00
00FFC000000FFD00
00FFC000001FFC00
01FF8000003FF800
01FF800000BFF400
02FF800001FFE000
02FF400007FFC000
03FF40002FFF4000
03FF4016FFFD0000
03FFFFFFFFE00000
03FFFFFFFF400000
02FFFFFFF4000000
006BFFE900000000
ENDCHAR
STARTCHAR dcaron
ENCODING 271
SWIDTH 470 0
DWIDTH 17 0
BBX 23 33 1 0
BITMAP
0000000002F8
0000000007FC
0000000547FC
0000002FD7F8
0000007FE7F4
0000007FDBF0
000000BFCBE0
000000BFC7C0
000000FF8000
000000FF8000
000001FF4000
000001FF0000
000001FF0000
000002FE0000
000002FE0000
000003FD0000
0006FBFC0000
002FFFFC0000
00FFFFF80000
03FFFFF80000
0BFF4BF40000
1FFC0FF40000
2FF41FF00000
3FE01FF00000
7FD02FE00000
BFC03FE00740
BF807FD01F80
BF80BFD07F40
BFD1FFE1FF00
7FFFFFFFFD00
3FFFDBFFF400
1FFF87FFD000
06F901BE0000
ENDCHAR
STARTCHAR Dcroat
ENCODING 272
SWIDTH 821 0
DWIDTH 30 0
BBX 29 31 0 0
BITMAP
00000AFFFA400000
00003FFFFFF40000
00007FFFFFFE0000
0000BFFFFFFFD000
0000FFC01BFFF400
0001FF8000BFF800
0002FF40002FFD00
0002FF40000BFF00
0003FF000007FF40
0007FE000003FF80
000BFD000002FF80
000BFD000002FF80
000FFC000001FFC0
1BFFFFFF9001FFC0
7FFFFFFFF001FF80
7FFFFFFFF002FF80
3FFFFFFFD002FF80
007FE0000003FF40
007FE0000003FF40
00BFD0000007FF00
00BFD000000FFE00
00FFC000001FFC00
00FFC000003FF800
01FFC00000BFF000
01FF800002FFD000
02FF80001FFF4000
02FF4006FFFD0000
02FFFFFFFFF40000
02FFFFFFFF800000
02FFFFFFF8000000
006BFFE940000000
ENDCHAR
STARTCHAR dcroat
ENCODING 273
SWIDTH 470 0
DWIDTH 17 0
BBX 21 31 1 0
BITMAP
000000054000
0000003FD000
0000007FD000
000000BFD000
000000BFC000
000000FFC000
002FFFFFF800
003FFFFFF800
007FFFFFF800
002FFFFF9000
000002FF0000
000002FE0000
000002FE0000
000003FD0000
0006FBFC0000
002FFFFC0000
00FFFFF80000
03FFFFF80000
0BFF4BF40000
1FFC0FF40000
2FF41FF00000
3FE01FF00000
7FD02FE00000
BFC03FE00740
BF807FD01F80
BF80BFD07F40
BFD1FFE1FF00
7FFFFFFFFD00
3FFFDBFFF400
1FFF87FFD000
06F901BE0000
ENDCHAR
STARTCHAR Emacron
ENCODING 274
SWIDTH 686 0
DWIDTH 25 0
BBX 29 37 1 0
BITMAP
000002FFFFD00000
00000BFFFFF00000
00000BFFFFE00000
000007FFFFD00000
0000000000000000
0000000000000000
000005BFFA000000
00006FFFFFE00000
0002FFFFFFFC0000
000FFFFFFFFE0000
003FFF400BFF4000
00BFF80002FF4000
00FFE00001FF8000
01FFD00000FF8000
01FFC00001FF8000
01FFC00001FF4000
01FFD00001FF0000
00BFF00000B80000
007FFE4000000000
001FFFFF00000000
0002FFFF40000000
001FFFFF00000000
01FFFFFD00000000
0BFFE40000000000
1FFE000000000000
3FF8000000000000
7FF0000000000000
BFE0000000000000
FFD0000000000000
FFE0000000000000
BFF0000000001A00
7FFD00000005BF40
2FFF940005BFFF00
0FFFFFFFFFFFFE00
02FFFFFFFFFFF800
006FFFFFFFFE4000
0001AFFFEA500000
ENDCHAR
STARTCHAR emacron
ENCODING 275
SWIDTH 393 0
DWIDTH 14 0
BBX 18 23 1 0
BITMAP
01FFFFE000
03FFFFF400
03FFFFF400
02FFFFE000
0000000000
0000000000
001BF80000
01FFFE0000
07FFFF8000
0FFFFF8000
2FF47FC000
3FD03FC000
7FC07F8000
BF81FF0000
BF9BFD0000
BFFFF401E0
BFFE400BE0
BFE0006FE0
7FF406FFD0
2FFFFFFF40
0FFFFFFD00
07FFFFE000
006FF90000
ENDCHAR
STARTCHAR Ebreve
ENCODING 276
SWIDTH 686 0
DWIDTH 25 0
BBX 29 40 1 0
BITMAP
0000050000150000
00002FC000BF0000
00003FF406FF0000
00002FFFFFFD0000
00000FFFFFF80000
000002FFFFE00000
0000006FF9000000
0000000000000000
0000000000000000
000005BFFA000000
00006FFFFFE00000
0002FFFFFFFC0000
000FFFFFFFFE0000
003FFF400BFF4000
00BFF80002FF4000
00FFE00001FF8000
01FFD00000FF8000
01FFC00001FF8000
01FFC00001FF4000
01FFD00001FF0000
00BFF00000B80000
007FFE4000000000
001FFFFF00000000
0002FFFF40000000
001FFFFF00000000
01FFFFFD00000000
0BFFE40000000000
1FFE000000000000
3FF8000000000000
7FF0000000000000
BFE0000000000000
FFD0000000000000
FFE0000000000000
BFF0000000001A00
7FFD00000005BF40
2FFF940005BFFF00
0FFFFFFFFFFFFE00
02FFFFFFFFFFF800
006FFFFFFFFE4000
0001AFFFEA500000
ENDCHAR
STARTCHAR ebreve
ENCODING 277
SWIDTH 393 0
DWIDTH 14 0
BBX 18 27 1 0
BITMAP
0BC0001F00
1FE0007F40
1FF400FF40
0FFD06FF00
0BFFFFFE00
03FFFFF800
00BFFFE000
001BFA0000
0000000000
0000000000
001BF80000
01FFFE0000
07FFFF8000
0FFFFF8000
2FF47FC000
3FD03FC000
7FC07F8000
BF81FF0000
BF9BFD0000
BFFFF401E0
BFFE400BE0
BFE0006FE0
7FF406FFD0
2FFFFFFF40
0FFFFFFD00
07FFFFE000
006FF90000
ENDCHAR
STARTCHAR Edotaccent
ENCODING 278
SWIDTH 686 0
DWIDTH 25 0
BBX 29 39 1 0
BITMAP
00000006F4000000
0000001FFD000000
0000002FFE000000
0000003FFE000000
0000002FFC000000
0000000BE4000000
0000000000000000
0000000000000000
000005BFFA000000
00006FFFFFE00000
0002FFFFFFFC0000
000FFFFFFFFE0000
003FFF400BFF4000
00BFF80002FF4000
00FFE00001FF8000
01FFD00000FF8000
01FFC00001FF8000
01FFC00001FF4000
01FFD00001FF0000
00BFF00000B80000
007FFE4000000000
001FFFFF00000000
0002FFFF40000000
001FFFFF00000000
01FFFFFD00000000
0BFFE40000000000
1FFE000000000000
3FF8000000000000
7FF0000000000000
BFE0000000000000
FFD0000000000000
FFE0000000000000
BFF0000000001A00
7FFD00000005BF40
2FFF940005BFFF00
0FFFFFFFFFFFFE00
02FFFFFFFFFFF800
006FFFFFFFFE4000
0001AFFFEA500000
ENDCHAR
STARTCHAR edotaccent
ENCODING 279
SWIDTH 393 0
DWIDTH 14 0
BBX 18 25 1 0
BITMAP
0002F80000
000BFF0000
001FFF0000
001FFF0000
000FFE0000
0006F80000
0000000000
0000000000
001BF80000
01FFFE0000
07FFFF8000
0FFFFF8000
2FF47FC000
3FD03FC000
7FC07F8000
BF81FF0000
BF9BFD0000
BFFFF401E0
BFFE400BE0
BFE0006FE0
7FF406FFD0
2FFFFFFF40
0FFFFFFD00
07FFFFE000
006FF90000
ENDCHAR
STARTCHAR Eogonek
ENCODING 280
SWIDTH 686 0
DWIDTH 25 0
BBX 29 40 1 -9
BITMAP
000005BFFA000000
00006FFFFFE00000
0002FFFFFFFC0000
000FFFFFFFFE0000
003FFF400BFF4000
00BFF80002FF4000
00FFE00001FF8000
01FFD00000FF8000
01FFC00001FF8000
01FFC00001FF4000
01FFD00001FF0000
00BFF00000B80000
007FFE4000000000
001FFFFF00000000
0002FFFF40000000
001FFFFF00000000
01FFFFFD00000000
0BFFE40000000000
1FFE000000000000
3FF8000000000000
7FF0000000000000
BFE0000000000000
FFD0000000000000
FFE0000000000000
BFF0000000001A00
7FFD00000005BF40
3FFF940005BFFF00
1FFFFFFFFFFFFE00
07FFFFFFFFFFF400
007FFFFFFFFE4000
0005AFFFE9400000
000000FE00000000
000001FD00000000
000002FC00000000
000003FC00000000
000003FD01000000
000003FFFF800000
000001FFFF800000
000000BFFF400000
0000001BF9000000
ENDCHAR
STARTCHAR eogonek
ENCODING 281
SWIDTH 393 0
DWIDTH 14 0
BBX 18 26 1 -9
BITMAP
001BF80000
01FFFE0000
07FFFF4000
0FFFFF8000
2FF47FC000
3FD03FC000
7FC03F8000
BF80BF4000
BF87FE0000
BFFFF80090
BFFFD003E0
BFF9001FE0
7FD000BFD0
3FF95BFF80
1FFFFFFE00
0BFFFFF400
01BFFE4000
000FF40000
002FC00000
003F400000
007F400000
007F400000
007FD05000
003FFFF000
001FFFE000
0002FF8000
ENDCHAR
STARTCHAR Ecaron
ENCODING 282
SWIDTH 686 0
DWIDTH 25 0
BBX 29 42 1 0
BITMAP
000002F400B80000
000003F802FC0000
000003FC07F80000
000001FD0FF00000
000000FF2FD00000
0000007FBF800000
0000003FFE000000
0000001FFC000000
00000007E0000000
0000000000000000
0000000000000000
000005BFFA000000
00006FFFFFE00000
0002FFFFFFFC0000
000FFFFFFFFE0000
003FFF400BFF4000
00BFF80002FF4000
00FFE00001FF8000
01FFD00000FF8000
01FFC00001FF8000
01FFC00001FF4000
01FFD00001FF0000
00BFF00000B80000
007FFE4000000000
001FFFFF00000000
0002FFFF40000000
001FFFFF00000000
01FFFFFD00000000
0BFFE40000000000
1FFE000000000000
3FF8000000000000
7FF0000000000000
BFE0000000000000
FFD0000000000000
FFE0000000000000
BFF0000000001A00
7FFD00000005BF40
2FFF940005BFFF00
0FFFFFFFFFFFFE00
02FFFFFFFFFFF800
006FFFFFFFFE4000
0001AFFFEA500000
ENDCHAR
STARTCHAR ecaron
ENCODING 283
SWIDTH 393 0
DWIDTH 14 0
BBX 18 31 1 0
BITMAP
007D002E00
00BF00BF40
00BF41FF00
00BF42FD00
007F47F800
003F8BF400
003F8FE000
002FAFC000
001FFF8000
000FFF0000
000BFD0000
0002E40000
0000000000
0000000000
001BF80000
01FFFE0000
07FFFF8000
0FFFFF8000
2FF47FC000
3FD03FC000
7FC07F8000
BF81FF0000
BF9BFD0000
BFFFF401E0
BFFE400BE0
BFE0006FE0
7FF406FFD0
2FFFFFFF40
0FFFFFFD00
07FFFFE000
006FF90000
ENDCHAR
STARTCHAR Gcircumflex
ENCODING 284
SWIDTH 811 0
DWIDTH 29 0
BBX 31 60 2 -17
BITMAP
00000002F9000000
0000000BFF000000
0000002FFF400000
0000007FFF800000
000000FF6FD00000
000002FE1FE00000
000007FD1FF00000
00000FF80FF40000
00000FF00BF40000
00000BD002E00000
0000000000000000
0000000000000000
000001AFF9000000
00002FFFFFD00000
0001FFFFFFF40000
000BFFFFFFFD0000
002FFF501BFE0000
00BFF80003FF0000
01FFD00002FF0000
03FF800002FF4000
0BFE000002FF4000
0FFD000002FF0000
1FFC000003FE0000
2FF4000002FD0000
3FF4000000A40000
7FF0000000000000
7FE0000000000000
BFE0000000000000
BFE0000000000000
BFE0000000000000
BFE00002FFFF8000
BFE00007FFFFC000
BFF00007FFFFC000
7FF00002FFFFC000
3FF8000000BF8000
2FFC000000BF8014
1FFE000000FF40BC
0BFFD00000FF47FC
03FFF90016FF6FF8
00FFFFFFFFFFFFE0
002FFFFFFFFFFF40
0006FFFFFFFFF800
00001BFFA6FFD000
000000000BFE0000
000000002FFD0000
00000000FFFC0000
00000007FFF80000
0000000FEBF80000
0000003F8BF40000
000000BF0FF00000
000001FC1FE00000
000003F42FD00000
000007F03FC00000
00000BE07F800000
00000FD0FF400000
00000FE2FE000000
00000FFFFD000000
00000BFFF8000000
000007FFE0000000
000001BE40000000
ENDCHAR
STARTCHAR gcircumflex
ENCODING 285
SWIDTH 479 0
DWIDTH 17 0
BBX 21 48 0 -17
BITMAP
000002F40000
00000FFC0000
00002FFD0000
00007FFE0000
0000FFBF0000
0001FD7F0000
0003FC7F4000
000BF47F8000
000FF03FC000
002FD03FC000
003FC02FC000
002E401F4000
000000000000
000000000000
0001BE000000
000BFF940000
003FFFFE0000
00FFFFFE0000
02FFD3FD0000
07FF03FD0000
0BFD07FC0000
0FF807FC0000
1FF40BF80000
2FF00FF806C0
2FE00FF42FC0
2FE02FF5FFC0
2FF47FFBFF40
1FFFFFFFFD00
0FFFFFFFE000
07FFEFFF4000
01BE6FF80000
0000BFD00000
0007FFC00000
001FFFC00000
007FFF800000
01FEBF400000
03F8BF400000
0BF0FF000000
1FD1FE000000
3F82FD000000
7F03FC000000
BE07F8000000
FD0FF4000000
FE2FE0000000
FFFFD0000000
BFFF80000000
7FFE00000000
1BE400000000
ENDCHAR
STARTCHAR Gbreve
ENCODING 286
SWIDTH 811 0
DWIDTH 29 0
BBX 31 57 2 -17
BITMAP
0000054000150000
00002FD000BF0000
00002FF406FF0000
00002FFFFFFE0000
00000FFFFFF80000
000002FFFFE00000
0000006FFA000000
0000000000000000
0000000000000000
000001AFF9000000
00002FFFFFD00000
0001FFFFFFF40000
000BFFFFFFFD0000
002FFF501BFE0000
00BFF80003FF0000
01FFD00002FF0000
03FF800002FF4000
0BFE000002FF4000
0FFD000002FF0000
1FFC000003FE0000
2FF4000002FD0000
3FF4000000A40000
7FF0000000000000
7FE0000000000000
BFE0000000000000
BFE0000000000000
BFE0000000000000
BFE00002FFFF8000
BFE00007FFFFC000
BFF00007FFFFC000
7FF00002FFFFC000
3FF8000000BF8000
2FFC000000BF8014
1FFE000000FF40BC
0BFFD00000FF47FC
03FFF90016FF6FF8
00FFFFFFFFFFFFE0
002FFFFFFFFFFF40
0006FFFFFFFFF800
00001BFFA6FFD000
000000000BFE0000
000000002FFD0000
00000000FFFC0000
00000007FFF80000
0000000FEBF80000
0000003F8BF40000
000000BF0FF00000
000001FC1FE00000
000003F42FD00000
000007F03FC00000
00000BE07F800000
00000FD0FF400000
00000FE2FE000000
00000FFFFD000000
00000BFFF8000000
000007FFE0000000
000001BE40000000
ENDCHAR
STARTCHAR gbreve
ENCODING 287
SWIDTH 479 0
DWIDTH 17 0
BBX 21 44 0 -17
BITMAP
006E0000B800
00BF4002FC00
00BF8007FC00
00BFE01FF800
003FFFFFF000
001FFFFFD000
0007FFFF4000
00006FE40000
000000000000
000000000000
0001BE000000
000BFF940000
003FFFFE0000
00FFFFFE0000
02FFD3FD0000
07FF03FD0000
0BFD07FC0000
0FF807FC0000
1FF40BF80000
2FF00FF806C0
2FE00FF42FC0
2FE02FF5FFC0
2FF47FFBFF40
1FFFFFFFFD00
0FFFFFFFE000
07FFEFFF4000
01BE6FF80000
0000BFD00000
0007FFC00000
001FFFC00000
007FFF800000
01FEBF400000
03F8BF400000
0BF0FF000000
1FD1FE000000
3F82FD000000
7F03FC000000
BE07F8000000
FD0FF4000000
FE2FE0000000
FFFFD0000000
BFFF80000000
7FFE00000000
1BE400000000
ENDCHAR
STARTCHAR Gdotaccent
ENCODING 288
SWIDTH 811 0
DWIDTH 29 0
BBX 31 56 2 -17
BITMAP
00000006F4000000
0000001FFD000000
0000002FFE000000
0000002FFE000000
0000002FFD000000
0000000BE4000000
0000000000000000
0000000000000000
000001AFF9000000
00002FFFFFD00000
0001FFFFFFF40000
000BFFFFFFFD0000
002FFF501BFE0000
00BFF80003FF0000
01FFD00002FF0000
03FF800002FF4000
0BFE000002FF4000
0FFD000002FF0000
1FFC000003FE0000
2FF4000002FD0000
3FF4000000A40000
7FF0000000000000
7FE0000000000000
BFE0000000000000
BFE0000000000000
BFE0000000000000
BFE00002FFFF8000
BFE00007FFFFC000
BFF00007FFFFC000
7FF00002FFFFC000
3FF8000000BF8000
2FFC000000BF8014
1FFE000000FF40BC
0BFFD00000FF47FC
03FFF90016FF6FF8
00FFFFFFFFFFFFE0
002FFFFFFFFFFF40
0006FFFFFFFFF800
00001BFFA6FFD000
000000000BFE0000
000000002FFD0000
00000000FFFC0000
00000007FFF80000
0000000FEBF80000
0000003F8BF40000
000000BF0FF00000
000001FC1FE00000
000003F42FD00000
000007F03FC00000
00000BE07F800000
00000FD0FF400000
00000FE2FE000000
00000FFFFD000000
00000BFFF8000000
000007FFE0000000
000001BE40000000
ENDCHAR
STARTCHAR gdotaccent
ENCODING 289
SWIDTH 479 0
DWIDTH 17 0
BBX 21 42 0 -17
BITMAP
00001BD00000
00007FF40000
0000BFF80000
0000BFF80000
00007FF00000
00002F900000
000000000000
000000000000
0001BE000000
000BFF940000
003FFFFE0000
00FFFFFE0000
02FFD3FD0000
07FF03FD0000
0BFD07FC0000
0FF807FC0000
1FF40BF80000
2FF00FF806C0
2FE00FF42FC0
2FE02FF5FFC0
2FF47FFBFF40
1FFFFFFFFD00
0FFFFFFFE000
07FFEFFF4000
01BE6FF80000
0000BFD00000
0007FFC00000
001FFFC00000
007FFF800000
01FEBF400000
03F8BF400000
0BF0FF000000
1FD1FE000000
3F82FD000000
7F03FC000000
BE07F8000000
FD0FF4000000
FE2FE0000000
FFFFD0000000
BFFF80000000
7FFE00000000
1BE400000000
ENDCHAR
STARTCHAR uni0122
ENCODING 290
SWIDTH 811 0
DWIDTH 29 0
BBX 31 48 2 -17
BITMAP
000001AFF9000000
00002FFFFFD00000
0001FFFFFFF40000
000BFFFFFFFD0000
002FFF501BFE0000
00BFF80003FF0000
01FFD00002FF0000
03FF800002FF4000
0BFE000002FF4000
0FFD000002FF0000
1FFC000003FE0000
2FF4000002FD0000
3FF4000000A40000
7FF0000000000000
7FE0000000000000
BFE0000000000000
BFE0000000000000
BFE0000000000000
BFE00002FFFF8000
BFE00007FFFFC000
BFF00007FFFFC000
7FF00002FFFFC000
3FF8000000BF8000
2FFC000000BF8014
1FFE000000FF40BC
0BFFD00000FF47FC
03FFF90016FF6FF8
00FFFFFFFFFFFFE0
002FFFFFFFFFFF40
0006FFFFFFFFF800
00001BFFA6FFD000
000000000BFE0000
000000002FFD0000
000B9000FFFC0000
001FE007FFF80000
002FE00FEBF80000
002FD03F8BF40000
002FC0BF0FF00000
002F81FC1FE00000
001F43F42FD00000
000007F03FC00000
00000BE07F800000
00000FD0FF400000
00000FE2FE000000
00000FFFFD000000
00000BFFF8000000
000007FFE0000000
000001BE40000000
ENDCHAR
STARTCHAR uni0123
ENCODING 291
SWIDTH 479 0
DWIDTH 17 0
BBX 21 45 0 -17
BITMAP
000006E00000
00000BF40000
00000FF40000
00000FF40000
00000FF00000
00000FE00000
00000FD00000
00000FC00000
00000B400000
000000000000
000000000000
0001BE000000
000BFF940000
003FFFFE0000
00FFFFFE0000
02FFD3FD0000
07FF03FD0000
0BFD07FC0000
0FF807FC0000
1FF40BF80000
2FF00FF806C0
2FE00FF42FC0
2FE02FF5FFC0
2FF47FFBFF40
1FFFFFFFFD00
0FFFFFFFE000
07FFEFFF4000
01BE6FF80000
0000BFD00000
0007FFC00000
001FFFC00000
007FFF800000
01FEBF400000
03F8BF400000
0BF0FF000000
1FD1FE000000
3F82FD000000
7F03FC000000
BE07F8000000
FD0FF4000000
FE2FE0000000
FFFFD0000000
BFFF80000000
7FFE00000000
1BE400000000
ENDCHAR
STARTCHAR Hcircumflex
ENCODING 292
SWIDTH 873 0
DWIDTH 31 0
BBX 37 43 -1 0
BITMAP
0000000001FD00000000
000000000BFF00000000
000000001FFF80000000
000000003FFFC0000000
00000000BFAFD0000000
00000001FF1FE0000000
00000003FD0FF0000000
0000000BFC0BF4000000
0000000FF407F4000000
00000007D002E0000000
00000000000000000000
000000000000002F9000
0006BE40000001FFF400
002FFFE0000007FFF800
01FFFFF400000FF5FC00
07FFFFF800002FE0BD00
1FF81FFC00007FC0BD00
3FD00FFC0000BF80FD00
7F400BFC0001FF00FC00
BD000BFC0002FF01FC00
74000FFC0003FE02F800
00000FFC0007FD07F400
00000FFC000BFC0FF000
00000FF8000BFC2FD000
00001FF8000FFAFF8000
00001FF4000FFFFE0000
00002FF9556FFFF80000
002FFFFFFFFFFF900000
007FFFFFFFFFF9000000
00BFFFFFFFFFF0000000
002FFFE9542FF0000000
0000BFD0003FF0000000
0000FFC0003FF0000000
0000FFC0002FF0000000
0001FF80002FF4000000
0002FF40002FF40003C0
0002FF40001FF8000BC0
0003FF00000FFC002FC0
0007FE00000BFE01FF40
000BFE000007FFFFFE00
000BFD000002FFFFF800
000BF8000000BFFFD000
0002E00000001BF90000
ENDCHAR
STARTCHAR hcircumflex
ENCODING 293
SWIDTH 502 0
DWIDTH 18 0
BBX 21 46 2 0
BITMAP
00002F800000
0000BFF00000
0002FFF40000
0007FFF80000
000FF6FC0000
002FE1FE0000
007FD1FF0000
00FF80FF4000
00FF00BF4000
00BD002E0000
000000000000
000000000000
0001BD000000
000BFF400000
002FFFC00000
007FFFD00000
00BF5FD00000
01FE0FD00000
02FD0FD00000
03FC0FD00000
07F81FC00000
0BF42F800000
0FF03F400000
1FF07F000000
2FE0FD000000
2FD1F8000000
3FD3F4000000
3FCBE0000000
7FEF80000000
7FFF06E00000
BFFD7FF80000
BFF4FFF80000
BFE3FFF80000
FF8BFFF80000
FF5FEFF40000
FF6F4FF40000
FFBE1FF00000
FFFC1FE00000
FFF82FE00780
FFF42FD01F80
FFF03FD07F80
FFE03FE1FF00
FFD03FFFFD00
FFC02FFFF400
FF401FFF8000
7D0007F90000
ENDCHAR
STARTCHAR Hbar
ENCODING 294
SWIDTH 856 0
DWIDTH 31 0
BBX 30 31 2 0
BITMAP
000BE0000007F400
002FF400000FF800
002FF400001FF800
003FF400001FF800
003FF000002FF800
0BFFFFFFFFFFFF80
2FFFFFFFFFFFFFE0
2FFFFFFFFFFFFFE0
1FFFFFFFFFFFFF80
00BFD000007FF000
00BFD000007FE000
00FFC000007FE000
00FFC00000BFD000
2FFFFFFFFFFFFE00
BFFFFFFFFFFFFF40
FFFFFFFFFFFFFF40
BFFFFFFFFFFFFE00
03FF000002FF4000
03FF000002FF4000
07FE000003FF4000
07FE000003FF0000
0BFD000007FF0000
0BFD000007FE0000
0FFD000007FE0000
0FFC00000BFE0000
1FFC00000BFD0000
1FFC00000FFD0000
1FF800000FFD0000
2FF800000FFC0000
1FF400000FFC0000
0BE0000007E40000
ENDCHAR
STARTCHAR hbar
ENCODING 295
SWIDTH 502 0
DWIDTH 18 0
BBX 21 31 2 0
BITMAP
001500000000
00BF80000000
00FF80000000
01FF40000000
02FF00000000
03FE00000000
BFFFFFD00000
FFFFFFF00000
FFFFFFF00000
6FFFFFD00000
0FF800000000
1FF400000000
1FF400000000
2FF000000000
2FE006E00000
3FE07FF80000
3FD0FFF80000
7FD3FFF80000
7FCBFFF80000
BFDFEFF40000
BFAF4FF40000
BFBE1FF00000
BFFC1FE00000
FFF82FE00780
FFF42FD01F80
FFF03FD07F80
FFE03FE1FF00
FFD03FFFFD00
BFC02FFFF400
7F801FFFD000
2E0007F90000
ENDCHAR
STARTCHAR Itilde
ENCODING 296
SWIDTH 495 0
DWIDTH 18 0
BBX 22 40 -1 0
BITMAP
00002F400140
0000FFE40BE0
0002FFFE1FE0
0007FFFFBFD0
000FF4BFFF80
000FD01FFF00
00014002F800
000000000000
000000000000
001BFFFFFF40
003FFFFFFFC0
007FFFFFFF80
002FFFFFFE00
00000FFC0000
00001FF80000
00001FF80000
00002FF40000
00002FF40000
00003FF40000
00003FF00000
00003FF00000
00007FE00000
00007FE00000
0000BFD00000
0000BFD00000
0000FFC00000
0000FFC00000
0001FF800000
0001FF800000
0002FF800000
0002FF400000
0003FF400000
0003FF000000
0007FF000000
0007FE000000
0007FE000000
1AFFFFFE4000
7FFFFFFFC000
BFFFFFFF8000
7FFFFFFE0000
ENDCHAR
STARTCHAR itilde
ENCODING 297
SWIDTH 246 0
DWIDTH 9 0
BBX 17 26 -2 0
BITMAP
01B9000500
07FF803F40
0FFFF4BF40
2FEFFEFE00
3F82FFFD00
7F00BFF400
14001BD000
0000000000
0000000000
000BD00000
002FE00000
003FD00000
007FD00000
007FC00000
00BFC00000
00FF800000
00FF400000
00FF400000
01FF002D00
01FF007D00
01FF01FD00
01FF4BFC00
00FFFFF000
00BFFFD000
003FFE0000
001BE40000
ENDCHAR
STARTCHAR Imacron
ENCODING 298
SWIDTH 495 0
DWIDTH 18 0
BBX 21 37 -1 0
BITMAP
0000BFFFF800
0000FFFFFD00
0001FFFFFC00
0000BFFFF800
000000000000
000000000000
001BFFFFFF40
003FFFFFFFC0
007FFFFFFF80
002FFFFFFE00
00000FFC0000
00001FF80000
00001FF80000
00002FF40000
00002FF40000
00003FF40000
00003FF00000
00003FF00000
00007FE00000
00007FE00000
0000BFD00000
0000BFD00000
0000FFC00000
0000FFC00000
0001FF800000
0001FF800000
0002FF800000
0002FF400000
0003FF400000
0003FF000000
0007FF000000
0007FE000000
0007FE000000
1AFFFFFE4000
7FFFFFFFC000
BFFFFFFF8000
7FFFFFFE0000
ENDCHAR
STARTCHAR imacron
ENCODING 299
SWIDTH 246 0
DWIDTH 9 0
BBX 14 23 0 0
BITMAP
2FFFFD00
BFFFFE00
BFFFFE00
7FFFFD00
00000000
00000000
00BD0000
02FE0000
03FD0000
07FD0000
07FC0000
0BFC0000
0FF80000
0FF40000
0FF40000
1FF002D0
1FF007D0
1FF01FD0
1FF4BFC0
0FFFFF00
0BFFFD00
03FFE000
01BE4000
ENDCHAR
STARTCHAR Ibreve
ENCODING 300
SWIDTH 495 0
DWIDTH 18 0
BBX 22 40 -1 0
BITMAP
000150000140
0007F4001FD0
0007FD00BFD0
0007FFFFFFC0
0002FFFFFF40
0000BFFFF900
000006FF9000
000000000000
000000000000
001BFFFFFF40
003FFFFFFFC0
007FFFFFFF80
002FFFFFFE00
00000FFC0000
00001FF80000
00001FF80000
00002FF40000
00002FF40000
00003FF40000
00003FF00000
00003FF00000
00007FE00000
00007FE00000
0000BFD00000
0000BFD00000
0000FFC00000
0000FFC00000
0001FF800000
0001FF800000
0002FF800000
0002FF400000
0003FF400000
0003FF000000
0007FF000000
0007FE000000
0007FE000000
1AFFFFFE4000
7FFFFFFFC000
BFFFFFFF8000
7FFFFFFE0000
ENDCHAR
STARTCHAR ibreve
ENCODING 301
SWIDTH 246 0
DWIDTH 9 0
BBX 15 27 -1 0
BITMAP
7D0000B4
BF0002FC
BF8007F8
BFE02FF8
7FFFFFF0
1FFFFFD0
07FFFF40
00AFE400
00000000
00000000
002F4000
00BF8000
00FF4000
01FF4000
01FF0000
02FF0000
03FE0000
03FD0000
03FD0000
07FC00B4
07FC01F4
07FC07F4
07FD2FF0
03FFFFC0
02FFFF40
00FFF800
006F9000
ENDCHAR
STARTCHAR Iogonek
ENCODING 302
SWIDTH 495 0
DWIDTH 18 0
BBX 21 40 -1 -9
BITMAP
001BFFFFFF40
003FFFFFFFC0
007FFFFFFF80
002FFFFFFE00
00000FFC0000
00001FF80000
00001FF80000
00002FF40000
00002FF40000
00003FF40000
00003FF00000
00003FF00000
00007FE00000
00007FE00000
0000BFD00000
0000BFD00000
0000FFC00000
0000FFC00000
0001FF800000
0001FF800000
0002FF800000
0002FF400000
0003FF400000
0003FF000000
0007FF000000
0007FE000000
0007FE000000
1AFFFFFE4000
7FFFFFFFC000
BFFFFFFF8000
7FFFFFFE0000
001FE0000000
003FC0000000
007F80000000
007F40000000
007FD0500000
007FFFF40000
002FFFF40000
000FFFE00000
0001BE800000
ENDCHAR
STARTCHAR iogonek
ENCODING 303
SWIDTH 246 0
DWIDTH 9 0
BBX 13 34 1 -9
BITMAP
01BD0000
07FF4000
0BFF8000
0BFF4000
0BFF0000
02F90000
00000000
00000000
02F40000
0BF80000
0FF40000
1FF40000
1FF00000
2FF00000
2FE00000
3FE00000
3FD00000
7FD00740
7FC01F40
7FC07F40
7FD1FF00
3FFBFD00
2FFFF400
1FFFD000
0BFE0000
2FF40000
7F800000
BF000000
FE000000
FE000000
FF414000
BFFFD000
2FFFD000
06FE4000
ENDCHAR
STARTCHAR Idotaccent
ENCODING 304
SWIDTH 495 0
DWIDTH 18 0
BBX 21 39 -1 0
BITMAP
000000BE0000
000003FF8000
000007FFC000
000007FFC000
000007FF4000
000001FD0000
000000000000
000000000000
001BFFFFFF40
003FFFFFFFC0
007FFFFFFF80
002FFFFFFE00
00000FFC0000
00001FF80000
00001FF80000
00002FF40000
00002FF40000
00003FF40000
00003FF00000
00003FF00000
00007FE00000
00007FE00000
0000BFD00000
0000BFD00000
0000FFC00000
0000FFC00000
0001FF800000
0001FF800000
0002FF800000
0002FF400000
0003FF400000
0003FF000000
0007FF000000
0007FE000000
0007FE000000
1AFFFFFE4000
7FFFFFFFC000
BFFFFFFF8000
7FFFFFFE0000
ENDCHAR
STARTCHAR dotlessi
ENCODING 305
SWIDTH 246 0
DWIDTH 9 0
BBX 13 17 1 0
BITMAP
02F40000
0BF80000
0FF40000
1FF40000
1FF00000
2FF00000
3FE00000
3FD00000
3FD00000
7FC00B40
7FC01F40
7FC07F40
7FD2FF00
3FFFFC00
2FFFF400
0FFF8000
06F90000
ENDCHAR
STARTCHAR Jcircumflex
ENCODING 308
SWIDTH 743 0
DWIDTH 27 0
BBX 26 46 2 -3
BITMAP
0000002F800000
000000FFF00000
000002FFF40000
000007FFF80000
00000FF6FC0000
00002FE1FE0000
00007FD1FF0000
0000FF80FF4000
0000FF00BF4000
0000BD002E0000
00000000000000
00000000000000
00006AFFFEA500
001BFFFFFFFF80
01FFFFFFFFFFE0
07FFFFFFFFFFD0
1FFE900007FF40
2FF400000BFE00
7FD000000BFD00
7FC000000BFD00
7FC000000FFD00
7FD000000FFC00
3FE000000FFC00
2FE000001FF800
0F8000001FF800
000000002FF400
000000007FF400
0000001BFFF000
000000BFFFF000
00000BFFFFE000
00007FFEBFD000
0001FFE4BFD000
0007FF40FFC000
001FFD00FF8000
003FF001FF4000
00BFD002FF0000
00FF8003FE0000
01FF4007FD0000
02FF000FF80000
02FF001FF40000
02FF007FE00000
02FF81FFC00000
01FFFFFF400000
00BFFFFD000000
002FFFF4000000
0006FE40000000
ENDCHAR
STARTCHAR jcircumflex
ENCODING 309
SWIDTH 254 0
DWIDTH 9 0
BBX 21 48 -8 -17
BITMAP
0000001BD000
0000007FF000
000000BFF400
000001FFF800
000003FAF800
00000BF6FC00
00000FE1FD00
00002FD1FD00
00007F81FE00
0000BF40FF00
0000FE00FF00
0000B8007D00
000000000000
000000000000
000001BD0000
000003FE0000
000003FD0000
000007FD0000
000007FD0000
000007FC0000
00000BFC0000
00000BF80000
00000BF80000
00000FF80780
00000FF42FC0
00000FF4BFC0
00001FF7FF40
00001FFFF900
00001FFFE000
00002FFF4000
00002FF80000
00007FD00000
0002FFC00000
000BFFC00000
002FFF800000
00FFBF400000
02F8FF400000
0BF0FF000000
1FC1FE000000
3F42FD000000
7F03FC000000
BE07F8000000
FD0FF0000000
FE2FE0000000
FFFFC0000000
FFFF40000000
7FFE00000000
1BE400000000
ENDCHAR
STARTCHAR uni0136
ENCODING 310
SWIDTH 937 0
DWIDTH 34 0
BBX 38 41 1 -10
BITMAP
0001AFFE9000001B8000
001FFFFFFE00007FE000
00BFFFFFFF4000BFE000
02FFFFFFFF4000FFD000
0BFF401FFE0001FFC000
0FF8002FF80002FF8000
1FF0002FF40007FF0000
2FE0002FF4000BFE0000
2FE0003FF0001FFD0000
2FE0003FF0002FF80000
1FF4007FF0007FF00000
0FF4007FE001FFD00000
0BF4007FE007FF400000
029000BFD02FFD000000
000000BFD6FFF4000000
00000FFFFFFF80000000
00002FFFFFF900000000
00002FFFFFE400000000
00001BFFFFFE00000000
000001FF8BFF80000000
000002FF42FFC0000000
000002FF40FFE0000000
000003FF00BFF4000000
780007FE003FF80002C0
FE000BFE002FFD0007D0
FF400FFD000FFE001FD0
FFD07FF8000BFF80BF80
7FFFFFF40003FFFFFF00
2FFFFFD00001FFFFFC00
0BFFFF4000007FFFE000
01AFE40000000BFE4000
00000000000000000000
00000000000000000000
00000000000000000000
00000001F40000000000
00000003FC0000000000
00000007FC0000000000
00000007F80000000000
00000007F40000000000
00000007F00000000000
00000002D00000000000
ENDCHAR
STARTCHAR uni0137
ENCODING 311
SWIDTH 525 0
DWIDTH 19 0
BBX 22 45 2 -11
BITMAP
0001BD000000
000BFF400000
002FFFC00000
007FFFD00000
00BF5FD00000
01FE0FD00000
02FD0FD00000
03FC0FD00000
07F81FC00000
0BF42F800000
0FF03F400000
1FF07F000000
2FE0FE000000
2FD1FC000000
3FD3F4000000
3FCBE0000000
7FEFC0000000
7FFF47F40000
BFFE3FFE0000
BFF8FFFF0000
BFF3FFFF4000
FFCBFFFF4000
FF4FE1FF4000
FF6F80FF0000
FF7F01FE0000
FFFD07FC0000
FFF86FF401D0
FFF5FF8007E0
FFF1FF401FD0
FFE1FF90BFC0
FFD0FFFFFF40
BFC0BFFFFD00
7F802FFFF000
2E0006FE4000
000000000000
000000000000
002E00000000
00BF40000000
00FF40000000
00FF40000000
00FF00000000
00FE00000000
00FD00000000
00FC00000000
00B400000000
ENDCHAR
STARTCHAR kgreenlandic
ENCODING 312
SWIDTH 465 0
DWIDTH 17 0
BBX 21 17 1 0
BITMAP
02F406F90000
0BF43FFF4000
0FF4FFFF8000
1FF2FFFFC000
2FE7FD2FC000
2FEBF82FC000
3FDFF02F8000
3FEFE01E0000
3FEFE0000000
3FFFE0000B40
7FFFF0002F40
7FFFF400BF40
3FFFFD06FE00
3FF7FFFFFC00
3FE1FFFFF000
2FD07FFF8000
0B800BF90000
ENDCHAR
STARTCHAR Lacute
ENCODING 313
SWIDTH 673 0
DWIDTH 24 0
BBX 31 42 -2 0
BITMAP
0000000000000540
0000000000002FD0
000000000000BFE0
000000000002FFE0
00000000001FFFC0
00000000007FFE00
0000000001FFE000
0000000003FE0000
0000000002E00000
0000000000000000
0000000000000000
000000006FFA4000
0000000BFFFFE000
0000007FFFFFF800
000001FFFFFFFD00
000007FFD00BFF00
00000FFE0002FF40
00002FFC0001FF40
00003FF40001FF40
00007FF00001FF40
0000BFE00002FF40
0000FFD00002FF00
0000FFD00001FD00
0000FFC000005000
0001FFC000000000
0001FFC000000000
0001FF8000000000
0001FF8000000000
0001FF8000000000
0001FF4000000000
0002FF4000000000
0002FF4000000000
0002FF0000000000
0002FF0000000000
0002FF0000000024
01BFFF94000001FC
1FFFFFFFE9405BF8
3FFFFFFFFFFFFFF4
7FFFFBFFFFFFFFE0
7FFFE06FFFFFFF80
3FFF8001FFFFFD00
06F900001AFF9000
ENDCHAR
STARTCHAR lacute
ENCODING 314
SWIDTH 326 0
DWIDTH 12 0
BBX 20 45 2 0
BITMAP
0000000050
00000002FC
0000001FFD
0000007FFD
000001FFF8
00000BFFD0
00002FFD00
00007FD000
00003D0000
0000000000
0000000000
0001BD0000
000BFF4000
002FFFC000
007FFFC000
00BF5FD000
01FE0FD000
02FD0FD000
03FC0FD000
07F81FD000
0BF41FC000
0FF01FC000
1FE02F8000
2FE03F4000
3FD07F0000
3FD0BE0000
7FC0FD0000
7FC1FC0000
BF83F40000
BF87F00000
BF8FE00000
FF5FC00000
FFBF400000
FFFE000000
FFFD000000
FFF8000000
FFF0000000
BFD000B400
BF8002F400
7FC00BF400
3FE06FE000
2FFFFFC000
1FFFFE0000
07FFF80000
01BF900000
ENDCHAR
STARTCHAR uni013B
ENCODING 315
SWIDTH 673 0
DWIDTH 24 0
BBX 31 41 -2 -10
BITMAP
000000006FFA4000
0000000BFFFFE000
0000007FFFFFF800
000001FFFFFFFD00
000007FFD00BFF00
00000FFE0002FF40
00002FFC0001FF40
00003FF40001FF40
00007FF00001FF40
0000BFE00002FF40
0000FFD00002FF00
0000FFD00001FD00
0000FFC000005000
0001FFC000000000
0001FFC000000000
0001FF8000000000
0001FF8000000000
0001FF8000000000
0001FF4000000000
0002FF4000000000
0002FF4000000000
0002FF0000000000
0002FF0000000000
0002FF0000000024
01BFFF94000001FC
1FFFFFFFE9405BF8
3FFFFFFFFFFFFFF4
7FFFFBFFFFFFFFE0
7FFFE06FFFFFFF80
3FFF8001FFFFFD00
06F900001AFF9000
0000000000000000
0000000000000000
0000000000000000
000001B800000000
000002FD00000000
000003FD00000000
000003FC00000000
000003F800000000
000003F400000000
000002E000000000
ENDCHAR
STARTCHAR uni013C
ENCODING 316
SWIDTH 326 0
DWIDTH 12 0
BBX 15 45 2 -11
BITMAP
0001BD00
000BFF40
002FFFC0
007FFFC0
00BF5FD0
01FE0FD0
02FD0FD0
03FC0FD0
07F81FD0
0BF41FC0
0FF01FC0
1FE02F80
2FE03F40
3FD07F00
3FD0BE00
7FC0FD00
7FC1FC00
BF83F400
BF87F000
BF8FE000
FF5FC000
FFBF4000
FFFE0000
FFFD0000
FFF80000
FFF00000
BFD000B4
BF8002F4
7FC00BF4
3FE06FE0
2FFFFFC0
1FFFFE00
07FFF800
01BF9000
00000000
00000000
02E00000
0BF40000
0FF40000
0FF40000
0FF00000
0FE00000
0FD00000
0FC00000
0B400000
ENDCHAR
STARTCHAR Lcaron
ENCODING 317
SWIDTH 673 0
DWIDTH 24 0
BBX 34 31 -2 0
BITMAP
000000006FFA400040
0000000BFFFFE00BE0
0000007FFFFFF80FF0
000001FFFFFFFD1FF0
000007FFD00BFF1FE0
00000FFE0002FF5FD0
00002FFC0001FF5FC0
00003FF40001FF5F80
00007FF00001FF5F40
0000BFE00002FF4000
0000FFD00002FF0000
0000FFD00001FD0000
0000FFC00000500000
0001FFC00000000000
0001FFC00000000000
0001FF800000000000
0001FF800000000000
0001FF800000000000
0001FF400000000000
0002FF400000000000
0002FF400000000000
0002FF000000000000
0002FF000000000000
0002FF000000002400
01BFFF94000001FC00
1FFFFFFFE9405BF800
3FFFFFFFFFFFFFF400
7FFFFBFFFFFFFFE000
7FFFE06FFFFFFF8000
3FFF8001FFFFFD0000
06F900001AFF900000
ENDCHAR
STARTCHAR lcaron
ENCODING 318
SWIDTH 237 0
DWIDTH 9 0
BBX 15 34 1 0
BITMAP
00000040
000003F4
00000BF8
00054BF8
003FCBF4
007FDBF0
00BFCBE0
00FFCFD0
01FF8B80
01FF4000
02FF4000
03FF0000
03FE0000
07FE0000
07FD0000
0BFC0000
0BFC0000
0FF80000
1FF40000
1FF40000
2FF00000
2FE00000
3FE00000
3FD00000
3FD00000
7FC00500
7FC01F00
7FC03F00
7FC0BF00
7FC2FD00
7FFFF800
3FFFE000
1FFF8000
06F90000
ENDCHAR
STARTCHAR Ldot
ENCODING 319
SWIDTH 673 0
DWIDTH 24 0
BBX 31 31 -2 0
BITMAP
000000006FFA4000
0000000BFFFFE000
0000007FFFFFF800
000001FFFFFFFD00
000007FFD00BFF00
00000FFE0002FF40
00002FFC0001FF40
00003FF40001FF40
00007FF00001FF40
0000BFE00002FF40
0000FFD00002FF00
0000FFD00001FD00
0000FFC000005000
0001FFC000000000
0001FFC01BD00000
0001FF807FF40000
0001FF80BFF40000
0001FF80FFF40000
0001FF40BFF00000
0002FF402F800000
0002FF4000000000
0002FF0000000000
0002FF0000000000
0002FF0000000024
01BFFF94000001FC
1FFFFFFFE9405BF8
3FFFFFFFFFFFFFF4
7FFFFBFFFFFFFFE0
7FFFE06FFFFFFF80
3FFF8001FFFFFD00
06F900001AFF9000
ENDCHAR
STARTCHAR ldot
ENCODING 320
SWIDTH 363 0
DWIDTH 13 0
BBX 17 34 1 0
BITMAP
0007E00000
001FF40000
002FF00000
003FF00000
007FE00000
007FD00000
00BFC00000
00FFC00000
00FF800000
01FF400000
02FF400000
02FF000000
03FE000000
07FE000000
07FD2F4000
0BFCBFD000
0BFDFFE000
0FF9FFD000
1FF4FFC000
1FF47E4000
2FF0000000
2FE0000000
3FE0000000
3FE0000000
3FD0000000
7FD0000000
7FD0000780
7FE0001F80
3FF0007F80
3FF806FF00
1FFFFFFD00
0FFFFFF400
02FFFF8000
006FF90000
ENDCHAR
STARTCHAR Lslash
ENCODING 321
SWIDTH 673 0
DWIDTH 24 0
BBX 31 37 -2 0
BITMAP
000000005AFFE900
0000001BFFFFFF80
000001BFFFFFFFD0
000003FFFFFFFFD0
000007FFE5000540
000007F900000000
0000014000000000
000000006FFA4000
0000000BFFFFE000
0000007FFFFFF800
000001FFFFFFFD00
000007FFD00BFF00
00000FFE0002FF40
00002FF80001FF40
00003FF40001FF40
00007FE00001FF40
0000BFD00002FF40
0000FFD00002FE00
0000FFC00001FD00
0001FFC000001000
0001FFC000000000
0001FF8000000000
0001FF8000000000
0001FF8000000000
0001FF4000000000
0002FF4000000000
0002FF4000000000
0002FF0000000000
0002FF0000000000
0002FF0000000024
01BFFF94000001FC
1FFFFFFFE9405BF8
3FFFFFFFFFFFFFF4
7FFFFBFFFFFFFFE0
7FFFE06FFFFFFF80
3FFF8001FFFFFD00
06F900001AFF9000
ENDCHAR
STARTCHAR lslash
ENCODING 322
SWIDTH 326 0
DWIDTH 12 0
BBX 20 37 2 0
BITMAP
00006BFF90
001BFFFFF8
00BFFFFFFD
03FFFFFFFC
07FF940050
03F8000000
0041FD0000
000FFF4000
003FFFC000
00BFFFD000
01FF1FD000
02FD0FD000
07FC0FD000
0BF80FD000
0FF41FC000
1FF01FC000
2FE02F8000
3FD03F4000
3FC07F0000
7FC0BE0000
BFC1FC0000
BF82F80000
BF87F00000
FF8FD00000
FF6F800000
FFBF400000
FFFE000000
FFF8000000
FFF0000000
BFD000B400
BF8002F400
7FC00BF400
3FE06FE000
2FFFFFC000
1FFFFE0000
07FFF80000
01BF900000
ENDCHAR
STARTCHAR Nacute
ENCODING 323
SWIDTH 884 0
DWIDTH 32 0
BBX 37 42 0 0
BITMAP
00000000000005000000
0000000000002FC00000
000000000000FFD00000
000000000007FFD00000
00000000001FFF800000
00000000007FFD000000
0000000002FFD0000000
0000000003FD00000000
0000000002E000000000
00000000000000000000
00000000000000000000
0006FD00006FE8000000
007FFF8006FFFF400000
02FFFFC01FFFFFC00000
0BFFFFD07FFFFFD00000
2FE4BFD0FF41FFE00000
7F807FD2F800BFE00000
FE007FD7E0007FE00000
F8007FDBC0007FE00000
6000BFDF4000BFE00000
0000BFEE0000BFD00000
0000BFFD0000FFD00000
0000FFF80000FFC00000
0000FFF40001FFC00000
0000FFF00002FF800000
0001FFE00002FF400000
0001FFD00003FF400000
0002FFC00007FF000000
0002FFC00007FF000000
0003FF80000BFE000000
0003FF40000BFD000000
0007FF00000FFD000000
0007FF00000FFC000000
000BFE00001FFC000000
000BFE00001FFC000740
000BFD00001FFC001F40
000FFD00001FFC007F40
000FFC00000FFE02FF00
000FFC00000BFFFFFC00
000FFC000003FFFFF400
000FF8000001FFFF8000
0007E00000002BF90000
ENDCHAR
STARTCHAR nacute
ENCODING 324
SWIDTH 496 0
DWIDTH 18 0
BBX 22 30 1 0
BITMAP
0000002E0000
0000007F8000
000000FFC000
000001FF8000
000002FF0000
000003FD0000
00000BF40000
00000FE00000
00001FC00000
00002F400000
00002D000000
000000000000
000000000000
02F402F80000
0BF41FFD0000
0FF47FFE0000
1FF1FFFE0000
2FE3FFFD0000
2FE7FBFD0000
3FDFD7FC0000
3FEF87F80000
3FFF0BF80000
3FFD0BF402D0
7FFC0FF40BD0
7FF80FF01FD0
3FF41FF4BFC0
3FF01FFFFF00
3FE00FFFFC00
2FD00BFFE000
0B8002FE4000
ENDCHAR
STARTCHAR uni0145
ENCODING 325
SWIDTH 884 0
DWIDTH 32 0
BBX 37 41 0 -10
BITMAP
0006FD00006FE8000000
007FFF8006FFFF400000
02FFFFC01FFFFFC00000
0BFFFFD07FFFFFD00000
2FE4BFD0FF41FFE00000
7F807FD2F800BFE00000
FE007FD7E0007FE00000
F8007FDBC0007FE00000
6000BFDF4000BFE00000
0000BFEE0000BFD00000
0000BFFD0000FFD00000
0000FFF80000FFC00000
0000FFF40001FFC00000
0000FFF00002FF800000
0001FFE00002FF400000
0001FFD00003FF400000
0002FFC00007FF000000
0002FFC00007FF000000
0003FF80000BFE000000
0003FF40000BFD000000
0007FF00000FFD000000
0007FF00000FFC000000
000BFE00001FFC000000
000BFE00001FFC000740
000BFD00001FFC001F40
000FFD00001FFC007F40
000FFC00000FFE02FF00
000FFC00000BFFFFFC00
000FFC000003FFFFF400
000FF8000001FFFF8000
0007E00000002BF90000
00000000000000000000
00000000000000000000
00000000000000000000
0000001F800000000000
0000002FD00000000000
0000003FD00000000000
0000003FC00000000000
0000003F800000000000
0000003F400000000000
0000002E000000000000
ENDCHAR
STARTCHAR uni0146
ENCODING 326
SWIDTH 496 0
DWIDTH 18 0
BBX 22 28 1 -11
BITMAP
02F402F80000
0BF41FFD0000
0FF47FFE0000
1FF1FFFE0000
2FE3FFFD0000
2FE7FBFD0000
3FDFD7FC0000
3FEF87F80000
3FFF0BF80000
3FFD0BF402D0
7FFC0FF40BD0
7FF80FF01FD0
3FF41FF4BFC0
3FF01FFFFF00
3FE00FFFFC00
2FD00BFFE000
0B8002FE4000
000000000000
000000000000
000B80000000
002FD0000000
003FD0000000
003FD0000000
003FC0000000
003F80000000
003F40000000
003F00000000
002D00000000
ENDCHAR
STARTCHAR Ncaron
ENCODING 327
SWIDTH 884 0
DWIDTH 32 0
BBX 37 42 0 0
BITMAP
00000001F400B8000000
00000003F802FC000000
00000002FD07F8000000
00000001FE0FF0000000
00000000BF2FD0000000
000000007FBF80000000
000000002FFF00000000
000000001FFC00000000
0000000007E000000000
00000000000000000000
00000000000000000000
0006FD00006FE8000000
007FFF8006FFFF400000
02FFFFC01FFFFFC00000
0BFFFFD07FFFFFD00000
2FE4BFD0FF41FFE00000
7F807FD2F800BFE00000
FE007FD7E0007FE00000
F8007FDBC0007FE00000
6000BFDF4000BFE00000
0000BFEE0000BFD00000
0000BFFD0000FFD00000
0000FFF80000FFC00000
0000FFF40001FFC00000
0000FFF00002FF800000
0001FFE00002FF400000
0001FFD00003FF400000
0002FFC00007FF000000
0002FFC00007FF000000
0003FF80000BFE000000
0003FF40000BFD000000
0007FF00000FFD000000
0007FF00000FFC000000
000BFE00001FFC000000
000BFE00001FFC000740
000BFD00001FFC001F40
000FFD00001FFC007F40
000FFC00000FFE02FF00
000FFC00000BFFFFFC00
000FFC000003FFFFF400
000FF8000001FFFF8000
0007E00000002BF90000
ENDCHAR
STARTCHAR ncaron
ENCODING 328
SWIDTH 496 0
DWIDTH 18 0
BBX 22 31 1 0
BITMAP
0007D006E000
000FE00FF000
000FF01FE000
000FF03FC000
000BF07F8000
0007F4FF0000
0003F5FD0000
0003FBF80000
0002FFF40000
0001FFE00000
0000FFC00000
00007E000000
000000000000
000000000000
02F402F80000
0BF41FFD0000
0FF47FFE0000
1FF1FFFE0000
2FE3FFFD0000
2FE7FBFD0000
3FDFD7FC0000
3FEF87F80000
3FFF0BF80000
3FFD0BF402D0
7FFC0FF40BD0
7FF80FF01FD0
3FF41FF4BFC0
3FF01FFFFF00
3FE00FFFFC00
2FD00BFFE000
0B8002FE4000
ENDCHAR
STARTCHAR napostrophe
ENCODING 329
SWIDTH 496 0
DWIDTH 18 0
BBX 23 28 0 0
BITMAP
2E0000000000
BF4000000000
FF4000000000
FF4000000000
FF0000000000
FE0000000000
FD0000000000
FC0000000000
B40000000000
000000000000
000000000000
00BD00BE0000
02FD07FF4000
03FD1FFF8000
07FC7FFF8000
0BF8FFFF4000
0BF9FEFF4000
0FF7F5FF0000
0FFBE1FE0000
0FFFC2FE0000
0FFF42FD00B4
1FFF03FD02F4
1FFE03FC07F4
0FFD07FD2FF0
0FFC07FFFFC0
0FF803FFFF00
0BF402FFF800
02E000BF9000
ENDCHAR
STARTCHAR Eng
ENCODING 330
SWIDTH 884 0
DWIDTH 32 0
BBX 37 44 0 -13
BITMAP
0006FD00006FE8000000
007FFF8002FFFF000000
02FFFFC01FFFFF800000
0BFFFFD07FFFFFD00000
1FFFFFD0FFFFFFD00000
7FE4BFD2FF41FFE00000
BF807FD7F800BFE00000
FE007FDBE000BFE00000
F8007FDFC000BFE00000
6000BFEF4000BFD00000
0000BFFE0000BFD00000
0000BFFD0000FFC00000
0000FFF80001FFC00000
0000FFF40001FF800000
0001FFF00002FF400000
0001FFE00003FF400000
0001FFD00003FF000000
0002FFC00007FE000000
0002FF80000BFE000000
0003FF40000BFD000000
0003FF40000FFC000000
0007FF00000FFC000000
0007FF00001FF8000000
000BFE00002FF4000600
000BFD00002FF4001F40
000FFD00003FF0007F40
000FFD00007FF901FF00
000FFC00007FFFFFFD00
000FFC0000BFFFFFF400
000FF80000FFFFFF8000
0007E00000FF9BF90000
0000000001FF40000000
0000000002FF00000000
0000000003FE00000000
0000000007FD00000000
000000000BFC00000000
000290000FF800000000
000BF0001FF000000000
000FF8003FE000000000
000BFF41FFC000000000
0003FFFFFF4000000000
0001FFFFFD0000000000
00002FFFF40000000000
000006BE400000000000
ENDCHAR
STARTCHAR eng
ENCODING 331
SWIDTH 495 0
DWIDTH 18 0
BBX 22 28 1 -11
BITMAP
02F402F80000
0BF41FFD0000
0FF47FFE0000
1FF1FFFD0000
2FE3FFFD0000
2FE7FBFC0000
3FDFD7FC0000
3FEF87F80000
3FFF0BF80000
3FFD0BF402D0
7FFC0FF00BD0
7FF81FF02FD0
3FF41FE0BF80
3FF02FFFFF00
3FE02FFFFC00
2FD03FFFE000
0B807FFE4000
0000BF400000
0000BF000000
0000FE000000
0001FD000000
1402FC000000
BD07F8000000
FE0BF0000000
BF2FD0000000
7FFF80000000
2FFE00000000
0BE400000000
ENDCHAR
STARTCHAR Omacron
ENCODING 332
SWIDTH 816 0
DWIDTH 29 0
BBX 27 37 2 0
BITMAP
000007FFFF8000
00000FFFFFD000
00000FFFFFD000
00000BFFFF8000
00000000000000
00000000000000
000001BFE90000
00002FFFFFD000
0002FFFFFFF800
000BFFFFFFFE00
002FFE402FFF40
00BFF40003FFC0
01FFD00001FFE0
03FF400000BFF0
0BFE0000007FF4
0FFD0000003FF4
1FFC0000002FF8
2FF80000002FF8
3FF40000002FF8
7FF00000002FF8
7FF00000002FF8
BFE00000002FF8
BFE00000002FF4
BFE00000003FF4
BFE00000007FF0
BFE00000007FE0
BFE0000000BFD0
7FF0000001FFC0
7FF4000002FF80
3FF8000007FF00
2FFD00001FFD00
0FFF40007FF800
07FFE006FFE000
02FFFFFFFF8000
00BFFFFFFE0000
001FFFFFE40000
0001AFF9000000
ENDCHAR
STARTCHAR omacron
ENCODING 333
SWIDTH 451 0
DWIDTH 16 0
BBX 20 23 1 0
BITMAP
01FFFFE000
03FFFFF400
07FFFFF400
02FFFFE000
0000000000
0000000000
001BF80000
01FFFF4000
07FFFFD000
0FFFFFE000
2FF4FFF400
3FE0FFF415
7FC0BFFFFF
BF807FFFFF
BF801FFFFE
BF800BFFA4
BFC00FF000
BFD01FE000
7FE07FD000
2FFFFF8000
1FFFFF0000
07FFFD0000
00BF900000
ENDCHAR
STARTCHAR Obreve
ENCODING 334
SWIDTH 816 0
DWIDTH 29 0
BBX 27 40 2 0
BITMAP
00001500001400
00007F8001FE00
00007FE007FD00
00003FFFFFFC00
00001FFFFFF400
000007FFFFD000
0000006FF90000
00000000000000
00000000000000
000001BFE90000
00002FFFFFD000
0002FFFFFFF800
000BFFFFFFFE00
002FFE402FFF40
00BFF40003FFC0
01FFD00001FFE0
03FF400000BFF0
0BFE0000007FF4
0FFD0000003FF4
1FFC0000002FF8
2FF80000002FF8
3FF40000002FF8
7FF00000002FF8
7FF00000002FF8
BFE00000002FF8
BFE00000002FF4
BFE00000003FF4
BFE00000007FF0
BFE00000007FE0
BFE0000000BFD0
7FF0000001FFC0
7FF4000002FF80
3FF8000007FF00
2FFD00001FFD00
0FFF40007FF800
07FFE006FFE000
02FFFFFFFF8000
00BFFFFFFE0000
001FFFFFE40000
0001AFF9000000
ENDCHAR
STARTCHAR obreve
ENCODING 335
SWIDTH 451 0
DWIDTH 16 0
BBX 20 27 1 0
BITMAP
0B80002E00
1FE0007F40
1FF000FF40
1FFD07FF00
0BFFFFFD00
03FFFFF800
01FFFFD000
001BFA0000
0000000000
0000000000
001BF80000
01FFFF4000
07FFFFD000
0FFFFFE000
2FF4FFF400
3FE0FFF415
7FC0BFFFFF
BF807FFFFF
BF801FFFFE
BF800BFFA4
BFC00FF000
BFD01FE000
7FE07FD000
2FFFFF8000
1FFFFF0000
07FFFD0000
00BF900000
ENDCHAR
STARTCHAR Ohungarumlaut
ENCODING 336
SWIDTH 816 0
DWIDTH 29 0
BBX 27 42 2 0
BITMAP
00000015005000
0000003F42FC00
000000BF83FD00
000000BF87FC00
000000FF4BF800
000001FE0FF000
000002FC0FD000
000003F41F8000
000002E00F4000
00000000000000
00000000000000
000001BFE90000
00002FFFFFD000
0002FFFFFFF800
000BFFFFFFFE00
002FFE402FFF40
00BFF40003FFC0
01FFD00001FFE0
03FF400000BFF0
0BFE0000007FF4
0FFD0000003FF4
1FFC0000002FF8
2FF80000002FF8
3FF40000002FF8
7FF00000002FF8
7FF00000002FF8
BFE00000002FF8
BFE00000002FF4
BFE00000003FF4
BFE00000007FF0
BFE00000007FE0
BFE0000000BFD0
7FF0000001FFC0
7FF4000002FF80
3FF8000007FF00
2FFD00001FFD00
0FFF40007FF800
07FFE006FFE000
02FFFFFFFF8000
00BFFFFFFE0000
001FFFFFE40000
0001AFF9000000
ENDCHAR
STARTCHAR ohungarumlaut
ENCODING 337
SWIDTH 451 0
DWIDTH 16 0
BBX 20 30 1 0
BITMAP
0002E01F40
000BF83FC0
000FF87FD0
001FF4BFC0
002FF0FF40
002FD1FF00
003F82FD00
007F03F800
00BE07F000
00FC07D000
00B4078000
0000000000
0000000000
001BF80000
01FFFF4000
07FFFFD000
0FFFFFE000
2FF4FFF400
3FE0FFF415
7FC0BFFFFF
BF807FFFFF
BF801FFFFE
BF800BFFA4
BFC00FF000
BFD01FE000
7FE07FD000
2FFFFF8000
1FFFFF0000
07FFFD0000
00BF900000
ENDCHAR
STARTCHAR OE
ENCODING 338
SWIDTH 1124 0
DWIDTH 40 0
BBX 43 31 2 0
BITMAP
000001BFE90002FFFFFF40
00002FFFFF800BFFFFFF80
0002FFFFFFF42FFFFFFF80
000BFFFFFFFD3FFFFFFF40
002FFE402FFF7FFFFFFE00
00BFF40003FFFFE0000000
01FFD00001FFFFC0000000
03FF800000BFFFC0000000
0BFF0000007FFF80000000
0FFD0000003FFF40000000
1FFC0000002FFF00000000
2FF80000002FFF00000000
3FF40000002FFE00000000
7FF00000002FFFFFFFE000
7FF00000002FFFFFFFF400
BFE00000002FFFFFFFF000
BFE00000002FFFFFFF9000
BFE00000003FF800000000
BFE00000007FF400000000
BFE00000007FF400000000
BFE0000000BFF400000000
7FF0000001FFF400000000
7FF4000002FFF400000000
3FF8000007FFF800000000
2FFD00001FFFFD00000068
0FFF40007FFFFF000006FC
07FFE006FFEBFFE401BFFC
02FFFFFFFF83FFFFFFFFF4
00BFFFFFFD00FFFFFFFFD0
001FFFFFE0002FFFFFFD00
0001AFF9000001AFFA4000
ENDCHAR
STARTCHAR oe
ENCODING 339
SWIDTH 668 0
DWIDTH 24 0
BBX 28 17 1 0
BITMAP
002BE401BE4000
01FFFE0BFFE000
07FFFFAFFFF400
0FFFFFFFFFF800
2FF43FFF47F800
3FD01FFD03F800
7FC00FFC07F400
BF800FF81FF000
BF800FF9BFD004
BF800FFFFE402E
BF801FFFE400BE
BFC02FFD0007FE
7FE0BFFF406FFC
3FFFFFFFFFFFF4
1FFFFEBFFFFF80
07FFF82FFFFD00
00BF9006FF9000
ENDCHAR
STARTCHAR Racute
ENCODING 340
SWIDTH 880 0
DWIDTH 32 0
BBX 35 42 2 0
BITMAP
000000000001400000
00000000001FE00000
00000000007FF00000
0000000002FFF00000
000000000BFFD00000
000000002FFE000000
00000000FFE4000000
00000002FE40000000
00000001E400000000
000000000000000000
000000000000000000
0000016FFE90000000
00001FFFFFFD000000
0001FFFFFFFF800000
000BFFFFFFFFE00000
002FFE4006FFF40000
00BFE00000BFF80000
01FF8000002FFC0000
03FE01FD001FFC0000
0BF803FE001FFC0000
0FF007FE001FFC0000
1FE00BFE002FF80000
2FD00BFD003FF40000
3FC00FFD00BFE00000
7F800FFC02FFC00000
BF401FF81FFF400000
BF41FFFFFFF8000000
FF03FFFFFF90000000
FF03FFFFFD00000000
FF01FFFFFF80000000
FF003FF6FFE0000000
FF007FE0BFF4000000
FF007FE03FF8000000
BF00BFD01FFD000010
BF40BFD00FFE0000B4
7F80FFC007FF4002F4
3FC0FFC003FFC00BF0
2FE1FF8001FFE02FE0
0FFFFF8000FFFFFF80
07FFFF40007FFFFE00
01FFFE00001FFFF800
001BF4000002FF9000
ENDCHAR
STARTCHAR racute
ENCODING 341
SWIDTH 455 0
DWIDTH 16 0
BBX 21 30 1 0
BITMAP
0000007D0000
000001FF0000
000002FF0000
000003FF0000
00000BFD0000
00000FF40000
00001FE00000
00002FC00000
00007F400000
0000BD000000
000078000000
000000000000
000000000000
02F402F80000
0BF41FFD0000
0FF47FFE0000
1FF0FFFD0000
2FE2FFFD0000
2FE7FFFC0000
3FDFD7FC0B40
3FEF87FD2F40
3FFF07FFFF40
3FFE07FFFE00
7FFC02FFF400
7FF8006E8000
3FF400000000
3FF000000000
3FE000000000
2FD000000000
0B8000000000
ENDCHAR
STARTCHAR uni0156
ENCODING 342
SWIDTH 880 0
DWIDTH 32 0
BBX 35 41 2 -10
BITMAP
0000016FFE90000000
00001FFFFFFD000000
0001FFFFFFFF800000
000BFFFFFFFFE00000
002FFE4006FFF40000
00BFE00000BFF80000
01FF8000002FFC0000
03FE01FD001FFC0000
0BF803FE001FFC0000
0FF007FE001FFC0000
1FE00BFE002FF80000
2FD00BFD003FF40000
3FC00FFD00BFE00000
7F800FFC02FFC00000
BF401FF81FFF400000
BF41FFFFFFF8000000
FF03FFFFFF90000000
FF03FFFFFD00000000
FF01FFFFFF80000000
FF003FF6FFE0000000
FF007FE0BFF4000000
FF007FE03FF8000000
BF00BFD01FFD000010
BF40BFD00FFE0000B4
7F80FFC007FF4002F4
3FC0FFC003FFC00BF0
2FE1FF8001FFE02FE0
0FFFFF8000FFFFFF80
07FFFF40007FFFFE00
01FFFE00001FFFF800
001BF4000002FF9000
000000000000000000
000000000000000000
000000000000000000
0000000B9000000000
0000001FE000000000
0000002FE000000000
0000002FD000000000
0000002FC000000000
0000002F8000000000
0000001F4000000000
ENDCHAR
STARTCHAR uni0157
ENCODING 343
SWIDTH 455 0
DWIDTH 16 0
BBX 21 28 1 -11
BITMAP
02F402F80000
0BF41FFD0000
0FF47FFE0000
1FF0FFFD0000
2FE2FFFD0000
2FE7FFFC0000
3FDFD7FC0B40
3FEF87FD2F40
3FFF07FFFF40
3FFE07FFFE00
7FFC02FFF400
7FF8006E8000
3FF400000000
3FF000000000
3FE000000000
2FD000000000
0B8000000000
000000000000
000000000000
1F4000000000
7FC000000000
7FC000000000
7F8000000000
7F4000000000
BF0000000000
BE0000000000
BD0000000000
780000000000
ENDCHAR
STARTCHAR Rcaron
ENCODING 344
SWIDTH 880 0
DWIDTH 32 0
BBX 35 42 2 0
BITMAP
000000B8007D000000
000001FD01FE000000
000001FE02FD000000
000000BF07F8000000
0000007F8FF0000000
0000002FEFD0000000
0000001FFF40000000
0000000BFE00000000
00000002F800000000
000000000000000000
000000000000000000
0000016FFE90000000
00001FFFFFFD000000
0001FFFFFFFF800000
000BFFFFFFFFE00000
002FFE4006FFF40000
00BFE00000BFF80000
01FF8000002FFC0000
03FE01FD001FFC0000
0BF803FE001FFC0000
0FF007FE001FFC0000
1FE00BFE002FF80000
2FD00BFD003FF40000
3FC00FFD00BFE00000
7F800FFC02FFC00000
BF401FF81FFF400000
BF41FFFFFFF8000000
FF03FFFFFF90000000
FF03FFFFFD00000000
FF01FFFFFF80000000
FF003FF6FFE0000000
FF007FE0BFF4000000
FF007FE03FF8000000
BF00BFD01FFD000010
BF40BFD00FFE0000B4
7F80FFC007FF4002F4
3FC0FFC003FFC00BF0
2FE1FF8001FFE02FE0
0FFFFF8000FFFFFF80
07FFFF40007FFFFE00
01FFFE00001FFFF800
001BF4000002FF9000
ENDCHAR
STARTCHAR rcaron
ENCODING 345
SWIDTH 455 0
DWIDTH 16 0
BBX 21 31 1 0
BITMAP
001F400B8000
003FC02FC000
003FC07FC000
002FD0BF4000
001FD1FE0000
001FD2FD0000
000FE7F80000
000BEBF00000
0007FFD00000
0007FFC00000
0002FF400000
0001B9000000
000000000000
000000000000
02F402F80000
0BF41FFD0000
0FF47FFE0000
1FF0FFFD0000
2FE2FFFD0000
2FE7FFFC0000
3FDFD7FC0B40
3FEF87FD2F40
3FFF07FFFF40
3FFE07FFFE00
7FFC02FFF400
7FF8006E8000
3FF400000000
3FF000000000
3FE000000000
2FD000000000
0B8000000000
ENDCHAR
STARTCHAR Sacute
ENCODING 346
SWIDTH 693 0
DWIDTH 25 0
BBX 24 42 1 0
BITMAP
000000000014
0000000001FE
000000000BFF
000000002FFE
00000000BFFD
00000003FFE0
0000001FFE00
0000002FE400
0000001E4000
000000000000
000000000000
00001AFFA400
0002FFFFFF80
001FFFFFFFE0
007FFFFFFFFC
00FFF9006FFD
02FF800007FE
03FF400002FF
03FF000002FF
07FE000003FF
07FF000003FE
03FF800002FD
02FFE0000064
01FFFD000000
00BFFFD00000
002FFFFE4000
0007FFFFE400
0000BFFFFE00
000006FFFF80
0000006FFFE0
05000002FFF0
3FC000007FF4
7FC000002FF8
BFC000001FF8
BFC000001FF4
BFC000002FF4
BFE00000BFF0
7FF90006FFD0
2FFFFFFFFF80
0BFFFFFFFE00
01FFFFFFE400
001AFFE90000
ENDCHAR
STARTCHAR sacute
ENCODING 347
SWIDTH 427 0
DWIDTH 15 0
BBX 21 31 -1 -1
BITMAP
0000001F4000
0000007FC000
000000BFC000
000000FFC000
000002FF4000
000003FD0000
000007F80000
00000FF00000
00001FD00000
00002F400000
00001E000000
000000000000
000000000000
00007F000000
0001FF000000
0002FE000000
0007FD000000
000BFC000000
000FFD000000
002FFF000000
003FFF800000
00BFFFD00000
01FD7FF00280
07F82FF80BC0
0FF00FFC2FC0
2FD00BFCBF80
7F47FFFFFF00
7E1FFFFFFC00
141FFFFFE000
000FFFFE4000
0002FE400000
ENDCHAR
STARTCHAR Scircumflex
ENCODING 348
SWIDTH 693 0
DWIDTH 25 0
BBX 24 43 1 0
BITMAP
0000001BD000
0000007FF400
000001FFFC00
000002FFFD00
000007FDFE00
00000FF4FF00
00002FE0BF40
00007FD07F80
0000BF803F80
00007E001E40
000000000000
000000000000
00001AFFA400
0002FFFFFF80
001FFFFFFFE0
007FFFFFFFFC
00FFF9006FFD
02FF800007FE
03FF400002FF
03FF000002FF
07FE000003FF
07FF000003FE
03FF800002FD
02FFE0000064
01FFFD000000
00BFFFD00000
002FFFFE4000
0007FFFFE400
0000BFFFFE00
000006FFFF80
0000006FFFE0
05000002FFF0
3FC000007FF4
7FC000002FF8
BFC000001FF8
BFC000001FF4
BFC000002FF4
BFE00000BFF0
7FF90006FFD0
2FFFFFFFFF80
0BFFFFFFFE00
01FFFFFFE400
001AFFE90000
ENDCHAR
STARTCHAR scircumflex
ENCODING 349
SWIDTH 427 0
DWIDTH 15 0
BBX 21 32 -1 -1
BITMAP
000007E00000
00002FF40000
00007FF80000
0000FFFC0000
0001FDFD0000
0003F8FE0000
000BF4FE0000
000FF0BF0000
002FD0BF4000
007FC0BF4000
00BF407F4000
007D002E0000
000000000000
000000000000
00007F000000
0001FF000000
0002FE000000
0007FD000000
000BFC000000
000FFD000000
002FFF000000
003FFF800000
00BFFFD00000
01FD7FF00280
07F82FF80BC0
0FF00FFC2FC0
2FD00BFCBF80
7F47FFFFFF00
7E1FFFFFFC00
141FFFFFE000
000FFFFE4000
0002FE400000
ENDCHAR
STARTCHAR Scedilla
ENCODING 350
SWIDTH 693 0
DWIDTH 25 0
BBX 24 40 1 -9
BITMAP
00001AFFA400
0002FFFFFF80
001FFFFFFFE0
007FFFFFFFFC
00FFF9006FFD
02FF800007FE
03FF000002FF
03FF000002FF
07FE000003FF
07FF000003FE
03FF800002FD
02FFE0000064
01FFFD000000
00BFFFE00000
002FFFFE4000
0007FFFFE400
00007FFFFE00
000006FFFF80
0000006FFFE0
05000002FFF0
3FC000007FF4
7FC000002FF8
BFC000001FF8
BFC000001FF4
BFC000002FF4
BFE00000BFF0
3FFD4017FFD0
2FFFFFFFFF80
0BFFFFFFFD00
01BFFFFFE000
001BFFF90000
0007FFF40000
00000BF80000
000003FC0000
000003F80000
00000BF80000
007FFFF40000
00BFFFE00000
00BFFF800000
002FF9000000
ENDCHAR
STARTCHAR scedilla
ENCODING 351
SWIDTH 427 0
DWIDTH 15 0
BBX 21 27 -1 -10
BITMAP
00007F000000
0001FF000000
0002FE000000
0007FD000000
000BFC000000
000FFD000000
002FFF000000
003FFF800000
00BFFFD00000
01FD7FF00280
07F82FF80BC0
0FF00FFC2FC0
2FD00BFCBF80
7F47FFFFFF00
7E1FFFFFFC00
141FFFFFE000
001FFFFE4000
003FFF800000
002FFFC00000
00006FD00000
00000FD00000
00001FD00000
00007FC00000
02FFFF800000
03FFFF400000
03FFFD000000
01BF90000000
ENDCHAR
STARTCHAR Scaron
ENCODING 352
SWIDTH 693 0
DWIDTH 25 0
BBX 24 42 1 0
BITMAP
00000B8007D0
00001FD01FE0
00001FE03FD0
00000FF0BF80
000007F5FE00
000003FAFC00
000001FFF400
000000BFE000
0000002F4000
000000000000
000000000000
00001AFFA400
0002FFFFFF80
001FFFFFFFE0
007FFFFFFFFC
00FFF9006FFD
02FF800007FE
03FF400002FF
03FF000002FF
07FE000003FF
07FF000003FE
03FF800002FD
02FFE0000064
01FFFD000000
00BFFFD00000
002FFFFE4000
0007FFFFE400
0000BFFFFE00
000006FFFF80
0000006FFFE0
05000002FFF0
3FC000007FF4
7FC000002FF8
BFC000001FF8
BFC000001FF4
BFC000002FF4
BFE00000BFF0
7FF90006FFD0
2FFFFFFFFF80
0BFFFFFFFE00
01FFFFFFE400
001AFFE90000
ENDCHAR
STARTCHAR scaron
ENCODING 353
SWIDTH 427 0
DWIDTH 15 0
BBX 21 32 -1 -1
BITMAP
0007D002E000
000FF00BF000
000FF01FF000
000BF42FD000
0007F47F8000
0007F4BF4000
0003F9FE0000
0002FAFC0000
0001FFF40000
0001FFF00000
0000FFD00000
00006E400000
000000000000
000000000000
00007F000000
0001FF000000
0002FE000000
0007FD000000
000BFC000000
000FFD000000
002FFF000000
003FFF800000
00BFFFD00000
01FD7FF00280
07F82FF80BC0
0FF00FFC2FC0
2FD00BFCBF80
7F47FFFFFF00
7E1FFFFFFC00
141FFFFFE000
000FFFFE4000
0002FE400000
ENDCHAR
STARTCHAR uni0162
ENCODING 354
SWIDTH 697 0
DWIDTH 25 0
BBX 32 40 1 -9
BITMAP
00005AAFFFFFFFA4
001BFFFFFFFFFFFD
01FFFFFFFFFFFFFD
0BFFFFFFFFFFFFFC
2FFE501FF8000000
7FE0002FF8000000
BFC0002FF4000000
BF80003FF4000000
BF80003FF0000000
BFC0007FF0000000
7FD000BFE0000000
3FD000BFE0000000
0A4000FFD0000000
000000FFC0000000
000001FFC0000000
000001FF80000000
000002FF80000000
000002FF40000000
000003FF40000000
000003FF00000000
000003FF00000000
000007FF00000000
000007FE00000000
00000BFE00000000
00000BFD00000000
00000FFD00000000
00000FFD00000000
00000FFC00000000
00001FFC00000000
0000BFF800000000
0000FFFD00000000
0000AFFF00000000
000000BF40000000
0000007F40000000
0000007F40000000
000001FF00000000
000BFFFE00000000
000FFFFC00000000
000FFFF400000000
0006FE4000000000
ENDCHAR
STARTCHAR uni0163
ENCODING 355
SWIDTH 393 0
DWIDTH 14 0
BBX 19 42 0 -10
BITMAP
000006E000
00002FF800
0000BFFD00
0001FFFE00
0003F8FE00
000BF4BE00
000FE0BE00
001FD0FD00
002FD0FD00
003FC1FC00
007F83F400
00BF87F000
00BF4FD000
00FF7F4000
01FFFE0000
7FFFFFFF00
FFFFFFFF00
FFFFFFFE00
7FFFFFE800
02FE000000
02FE000000
02FE000000
02FE000000
02FE000000
02FE000024
02FF0000B8
01FF4002F8
00FF800BF4
00BFF9BFE0
007FFFFF80
001FFFFE00
003FFFF400
00BFFF4000
006BFF4000
00007F8000
00002F8000
00003F8000
0001BF4000
07FFFF0000
0BFFFD0000
0BFFF40000
02BE800000
ENDCHAR
STARTCHAR Tcaron
ENCODING 356
SWIDTH 697 0
DWIDTH 25 0
BBX 32 42 1 0
BITMAP
0000007D002F0000
000000BF00BF4000
000000BF41FF0000
0000003F82FD0000
0000002FD7F80000
0000000FEFF00000
0000000BFFD00000
00000003FF400000
00000001B9000000
0000000000000000
0000000000000000
00001AAFFFFFFFA4
001BFFFFFFFFFFFD
01FFFFFFFFFFFFFD
0BFFFFFFFFFFFFFC
2FFE501FF8000000
3FE0002FF8000000
7FC0002FF4000000
BF80003FF4000000
BF80003FF0000000
BFC0007FF0000000
7FD000BFE0000000
3FD000BFE0000000
1F4000FFD0000000
000000FFD0000000
000001FFC0000000
000001FFC0000000
000002FF80000000
000002FF40000000
000002FF40000000
000003FF40000000
000003FF00000000
000007FF00000000
000007FE00000000
00000BFE00000000
00000BFD00000000
00000FFD00000000
00000FFD00000000
00000FFD00000000
00001FFC00000000
00000FFC00000000
000007E400000000
ENDCHAR
STARTCHAR tcaron
ENCODING 357
SWIDTH 343 0
DWIDTH 12 0
BBX 17 34 0 0
BITMAP
0000000400
0000003F40
0000007F80
000000BF80
000000BF40
000000BF00
0007E0BE00
000FF8BD00
001FF47800
002FF40000
003FF00000
003FE00000
007FD00000
00BFD00000
00BFC00000
00FF800000
3FFFFFF400
7FFFFFF400
7FFFFFF000
2FFFFF9000
03FE000000
03FE000000
03FD000000
07FD000000
07FC000000
07FC000000
0BFC000380
07FC000FC0
07FD003FC0
07FF41FF40
03FFFFFE00
01FFFFF800
00BFFFD000
001BF90000
ENDCHAR
STARTCHAR Tbar
ENCODING 358
SWIDTH 697 0
DWIDTH 25 0
BBX 32 31 1 0
BITMAP
000016AFFFFFFFA4
001BFFFFFFFFFFFD
01FFFFFFFFFFFFFD
0BFFFFFFFFFFFFFC
1FFE501FF8000000
3FE0002FF8000000
7FC0002FF4000000
BF80003FF4000000
BF80003FF0000000
BF80007FF0000000
7FD0007FE0000000
3FD000BFE0000000
1F8000BFD0000000
040000FFD0000000
0007FFFFFFF40000
001FFFFFFFFC0000
001FFFFFFFF80000
000BFFFFFFE00000
000002FF40000000
000003FF40000000
000003FF00000000
000007FF00000000
000007FE00000000
00000BFE00000000
00000BFE00000000
00000FFD00000000
00000FFD00000000
00000FFD00000000
00001FFC00000000
00000FFC00000000
000007E400000000
ENDCHAR
STARTCHAR tbar
ENCODING 359
SWIDTH 343 0
DWIDTH 12 0
BBX 18 28 -1 0
BITMAP
0001F80000
0003FE0000
0007FD0000
000BFD0000
000FFC0000
000FF80000
001FF40000
002FF40000
002FF00000
003FE00000
0FFFFFFD00
1FFFFFFD00
1FFFFFFC00
0BFFFFE400
00FF800000
00FF800000
2FFFFFE000
7FFFFFF000
7FFFFFE000
2FFFFE4000
02FF0000A0
02FF0003F0
01FF400BF0
01FFC07FD0
00FFFFFF80
007FFFFE00
002FFFF400
0006FE4000
ENDCHAR
STARTCHAR Utilde
ENCODING 360
SWIDTH 890 0
DWIDTH 32 0
BBX 37 40 0 0
BITMAP
00000002F80014000000
0000000FFF40BE000000
0000002FFFE1FE000000
0000007FFFFBFD000000
000000FF4BFFF8000000
000000FD01FFF0000000
00000014002F80000000
00000000000000000000
00000000000000000000
0006FE0000001B800000
007FFFC000002FE00000
02FFFFE000003FF00000
0BFFFFF000003FF00000
2FF47FF400007FF00000
7F803FF400007FF00000
FE003FF40000BFE00000
F8003FF00000BFE00000
60003FF00000FFD00000
00007FF00000FFD00000
0000BFE00001FFC00000
0000BFD00002FFC00000
0000FFD00003FF800000
0001FFC00003FF800000
0001FF800007FF400000
0002FF80000BFF400000
0002FF40000FFF000000
0003FF00002FFF000000
0007FF00003FFF000000
0007FE00007FFE000000
000BFD0000FBFE000000
000BFD0001FBFD000000
000FFC0007EBFD000240
000FFC000FDBFD000B80
000FFD003F8BFD001F80
000FFE42FF4BFE007F40
000FFFFFFE0BFF42FF00
000BFFFFF807FFFFFC00
0007FFFFE002FFFFF400
0001FFFF8000FFFF8000
00006FE900001BF90000
ENDCHAR
STARTCHAR utilde
ENCODING 361
SWIDTH 462 0
DWIDTH 17 0
BBX 21 26 1 0
BITMAP
002F80014000
00BFF407E000
02FFFE0FE000
03FEFFEFD000
0BF47FFF8000
0BE00BFF0000
014001F80000
000000000000
000000000000
02F401F80000
07F803F80000
0FF407F80000
0FF40BF40000
1FF00FF40000
2FE01FF00000
3FE02FE00000
3FD03FE00000
3FD0BFD00000
7FC0FFD00B00
7FC2FFC02F40
7FD7FFC0BF00
7FFFFFC2FE00
3FFF7FFFF800
2FFF3FFFE000
1FFD1FFF8000
07E40BF90000
ENDCHAR
STARTCHAR Umacron
ENCODING 362
SWIDTH 890 0
DWIDTH 32 0
BBX 37 37 0 0
BITMAP
00000007FFFF80000000
0000000FFFFFD0000000
0000001FFFFFD0000000
0000000BFFFF80000000
00000000000000000000
00000000000000000000
0006FE0000001B800000
007FFFC000002FE00000
02FFFFE000003FF00000
0BFFFFF000003FF00000
2FF47FF400007FF00000
7F803FF400007FF00000
FE003FF40000BFE00000
F8003FF00000BFE00000
60003FF00000FFD00000
00007FF00000FFD00000
0000BFE00001FFC00000
0000BFD00002FFC00000
0000FFD00003FF800000
0001FFC00003FF800000
0001FF800007FF400000
0002FF80000BFF400000
0002FF40000FFF000000
0003FF00002FFF000000
0007FF00003FFF000000
0007FE00007FFE000000
000BFD0000FBFE000000
000BFD0001FBFD000000
000FFC0007EBFD000240
000FFC000FDBFD000B80
000FFD003F8BFD001F80
000FFE42FF4BFE007F40
000FFFFFFE0BFF42FF00
000BFFFFF807FFFFFC00
0007FFFFE002FFFFF400
0001FFFF8000FFFF8000
00006FE900001BF90000
ENDCHAR
STARTCHAR umacron
ENCODING 363
SWIDTH 462 0
DWIDTH 17 0
BBX 21 23 1 0
BITMAP
007FFFF80000
00FFFFFD0000
00FFFFFD0000
00BFFFF80000
000000000000
000000000000
02F401F80000
07F803F80000
0FF407F80000
0FF40BF40000
1FF00FF40000
2FE01FF00000
3FE02FE00000
3FD03FE00000
3FD0BFD00000
7FC0FFD00B00
7FC2FFC02F40
7FD7FFC0BF00
7FFFFFC2FE00
3FFF7FFFF800
2FFF3FFFE000
1FFD1FFF8000
07E40BF90000
ENDCHAR
STARTCHAR Ubreve
ENCODING 364
SWIDTH 890 0
DWIDTH 32 0
BBX 37 40 0 0
BITMAP
00000015000014000000
0000007F4001FD000000
0000007FD00BFD000000
0000007FFFFFFC000000
0000002FFFFFF4000000
00000007FFFF90000000
000000006FF900000000
00000000000000000000
00000000000000000000
0006FE0000001B800000
007FFFC000002FE00000
02FFFFE000003FF00000
0BFFFFF000003FF00000
2FF47FF400007FF00000
7F803FF400007FF00000
FE003FF40000BFE00000
F8003FF00000BFE00000
60003FF00000FFD00000
00007FF00000FFD00000
0000BFE00001FFC00000
0000BFD00002FFC00000
0000FFD00003FF800000
0001FFC00003FF800000
0001FF800007FF400000
0002FF80000BFF400000
0002FF40000FFF000000
0003FF00002FFF000000
0007FF00003FFF000000
0007FE00007FFE000000
000BFD0000FBFE000000
000BFD0001FBFD000000
000FFC0007EBFD000240
000FFC000FDBFD000B80
000FFD003F8BFD001F80
000FFE42FF4BFE007F40
000FFFFFFE0BFF42FF00
000BFFFFF807FFFFFC00
0007FFFFE002FFFFF400
0001FFFF8000FFFF8000
00006FE900001BF90000
ENDCHAR
STARTCHAR ubreve
ENCODING 365
SWIDTH 462 0
DWIDTH 17 0
BBX 21 27 1 0
BITMAP
02F00007C000
07F8001FD000
07FD003FD000
03FF41BFC000
02FFFFFF8000
00FFFFFE0000
002FFFF80000
0006FE800000
000000000000
000000000000
02F401F80000
07F803F80000
0FF407F80000
0FF40BF40000
1FF00FF40000
2FE01FF00000
3FE02FE00000
3FD03FE00000
3FD0BFD00000
7FC0FFD00B00
7FC2FFC02F40
7FD7FFC0BF00
7FFFFFC2FE00
3FFF7FFFF800
2FFF3FFFE000
1FFD1FFF8000
07E40BF90000
ENDCHAR
STARTCHAR Uring
ENCODING 366
SWIDTH 890 0
DWIDTH 32 0
BBX 37 43 0 0
BITMAP
000000001BF400000000
000000007FFE00000000
00000000FFFF40000000
00000001FD2F80000000
00000002F81FC0000000
00000002F41FC0000000
00000002FC2F80000000
00000001FFFF40000000
00000000BFFD00000000
000000001BE400000000
00000000000000000000
00000000000000000000
0006FE0000001B800000
007FFFC000002FE00000
02FFFFE000003FF00000
0BFFFFF000003FF00000
2FF47FF400007FF00000
7F803FF400007FF00000
FE003FF40000BFE00000
F8003FF00000BFE00000
60003FF00000FFD00000
00007FF00000FFD00000
0000BFE00001FFC00000
0000BFD00002FFC00000
0000FFD00003FF800000
0001FFC00003FF800000
0001FF800007FF400000
0002FF80000BFF400000
0002FF40000FFF000000
0003FF00002FFF000000
0007FF00003FFF000000
0007FE00007FFE000000
000BFD0000FBFE000000
000BFD0001FBFD000000
000FFC0007EBFD000240
000FFC000FDBFD000B80
000FFD003F8BFD001F80
000FFE42FF4BFE007F40
000FFFFFFE0BFF42FF00
000BFFFFF807FFFFFC00
0007FFFFE002FFFFF400
0001FFFF8000FFFF8000
00006FE900001BF90000
ENDCHAR
STARTCHAR uring
ENCODING 367
SWIDTH 462 0
DWIDTH 17 0
BBX 21 29 1 0
BITMAP
0000BF800000
0007FFF00000
000FFFF80000
001FD2FC0000
002F81FC0000
002F81FC0000
001FD2F80000
000FFFF40000
0007FFE00000
0001BE400000
000000000000
000000000000
02F401F80000
07F803F80000
0FF407F80000
0FF40BF40000
1FF00FF40000
2FE01FF00000
3FE02FE00000
3FD03FE00000
3FD0BFD00000
7FC0FFD00B00
7FC2FFC02F40
7FD7FFC0BF00
7FFFFFC2FE00
3FFF7FFFF800
2FFF3FFFE000
1FFD1FFF8000
07E40BF90000
ENDCHAR
STARTCHAR Uhungarumlaut
ENCODING 368
SWIDTH 890 0
DWIDTH 32 0
BBX 37 42 0 0
BITMAP
00000000140050000000
000000007F42F8000000
00000000BF87FC000000
00000000FF47FC000000
00000001FF0BF4000000
00000002FD0FF0000000
00000003F81FD0000000
00000003F42F80000000
00000002D01E00000000
00000000000000000000
00000000000000000000
0006FE0000001B800000
007FFFC000002FE00000
02FFFFE000003FF00000
0BFFFFF000003FF00000
2FF47FF400007FF00000
7F803FF400007FF00000
FE003FF40000BFE00000
F8003FF00000BFE00000
60003FF00000FFD00000
00007FF00000FFD00000
0000BFE00001FFC00000
0000BFD00002FFC00000
0000FFD00003FF800000
0001FFC00003FF800000
0001FF800007FF400000
0002FF80000BFF400000
0002FF40000FFF000000
0003FF00002FFF000000
0007FF00003FFF000000
0007FE00007FFE000000
000BFD0000FBFE000000
000BFD0001FBFD000000
000FFC0007EBFD000240
000FFC000FDBFD000B80
000FFD003F8BFD001F80
000FFE42FF4BFE007F40
000FFFFFFE0BFF42FF00
000BFFFFF807FFFFFC00
0007FFFFE002FFFFF400
0001FFFF8000FFFF8000
00006FE900001BF90000
ENDCHAR
STARTCHAR uhungarumlaut
ENCODING 369
SWIDTH 462 0
DWIDTH 17 0
BBX 21 30 1 0
BITMAP
0000B807D000
0001FE0FF400
0002FF1FF400
0003FE2FF000
0007FC3FE000
000BF47FC000
000FF07F4000
001FD0BE0000
002F80FD0000
003F01F80000
002D00E00000
000000000000
000000000000
02F401F80000
07F803F80000
0FF407F80000
0FF40BF40000
1FF00FF40000
2FE01FF00000
3FE02FE00000
3FD03FE00000
3FD0BFD00000
7FC0FFD00B00
7FC2FFC02F40
7FD7FFC0BF00
7FFFFFC2FE00
3FFF7FFFF800
2FFF3FFFE000
1FFD1FFF8000
07E40BF90000
ENDCHAR
STARTCHAR Uogonek
ENCODING 370
SWIDTH 890 0
DWIDTH 32 0
BBX 37 40 0 -9
BITMAP
0006FE0000001B900000
007FFFC000002FE00000
02FFFFE000003FF00000
0BFFFFF000003FF00000
2FF47FF400007FF00000
7F803FF400007FE00000
FE003FF40000BFE00000
F8003FF00000BFE00000
60003FF00000FFD00000
00007FF00000FFD00000
0000BFE00001FFC00000
0000BFD00002FFC00000
0000FFD00003FF800000
0001FFC00003FF800000
0001FF800007FF400000
0002FF80000BFF400000
0002FF40000FFF000000
0003FF00002FFF000000
0007FF00003FFE000000
0007FE00007FFE000000
000BFD0000FBFE000000
000BFD0001FBFD000000
000FFC0007EBFD000240
000FFC000FDBFD000B80
000FFD003F8BFD002F80
000FFE42FF4BFF01BF40
000FFFFFFE0BFFEBFE00
000BFFFFF807FFFFF800
0007FFFFE002FFFFE000
0001FFFF8000FFFE4000
00006FE900001FF80000
0000000000000FE00000
0000000000001FC00000
0000000000002FC00000
0000000000003FC00000
0000000000003FD01000
0000000000002FFFF800
0000000000001FFFF800
0000000000000BFFF400
00000000000001BF9000
ENDCHAR
STARTCHAR uogonek
ENCODING 371
SWIDTH 462 0
DWIDTH 17 0
BBX 21 26 1 -9
BITMAP
02F401F80000
07F803F80000
0FF407F80000
0FF40BF40000
1FF00FF40000
2FE01FF00000
3FE02FE00000
3FD03FE00000
3FD0BFD00000
7FC0FFD00B00
7FC2FFC02F40
7FD7FFC0BF00
7FFFFFC2FE00
3FFF7FFFFC00
2FFF2FFFF000
1FFD1FFF8000
07E40FFD0000
00003FE00000
0000BF800000
0000FE000000
0001FD000000
0001FE000000
0000FF414000
0000BFFFD000
00003FFFC000
00000AFE4000
ENDCHAR
STARTCHAR Wcircumflex
ENCODING 372
SWIDTH 1217 0
DWIDTH 44 0
BBX 45 43 4 0
BITMAP
00000000006F400000000000
0000000002FFD00000000000
0000000007FFE00000000000
000000000FFFF00000000000
000000002FE7F80000000000
000000007FD3FC0000000000
00000000FF82FD0000000000
00000001FF02FE0000000000
00000002FD01FE0000000000
00000001F800B80000000000
000000000000000000000000
00000000000000002BE40000
07E0000002F80001FFFD0000
1FF8000007FD0003FFFF0000
2FF800000FFD000BFFFF4000
2FF400000FFD000FE0FF8000
3FF400001FFC001FD0BFC000
3FF000001FFC002FC0BFC000
3FF000002FF8002FC0BF8000
7FF000002FF8002FC0BF8000
7FF000003FF8002FC0BF8000
7FE000007FF8002FC0FF4000
7FE00000BFF4002FD1FF4000
BFE00000BFF4001FE1FF0000
BFE00000FFF4000FFAFE0000
BFD00001FFF4000BFFFD0000
BFD00002FFF40003FFFD0000
BFD00003FFF40000FFFFFF80
BFD00007FFF400002FFFFFC0
BFD0000BFFF400002FFFFF80
BFE0000FFFF400007FEABE40
7FE0001FEFF40000BFC00000
7FE0003FDFF80001FF800000
7FF0007FCBF80003FF000000
3FF000FF4BF8000BFD000000
2FF402FF07FC001FF8000000
2FF807FD07FE007FF0000000
1FFD1FF803FF42FFD0000000
0FFFFFF402FFFFFF40000000
07FFFFD001FFFFFD00000000
03FFFF8000BFFFF400000000
01FFFD00002FFF9000000000
002FE000000BF90000000000
ENDCHAR
STARTCHAR wcircumflex
ENCODING 373
SWIDTH 700 0
DWIDTH 25 0
BBX 29 31 1 0
BITMAP
0000007E00000000
000001FF80000000
000003FFC0000000
00000BFFD0000000
00001FDFD0000000
00003FCFE0000000
00007F4BF0000000
0000FF0BF0000000
0002FD07F4000000
0003FC07F8000000
0007F407F8000000
0003E002E0000000
0000000000000000
0000000000000000
1F8002E001B80000
3FC00BF007FE0000
7FC00FF00FFE0000
7FC02FF41FFE0000
7FD03FF42FFE0000
7FD07FF42FFD1640
3FD0BFF41FFFFFC0
3FD1FFF41FFFFFC0
3FD2FFF43FFFFF80
3FD3FFF4BFEFF900
3FDBF7F9FF400000
2FEFE7FAFE000000
2FFFC7FFFC000000
2FFF87FFF4000000
1FFF43FFE0000000
0FFD02FF80000000
02F400BE00000000
ENDCHAR
STARTCHAR Ycircumflex
ENCODING 374
SWIDTH 851 0
DWIDTH 31 0
BBX 35 54 0 -11
BITMAP
0000000002F8000000
000000000FFE000000
000000002FFF400000
000000007FFF800000
00000000FF7FC00000
00000002FE2FD00000
00000007FC1FE00000
0000000FF80FF00000
0000001FF00BF00000
0000000B9007D00000
000000000000000000
000000000000000000
0006FE0000000BD000
007FFFD000002FF000
02FFFFE000003FF000
0BFFFFF000003FF000
2FE47FF400007FF000
7F803FF400007FE000
FE003FF40000BFE000
F8003FF00000BFD000
60007FF00000FFD000
00007FE00001FFD000
0000BFE00001FFC000
0000BFD00002FFC000
0000FFD00003FF8000
0001FFC00007FF8000
0001FF80000FFF4000
0002FF80001FFF4000
0003FF40002FFF0000
0003FF00007FFF0000
0003FF0000FEFF0000
0003FF0002F7FE0000
0003FF400BF3FE0000
0002FFD07FD7FD0000
0001FFFFFF47FD16F4
0000FFFFFD0BFFFFF8
00003FFFE40BFFFFF4
000006FA40BFFFFFE0
000000001BFFFFA400
00000001BFFFF80000
0000000BFFEFF40000
0000007FF91FF40000
000001FF902FF00000
000007FE002FE00000
00000FF4003FD00000
00002FE0007FD00000
00003FD000BF800000
00007FC001FF400000
00007FD003FF000000
00007FE01FFD000000
00003FFFFFF4000000
00002FFFFFD0000000
00000BFFFF40000000
000001BFE400000000
ENDCHAR
STARTCHAR ycircumflex
ENCODING 375
SWIDTH 479 0
DWIDTH 17 0
BBX 21 48 0 -17
BITMAP
000007E00000
00002FF40000
00007FFC0000
0000BFFC0000
0001FDFD0000
0003FCFE0000
0007F4BF0000
000FF0BF0000
002FD0BF4000
007FC07F8000
007F407F8000
007E002E0000
000000000000
000000000000
00BD007E0000
01FE00FE0000
03FD01FE0000
03FD02FD0000
07FC03FD0000
0BF807FC0000
0FF80BFC0000
0FF40FF80000
0FF42FF80000
1FF03FF80280
1FF0BFF41FC0
1FF5FFF4BFC0
1FFFFFF7FF40
0FFFEFFFFD00
0BFFDFFFE000
07FF5FFF4000
01F92FF80000
0000BFD00000
0002FFC00000
000BFF800000
003FFF800000
00FEBF400000
02F8BF000000
0BF0FF000000
1FC1FE000000
3F42FD000000
7F03FC000000
BE07F8000000
FD0FF0000000
FE2FE0000000
FFFFC0000000
BFFF40000000
7FFE00000000
1BE400000000
ENDCHAR
STARTCHAR Ydieresis
ENCODING 376
SWIDTH 851 0
DWIDTH 31 0
BBX 35 50 0 -11
BITMAP
00000002F407E00000
0000000BFC1FF80000
0000000FFD2FF80000
0000000FFD2FF80000
0000000FFC1FF40000
00000006E00BD00000
000000000000000000
000000000000000000
0006FE0000000BD000
007FFFD000002FF000
02FFFFE000003FF000
0BFFFFF000003FF000
2FE47FF400007FF000
7F803FF400007FE000
FE003FF40000BFE000
F8003FF00000BFD000
60007FF00000FFD000
00007FE00001FFD000
0000BFE00001FFC000
0000BFD00002FFC000
0000FFD00003FF8000
0001FFC00007FF8000
0001FF80000FFF4000
0002FF80001FFF4000
0003FF40002FFF0000
0003FF00007FFF0000
0003FF0000FEFF0000
0003FF0002F7FE0000
0003FF400BF3FE0000
0002FFD07FD7FD0000
0001FFFFFF47FD16F4
0000FFFFFD0BFFFFF8
00003FFFE40BFFFFF4
000006FA40BFFFFFE0
000000001BFFFFA400
00000001BFFFF80000
0000000BFFEFF40000
0000007FF91FF40000
000001FF902FF00000
000007FE002FE00000
00000FF4003FD00000
00002FE0007FD00000
00003FD000BF800000
00007FC001FF400000
00007FD003FF000000
00007FE01FFD000000
00003FFFFFF4000000
00002FFFFFD0000000
00000BFFFF40000000
000001BFE400000000
ENDCHAR
STARTCHAR Zacute
ENCODING 377
SWIDTH 721 0
DWIDTH 26 0
BBX 31 42 0 0
BITMAP
0000000000054000
00000000001FD000
0000000000BFE000
0000000002FFE000
000000000FFFD000
000000007FFE0000
00000001FFE00000
00000002FE000000
00000002E4000000
0000000000000000
0000000000000000
00001AFFFEA50000
0006FFFFFFFFF800
002FFFFFFFFFFE00
01FFFFFFFFFFFF00
03FFD40005BFFE00
07FE000000FFE400
0BF8000001FFD000
0BF4000003FF8000
0FF400000BFF0000
0BF800001FFD0000
0BFC00002FF80000
03FD00007FF00000
01F80000FFE00000
00000002FFC00000
00000007FF400000
0000000FFE000000
0000002FFC000000
0000007FF4000000
000000FFE0000000
000002FFC0000000
000007FF40000000
00001FFE00000000
00003FFC00000000
0000BFF400000064
02BFFFE4000002F8
1FFFFFFFE5006FF4
3FFFFFFFFFFFFFF0
7FFFFFFFFFFFFFD0
7FFFE06FFFFFFF40
3FFF8006FFFFF800
0AF900001BFE9000
ENDCHAR
STARTCHAR zacute
ENCODING 378
SWIDTH 445 0
DWIDTH 16 0
BBX 19 30 2 0
BITMAP
000002E000
000007F800
00000FFC00
00001FF800
00002FF000
00003FD000
0000BF4000
0000FE0000
0001FC0000
0002F40000
0002D00000
0000000000
0000000000
7FFFFFF800
BFFFFFFC00
BFFFFFFC00
7FFFFFF800
000BFFD000
007FFD0000
02FFD00000
0FFE000000
2FF4000010
7FE00000B8
BFD00002F8
BFD0001BF4
BFF401BFE0
7FFFFFFF80
2FFFFFFE00
07FFFFF400
006FFA4000
ENDCHAR
STARTCHAR Zdotaccent
ENCODING 379
SWIDTH 721 0
DWIDTH 26 0
BBX 31 39 0 0
BITMAP
00000002F8000000
0000000FFE000000
0000001FFF000000
0000001FFF000000
0000001FFE000000
00000006F4000000
0000000000000000
0000000000000000
00001AFFFEA50000
0006FFFFFFFFF800
002FFFFFFFFFFE00
01FFFFFFFFFFFF00
03FFD40005BFFE00
07FE000000FFE400
0BF8000001FFD000
0BF4000003FF8000
0FF400000BFF0000
0BF800001FFD0000
0BFC00002FF80000
03FD00007FF00000
01F80000FFE00000
00000002FFC00000
00000007FF400000
0000000FFE000000
0000002FFC000000
0000007FF4000000
000000FFE0000000
000002FFC0000000
000007FF40000000
00001FFE00000000
00003FFC00000000
0000BFF400000064
02BFFFE4000002F8
1FFFFFFFE5006FF4
3FFFFFFFFFFFFFF0
7FFFFFFFFFFFFFD0
7FFFE06FFFFFFF40
3FFF8006FFFFF800
0AF900001BFE9000
ENDCHAR
STARTCHAR zdotaccent
ENCODING 380
SWIDTH 445 0
DWIDTH 16 0
BBX 19 25 2 0
BITMAP
0002F80000
000FFE0000
001FFE0000
002FFE0000
001FFD0000
0007E40000
0000000000
0000000000
7FFFFFF800
BFFFFFFC00
BFFFFFFC00
7FFFFFF800
000BFFD000
007FFD0000
02FFD00000
0FFE000000
2FF4000010
7FE00000B8
BFD00002F8
BFD0001BF4
BFF401BFE0
7FFFFFFF80
2FFFFFFE00
07FFFFF400
006FFA4000
ENDCHAR
STARTCHAR Zcaron
ENCODING 381
SWIDTH 721 0
DWIDTH 26 0
BBX 31 42 0 0
BITMAP
000001F800BD0000
000002FC01FD0000
000001FE03FC0000
000000FF0BF40000
0000007F5FE00000
0000003FBFC00000
0000001FFF400000
0000000FFD000000
00000002F4000000
0000000000000000
0000000000000000
00001AFFFEA50000
0006FFFFFFFFF800
002FFFFFFFFFFE00
01FFFFFFFFFFFF00
03FFD40005BFFE00
07FE000000FFE400
0BF8000001FFD000
0BF4000003FF8000
0FF400000BFF0000
0BF800001FFD0000
0BFC00002FF80000
03FD00007FF00000
01F80000FFE00000
00000002FFC00000
00000007FF400000
0000000FFE000000
0000002FFC000000
0000007FF4000000
000000FFE0000000
000002FFC0000000
000007FF40000000
00001FFE00000000
00003FFC00000000
0000BFF400000064
02BFFFE4000002F8
1FFFFFFFE5006FF4
3FFFFFFFFFFFFFF0
7FFFFFFFFFFFFFD0
7FFFE06FFFFFFF40
3FFF8006FFFFF800
0AF900001BFE9000
ENDCHAR
STARTCHAR zcaron
ENCODING 382
SWIDTH 445 0
DWIDTH 16 0
BBX 19 31 2 0
BITMAP
007D006E00
00FE00FF00
00FF01FE00
00FF03FC00
00BF07F800
007F4FF000
003F5FD000
003FBF8000
002FFF4000
001FFE0000
000FFC0000
0007E00000
0000000000
0000000000
7FFFFFF800
BFFFFFFC00
BFFFFFFC00
7FFFFFF800
000BFFD000
007FFD0000
02FFD00000
0FFE000000
2FF4000010
7FE00000B8
BFD00002F8
BFD0001BF4
BFF401BFE0
7FFFFFFF80
2FFFFFFE00
07FFFFF400
006FFA4000
ENDCHAR
STARTCHAR uni018F
ENCODING 399
SWIDTH 792 0
DWIDTH 29 0
BBX 26 31 2 0
BITMAP
00001AFFA40000
0002FFFFFE4000
001FFFFFFFE000
00BFFFFFFFF800
02FFE401BFFD00
03FE40001FFF00
03F8000007FF80
03D0000002FFC0
0140000001FFD0
0000000000FFE0
0000000000BFE0
0000000000BFE0
0000000000BFE0
00000000007FE0
00000000007FE0
1FFFFFFFFFFFE0
7FFFFFFFFFFFE0
BFFFFFFFFFFFD0
BFFFFFFFFFFFD0
FFD0000001FFC0
BFE0000002FF80
BFE0000003FF40
BFF0000007FE00
7FF400000FFD00
3FF800002FF800
1FFE0000BFF000
0BFF900BFFD000
03FFFFFFFF4000
00FFFFFFF80000
002FFFFFD00000
0001BFE9000000
ENDCHAR
STARTCHAR florin
ENCODING 402
SWIDTH 478 0
DWIDTH 17 0
BBX 23 39 -3 -11
BITMAP
00000001BF90
0000001FFFF0
0000007FFFF4
000001FFFFE0
000002FF9000
000003FF0000
000007FD0000
000007FD0000
00000BFC0000
00000BFC0000
00000BFC0000
00000FF80000
003FFFFFFF80
00BFFFFFFF80
00BFFFFFFF40
006FFFFFF900
00001FF40000
00002FF00000
00002FF00000
00003FF00000
00003FE00000
00003FE00000
00007FD00000
00007FD00000
00007FD00000
0000BFC00000
0000BFC00000
0000FF800000
0000FF800000
0000FF800000
0001FF400000
0001FF400000
0002FF400000
0003FF000000
001BFE000000
2FFFFD000000
7FFFF8000000
7FFFD0000000
2FF900000000
ENDCHAR
STARTCHAR Ohorn
ENCODING 416
SWIDTH 816 0
DWIDTH 29 0
BBX 29 37 2 0
BITMAP
0000000000000500
0000000000003F80
0000000000007FC0
000000000000BFC0
000000000000FF80
000000000006FF40
000001BFFFFFFF00
00002FFFFFFFFD00
0002FFFFFFFFF400
000BFFFFFFFF9000
002FFE402FFF8000
00BFF40003FFD000
01FFD00001FFE000
03FF400000BFF000
0BFE0000007FF400
0FFD0000003FF800
1FFC0000002FF800
2FF80000002FF800
3FF40000002FF800
7FF00000002FF800
7FF00000002FF800
BFE00000002FF800
BFE00000002FF400
BFE00000003FF400
BFE00000007FF000
BFE00000007FE000
BFE0000000BFD000
7FF0000001FFC000
7FF4000002FF8000
3FF8000007FF0000
2FFD00001FFD0000
0FFF40007FF80000
07FFE006FFE00000
02FFFFFFFF800000
00BFFFFFFE000000
001FFFFFE0000000
0001AFF900000000
ENDCHAR
STARTCHAR ohorn
ENCODING 417
SWIDTH 451 0
DWIDTH 16 0
BBX 20 22 1 0
BITMAP
0000000B40
0000001FC0
0000002FC0
0000003F80
000000BF80
001BFFFF00
01FFFFFD00
07FFFFF400
0FFFFFE000
2FF4FFF000
3FE0FFF415
7FC0BFFFFF
BF807FFFFF
BF801FFFFE
BF800BFFA4
BFC00FF000
BFD01FE000
7FE07FD000
2FFFFF8000
1FFFFF0000
07FFFD0000
00BF900000
ENDCHAR
STARTCHAR Uhorn
ENCODING 431
SWIDTH 890 0
DWIDTH 32 0
BBX 37 37 0 0
BITMAP
00000000000000005400
0000000000000000FD00
0000000000000001FE00
0000000000000002FE00
0000000000000007FD00
000000000000001FFD00
0006FE0000001BFFF800
007FFFC000002FFFF400
02FFFFE000003FFFD000
0BFFFFF000003FFE0000
2FF47FF400007FF00000
7F803FF400007FF00000
FE003FF40000BFE00000
F8003FF00000BFE00000
60003FF00000FFD00000
00007FF00000FFD00000
0000BFE00001FFC00000
0000BFD00002FFC00000
0000FFD00003FF800000
0001FFC00003FF800000
0001FF800007FF400000
0002FF80000BFF400000
0002FF40000FFF000000
0003FF00002FFF000000
0007FF00003FFF000000
0007FE00007FFE000000
000BFD0000FBFE000000
000BFD0001FBFD000000
000FFC0007EBFD000240
000FFC000FDBFD000B80
000FFD003F8BFD001F80
000FFE42FF4BFE007F40
000FFFFFFE0BFF42FF00
000BFFFFF807FFFFFC00
0007FFFFE002FFFFF400
0001FFFF8000FFFF8000
00006FE900001BF90000
ENDCHAR
STARTCHAR uhorn
ENCODING 432
SWIDTH 512 0
DWIDTH 18 0
BBX 22 22 1 0
BITMAP
000000007800
00000000FD00
00000001FD00
00000002FD00
00000007FC00
02F401FFF800
07F803FFE000
0FF407FF8000
0FF40BF90000
1FF00FF40000
2FE01FF00000
3FE02FE00000
3FD03FE00000
3FD0BFD00000
7FC0FFC000E0
7FC2FFC002F0
7FD7FFC00BF0
7FFFFFD07FD0
3FFF7FFFFF80
2FFF2FFFFD00
1FFD1FFFF400
07E406FE4000
ENDCHAR
STARTCHAR uni01C4
ENCODING 452
SWIDTH 1531 0
DWIDTH 55 0
BBX 57 42 3 0
BITMAP
0000000000000000000B8007D00000
0000000000000000001FD01FE00000
0000000000000000001FE03FD00000
0000000000000000000BF0BF800000
00000000000000000007F5FE000000
00000000000000000002FAFD000000
00000000000000000001FFF4000000
00000000000000000000BFE0000000
000000000000000000002F40000000
000000000000000000000000000000
000000000000000000000000000000
0006AFFA4000000001AFFFEA500000
00BFFFFFF90000006FFFFFFFFF9000
03FFFFFFFF800002FFFFFFFFFFF000
07FFFFFFFFE0000FFFFFFFFFFFF000
07F94006FFF8002FFE40005BFFF000
014000007FFD007FE000000BFF4000
000000000FFF007FC000001FFD0000
0069000007FF40BF8000003FF80000
01FF400002FF80BF8000007FF00000
02FF400001FFC0BF800000FFE00000
03FF000000FFD07FD00002FFC00000
03FF000000FFD03FD00007FF400000
07FE000000FFD01F80000FFE000000
0BFD000000FFD00000002FFC000000
0FFD000000FFD00000007FF4000000
0FFC000000FFD0000000BFE0000000
1FF8000000FFD0000002FFC0000000
1FF8000001FFC0000007FF40000000
2FF4000002FF8000000FFE00000000
3FF4000003FF8000002FFD00000000
3FF0000007FF4000007FF400000000
7FF000000BFE000000FFE000000000
7FE000001FFD000002FFC000000000
BFE000007FF8000007FF4000000640
BFE00001FFF0001BFFFF4000001F80
BFD0000BFFD001FFFFFFFE5005FF80
FFD001BFFF4003FFFFFFFFFFFFFF40
FFFFFFFFF80007FFFFFFFFFFFFFD00
FFFFFFFFD00007FFFF06FFFFFFF400
BFFFFFFD000002FFF8002FFFFFD000
1AFFFA400000006F900001AFE90000
ENDCHAR
STARTCHAR uni01C5
ENCODING 453
SWIDTH 1191 0
DWIDTH 43 0
BBX 43 32 3 -1
BITMAP
0006AFFA40000002E002F0
00BFFFFFF900000BF407F4
03FFFFFFFF80000BF40FF0
07FFFFFFFFE00007F41FE0
07F94006FFF80003F83FC0
014000007FFD0003F87F40
000000000FFF0002FCFF00
0069000007FF4001FDFD00
01FF400002FF8001FFF800
02FF400001FFC000FFF000
03FF000000FFD000BFD000
03FF000000FFD0002F4000
07FE000000FFD000000000
0BFD000000FFD000000000
0FFD000000FFD2FFFFFF40
0FFC000000FFD7FFFFFF80
1FF8000000FFD7FFFFFF80
1FF8000001FFC2FFFFFF40
2FF4000002FF80007FFD00
3FF4000003FF8002FFD000
3FF0000007FF400BFF4000
7FF000000BFE002FF80000
7FE000001FFD00BFE00000
BFE000007FF801FF800000
BFE00001FFF003FE000000
BFD0000BFFD00BFC000000
FFD001BFFF401FF4000000
FFFFFFFFF8002FFFFFFE40
FFFFFFFFD0002FFFFFFF80
BFFFFFFD00002FFFFFFF80
1AFFFA4000002FFFFFFF40
0000000000000540000000
ENDCHAR
STARTCHAR uni01C6
ENCODING 454
SWIDTH 895 0
DWIDTH 32 0
BBX 36 31 1 0
BITMAP
00000000001F400B80
0000001B803FC02FC0
0000003FD03FC07F80
0000007FD02FD0BF40
000000BFD01FD1FE00
000000BFC00FD2FC00
000000FF800FE7F400
000000FF800BEBF000
000001FF4007FFD000
000001FF4003FF8000
000001FF0002FF0000
000002FE0000A80000
000002FE0000000000
000003FD0000000000
0006FBFD1FFFFFFE00
002FFFFC2FFFFFFF40
00FFFFF82FFFFFFF00
03FFFFF81BFFFFFE00
0BFF4BF40001FFF800
1FFC0FF4001FFF8000
2FF41FF000BFF80000
3FE01FF002FF900000
7FD02FE007FE000000
BFC03FE00FFC00001E
BF807FD02FF400007F
BF80BFD07FF80002FE
BFD1FFE1FFFE006FFD
7FFFFFFFFFFFFFFFF4
3FFFDBFFFBFFFFFFD0
1FFF87FF81FFFFFD00
06F901B9001BFF9000
ENDCHAR
STARTCHAR uni01C7
ENCODING 455
SWIDTH 1276 0
DWIDTH 46 0
BBX 49 35 -2 -4
BITMAP
00000001AFE4000001AFFE9400
0000001BFFFF40002FFFFFFF40
000000BFFFFFD001FFFFFFFF80
000002FFFFFFF007FFFFFFFF80
000007FF907FF40FFE401FFE00
00000FFE001FF82FF4001FF800
00002FF8000FFC3FE0001FF800
00003FF4000BFC3FC0002FF800
00007FE0000FFC7FC0002FF400
0000BFE0000FF87FD0002FF400
0000FFD0000FF43FE0003FF000
0000FFD0000BE02FF0003FF000
0000FFC00000001FE0007FE000
0001FFC00000000640007FE000
0001FFC0000000000001BFE000
0001FF8000000000001BFFD000
0001FF800000000001FFFFC000
0001FF80000000000BFFFFC000
0001FF40000000007FFFFF8000
0002FF4000000002FFF9FF4000
0002FF400000000BFF91FF4000
0002FF000000002FFD02FF0000
0002FF00000000BFF403FE0000
0002FF00000001FFD007FD0000
01BFFF94000002FF400BFC0000
1FFFFFFFE9405FFE000FF80000
3FFFFFFFFFFFFFFD001FF40000
7FFFFBFFFFFFFFFD002FE00000
7FFFE06FFFFFFFFC007FD00000
3FFF8002FFFFFFFD01FF800000
06F900001AFF97FE07FF000000
00000000000003FFFFFD000000
00000000000001FFFFF4000000
00000000000000BFFFD0000000
000000000000001AF900000000
ENDCHAR
STARTCHAR uni01C8
ENCODING 456
SWIDTH 927 0
DWIDTH 33 0
BBX 40 48 -2 -17
BITMAP
000000006FFA00000000
0000000BFFFFE0000000
0000007FFFFFF8000000
000001FFFFFFFD000000
000007FFD00BFF000000
00000FFE0002FF400000
00002FFC0001FF4BE400
00003FF40001FF6FFC00
00007FF00001FF7FFD00
0000BFE00002FF7FFC00
0000FFD00002FF3FF800
0000FFD00001FD1BE000
0000FFC0000064000000
0001FFC0000000000000
0001FFC00000000BD000
0001FF800000002FE000
0001FF800000003FE000
0001FF800000003FE000
0001FF400000003FD000
0002FF400000007FD000
0002FF400000007FC000
0002FF000000007FC000
0002FF00000000BFC000
0002FF00000000BF8018
01BFFF94000002FF81FD
1FFFFFFFE9405FFF4BFD
3FFFFFFFFFFFFFFFBFF8
7FFFFBFFFFFFFFFFFFE0
7FFFE06FFFFFFFFFFF40
3FFF8001FFFFFEFFF800
06F900001AFF92FFD000
0000000000000BFE0000
0000000000002FFD0000
000000000000FFFC0000
000000000003FFFC0000
00000000000FFBF80000
00000000002FCBF40000
0000000000BF0FF00000
0000000001FD0FF00000
0000000002F81FE00000
0000000007F02FD00000
000000000BE07F800000
000000000BE0BF400000
000000000FE1FF000000
000000000FFFFD000000
000000000BFFF8000000
0000000003FFE0000000
0000000000BE40000000
ENDCHAR
STARTCHAR uni01C9
ENCODING 457
SWIDTH 610 0
DWIDTH 22 0
BBX 24 51 2 -17
BITMAP
0001BD000000
000BFF400000
002FFFC00000
007FFFC00000
00BF5FD00000
01FE0FD00000
02FD0FD00000
03FC0FD00000
07F81FD00000
0BF41FC6F800
0FF01FCFFE00
1FE02F9FFE00
2FE03F6FFE00
3FD07F1FFD00
3FD0BE07E400
7FC0FD000000
7FC2FC000000
BF83F407F000
BF87F00FF400
BF8FD01FF400
FF5FC01FF000
FFBF402FF000
FFFE002FF000
FFFD002FE000
FFF8003FE000
FFF0003FD000
BFD000BFD01E
BF8002FFC0BF
7FC00BFFC7FE
3FE06FFFEFFC
2FFFFFFFFFE0
1FFFFFBFFF40
07FFF8BFF800
01BF90FFD000
000002FF4000
00001FFF0000
00007FFE0000
0001FFFD0000
0007FBFD0000
001FE3FC0000
003F87F80000
00BF0BF40000
01FD0FF00000
02F81FE00000
03F42FD00000
07F43FC00000
07F4BF400000
07FFFF000000
03FFFD000000
01FFF4000000
006F90000000
ENDCHAR
STARTCHAR uni01CA
ENCODING 458
SWIDTH 1497 0
DWIDTH 54 0
BBX 55 35 0 -4
BITMAP
0006FD00006FE8000001AFFFA500
007FFF8002FFFF40002FFFFFFFE0
02FFFFC01FFFFFC002FFFFFFFFF8
0BFFFFD07FFFFFD00BFFFFFFFFF8
1FFFFFD0FFFFFFE02FFE4006FFF4
7FE4BFD2FF41FFE03FE00001FFD0
BF807FD7F800BFE07FC00001FF80
FE007FDBE0007FE0BF800002FF80
F8007FDFC0007FE0BF800002FF40
5000BFEF4000BFD0BF800002FF40
0000BFFE0000BFD0BFC00003FF00
0000BFFD0000FFC07FD00003FF00
0000FFF80001FFC03FD00003FF00
0000FFF40001FF801F400007FE00
0000FFF00002FF4000000007FE00
0001FFE00002FF400000006FFD00
0001FFD00003FF00000006FFFD00
0002FFC00007FF0000002FFFFC00
0002FF800007FE000002FFFFF800
0003FF40000BFD00000BFFAFF800
0003FF40000FFD00007FF91FF400
0007FF00000FFC0001FFD02FF000
0007FF00000FFC0003FF403FE000
000BFE00001FFC000BFD007FD000
000BFD00001FFC001FF400BFC000
000FFD00001FFC007FE000FF8000
000FFD00000FFE02FFD001FF4000
000FFC00000BFFFFFFC002FF0000
000FFC000003FFFFFFC007FD0000
000FF8000001FFFFFFD01FF80000
0007E00000002BF97FE07FF40000
00000000000000003FFFFFD00000
00000000000000002FFFFF400000
00000000000000000BFFFD000000
000000000000000001AF90000000
ENDCHAR
STARTCHAR uni01CB
ENCODING 459
SWIDTH 1138 0
DWIDTH 41 0
BBX 45 48 0 -17
BITMAP
0006FD00006FE80000000000
007FFF4002FFFF4000000000
02FFFFC01FFFFFC000000000
0BFFFFD03FFFFFD000000000
1FFFFFD0FFFFFFE000000000
7FE4BFD2FF41FFE000000000
BF807FD3F800BFE001BE0000
FE007FDBE0007FE003FF8000
F8007FDFC0007FE007FF8000
6000BFEF4000BFD00BFF8000
0000BFFE0000BFD007FF4000
0000BFFD0000FFC001F90000
0000FFF80001FFC000000000
0000FFF40001FF8000000000
0000FFF00002FF4001FC0000
0001FFE00002FF4003FD0000
0001FFD00003FF0007FD0000
0002FFC00007FF0007FC0000
0002FF800007FE0007FC0000
0003FF40000BFD000BFC0000
0003FF40000FFD000BF80000
0007FF00000FFC000BF80000
0007FF00000FFC000FF40000
000BFE00001FFC000FF40640
000BFD00001FFC001FF41FC0
000FFD00001FFC007FF0BF80
000FFD00000FFE02FFF7FF40
000FFC00000BFFFFFFFFF900
000FFC000003FFFFFFFFE000
000FF8000001FFFFBFFF4000
0007E00000002BF93FF80000
0000000000000000BFD00000
0000000000000007FFC00000
000000000000001FFF800000
000000000000007FFF800000
00000000000001FEBF400000
00000000000007F8FF000000
0000000000000FE1FE000000
0000000000002FC2FD000000
0000000000007F42FC000000
000000000000BE07F8000000
000000000000FD0BF4000000
000000000001FD0FF0000000
000000000001FD2FE0000000
000000000001FFFFC0000000
000000000000FFFF40000000
0000000000007FFD00000000
0000000000001BE400000000
ENDCHAR
STARTCHAR uni01CC
ENCODING 460
SWIDTH 750 0
DWIDTH 27 0
BBX 30 42 1 -17
BITMAP
00000000006F8000
0000000000FFE000
0000000001FFE000
0000000002FFE000
0000000001FFD000
00000000007E4000
0000000000000000
0000000000000000
02F402F8007F0000
0BF41FFD00FF4000
0FF47FFE01FF4000
1FF1FFFE01FF4000
2FE3FFFD01FF0000
2FE7FBFD02FF0000
3FDFD7FC02FE0000
3FEF87F802FE0000
3FFF0BF803FD0000
3FFD0BF403FD01E0
7FFC0FF40BFD0BF0
7FF80FF01FFC7FE0
3FF41FF4BFFEFFD0
3FF01FFFFFFFFE00
3FE00FFFFFFFF400
2FD00BFFEFFF8000
0B8002FE4FFD0000
000000002FF40000
00000001FFF00000
00000007FFE00000
0000001FFFE00000
0000007FAFD00000
000001FE3FC00000
000003F87F800000
00000BF0BF400000
00001FD0BF000000
00002F80FE000000
00003F42FD000000
00007F43FC000000
00007F4BF8000000
00007FFFF0000000
00003FFFD0000000
00001FFF40000000
000006F900000000
ENDCHAR
STARTCHAR Gcaron
ENCODING 486
SWIDTH 811 0
DWIDTH 29 0
BBX 31 59 2 -17
BITMAP
000001F400B80000
000003F802FC0000
000002FC07F80000
000001FE0FF00000
000000FF2FD00000
0000007FBF800000
0000002FFF000000
0000001FFC000000
00000007E0000000
0000000000000000
0000000000000000
000001AFF9000000
00002FFFFFD00000
0001FFFFFFF40000
000BFFFFFFFD0000
002FFF501BFE0000
00BFF80003FF0000
01FFD00002FF0000
03FF800002FF4000
0BFE000002FF4000
0FFD000002FF0000
1FFC000003FE0000
2FF4000002FD0000
3FF4000000A40000
7FF0000000000000
7FE0000000000000
BFE0000000000000
BFE0000000000000
BFE0000000000000
BFE00002FFFF8000
BFE00007FFFFC000
BFF00007FFFFC000
7FF00002FFFFC000
3FF8000000BF8000
2FFC000000BF8014
1FFE000000FF40BC
0BFFD00000FF47FC
03FFF90016FF6FF8
00FFFFFFFFFFFFE0
002FFFFFFFFFFF40
0006FFFFFFFFF800
00001BFFA6FFD000
000000000BFE0000
000000002FFD0000
00000000FFFC0000
00000007FFF80000
0000000FEBF80000
0000003F8BF40000
000000BF0FF00000
000001FC1FE00000
000003F42FD00000
000007F03FC00000
00000BE07F800000
00000FD0FF400000
00000FE2FE000000
00000FFFFD000000
00000BFFF8000000
000007FFE0000000
000001BE40000000
ENDCHAR
STARTCHAR gcaron
ENCODING 487
SWIDTH 479 0
DWIDTH 17 0
BBX 21 48 0 -17
BITMAP
0002E001F400
0007F807F800
0007F80BF400
0003F81FF000
0003FC2FD000
0002FC3F8000
0001FDBF4000
0000FDFE0000
0000FFFC0000
0000BFF40000
00007FE00000
00001F800000
000000000000
000000000000
0001BE000000
000BFF940000
003FFFFE0000
00FFFFFE0000
02FFD3FD0000
07FF03FD0000
0BFD07FC0000
0FF807FC0000
1FF40BF80000
2FF00FF806C0
2FE00FF42FC0
2FE02FF5FFC0
2FF47FFBFF40
1FFFFFFFFD00
0FFFFFFFE000
07FFEFFF4000
01BE6FF80000
0000BFD00000
0007FFC00000
001FFFC00000
007FFF800000
01FEBF400000
03F8BF400000
0BF0FF000000
1FD1FE000000
3F82FD000000
7F03FC000000
BE07F8000000
FD0FF4000000
FE2FE0000000
FFFFD0000000
BFFF80000000
7FFE00000000
1BE400000000
ENDCHAR
STARTCHAR uni01EA
ENCODING 490
SWIDTH 816 0
DWIDTH 29 0
BBX 27 40 2 -9
BITMAP
000001BFE90000
00006FFFFFD000
0002FFFFFFF800
000BFFFFFFFE00
002FFE401FFF40
00BFF40003FFC0
01FFD00000FFE0
03FF400000BFF0
0BFE0000003FF4
0FFD0000003FF4
1FF80000002FF8
2FF40000002FF8
3FF00000002FF8
7FF00000002FF8
7FE00000002FF8
BFE00000002FF8
BFE00000003FF4
BFE00000003FF4
BFE00000007FF0
BFE0000000BFE0
BFF0000000FFD0
7FF0000002FFC0
3FF8000007FF40
2FFC00000FFE00
1FFF00007FFC00
0BFFD006FFF400
03FFFFFFFFD000
01FFFFFFFF4000
002FFFFFF80000
0006FFFF900000
00001BF8000000
00000FF0000000
00001FD0000000
00002FC0000000
00002FC0000000
00002FE0140000
00001FFFF80000
00000FFFF80000
000007FFF40000
000000AF900000
ENDCHAR
STARTCHAR uni01EB
ENCODING 491
SWIDTH 451 0
DWIDTH 16 0
BBX 20 26 1 -9
BITMAP
001BF80000
01FFFF0000
07FFFFC000
0FFFFFE000
2FF4FFF000
3FE0FFF400
7FC0BFF45A
BFC07FFFFF
BF803FFFFF
BF801FFFFE
BF800BFEA4
BFC00FF000
7FD02FE000
3FF5BFD000
2FFFFF8000
0BFFFE0000
02FFF40000
003FD00000
00BF400000
00FE000000
01FD000000
02FD000000
01FE414000
00FFFFC000
007FFF8000
001BFE0000
ENDCHAR
STARTCHAR Aringacute
ENCODING 506
SWIDTH 786 0
DWIDTH 28 0
BBX 33 48 2 0
BITMAP
000000000000000500
000000000000002F80
00000000000000BFC0
00000000000002FFC0
0000000000000BFF40
000000000BF81FF400
000000007FFE1F4000
00000000FFFF800000
00000001FD2FC00000
00000002F81FC00000
00000002F81FC00000
00000001FD2F800000
00000000FFFF400000
000000007FFE000000
000000001BE4000000
000000000000000000
000000000000000000
00000006BFFE940000
000001BFFFFFFF0000
00001BFFFFFFFF4000
0000BFFFFFFFFF0000
0003FFF94005A80000
000FFF900000000000
003FFD0000BE000000
00BFF40002FF400000
02FFD00003FF400000
03FF400003FF000000
0BFE000007FF000000
0FFD000007FE000000
2FF800000BFD000000
3FF400000FFD000000
3FF000001FFC000000
7FF000001FF8000000
BFE000002FF8000000
BFE000003FF4000000
FFD000007FF4000000
FFD00000BFF0000000
FFD00000FFF0000000
FFD00001FFF0000000
FFD00002FFE0000000
BFE00007FFE0003800
7FF0000FFFF000FC00
3FF8002FFFF002F800
2FFE01FF7FF81FF400
0FFFFFFE3FFFFFE000
07FFFFF81FFFFF8000
01FFFFE007FFFD0000
001BFA0001BFA00000
ENDCHAR
STARTCHAR aringacute
ENCODING 507
SWIDTH 470 0
DWIDTH 17 0
BBX 23 33 1 0
BITMAP
0000000002E0
000000000BF8
000000002FF8
00006F90BFE0
0002FFF4F900
0007FFFC0000
000BE1FD0000
000FD0BE0000
000FC0BE0000
000FE1FD0000
000BFFFC0000
0003FFF40000
0000BF800000
000000000000
000000000000
000000000000
0006F8000000
002FFE500000
00FFFFF80000
03FFFFF80000
0BFF4BF40000
1FFC0FF40000
2FF41FF00000
3FE01FF00000
7FD02FE00000
BFC03FE00740
BF807FD01F80
BF80BFD07F40
BFD1FFE1FF00
7FFFFFFFFD00
3FFFDBFFF400
1FFF87FFD000
06F901BE0000
ENDCHAR
STARTCHAR AEacute
ENCODING 508
SWIDTH 1015 0
DWIDTH 37 0
BBX 39 42 2 0
BITMAP
00000000000000050000
000000000000007F8000
00000000000002FFC000
0000000000000BFFC000
0000000000002FFF4000
000000000000FFF80000
000000000007FF800000
00000000000BF9000000
00000000000790000000
00000000000000000000
00000000000000000000
0000001AF802FFFFFF40
000002FFFD0BFFFFFF80
00002FFFFD2FFFFFFF80
0001FFFFFD3FFFFFFF80
0007FFFE507FFFFFFE00
001FFFE000BFE0000000
007FFE0000FFD0000000
00FFF40001FFC0000000
02FFD00001FF80000000
07FF800002FF40000000
0BFF000003FF00000000
1FFD000007FF00000000
2FFC000007FE00000000
3FF400000BFFFFFFE000
7FF000000FFFFFFFF400
7FF000001FFFFFFFF000
BFE000002FFFFFFFD000
BFE000003FF800000000
FFD000007FF400000000
FFD00000BFF400000000
FFD00000FFF400000000
FFD00001FFF400000000
FFD00002FFF800000000
BFE00007FFF800000000
7FF0000FFFFD00000068
3FF8002FDFFF400006FC
2FFE01BF87FFE401BFFC
0FFFFFFF02FFFFFFFFF4
07FFFFFD00BFFFFFFFD0
00BFFFF4001FFFFFFD00
001BFE400001AFFA5000
ENDCHAR
STARTCHAR aeacute
ENCODING 509
SWIDTH 653 0
DWIDTH 24 0
BBX 27 30 1 0
BITMAP
000000001F4000
000000003FC000
000000007FD000
00000000FFC000
00000001FF4000
00000002FE0000
00000007F80000
0000000BF00000
0000000FD00000
0000001F800000
0000001E000000
00000000000000
00000000000000
0001BF46FE4000
002FFFAFFFD000
01FFFFFFFFF000
03FFFFFFFFF400
0BFF43FE0BF400
1FF80BF80BF400
3FE00FF40FF000
7FD01FF02FD000
7FC02FF6FF8000
BF802FFFFE007C
BF803FFFE001FC
BFC07FF9000BFC
BFD1FFFD007FF8
7FFFFBFFFFFFE0
2FFFF2FFFFFF40
0FFFD07FFFF900
02FE0006FE9000
ENDCHAR
STARTCHAR Oslashacute
ENCODING 510
SWIDTH 816 0
DWIDTH 29 0
BBX 27 46 2 -4
BITMAP
00000000054000
000000002FD000
00000000BFE000
00000002FFE000
0000001FFFC000
0000007FFE0000
000001FFE00000
000003FE000000
000002E07E0000
00000000FF0000
00000001FE0000
000001BFFE0000
00002FFFFFD000
0002FFFFFFF800
000BFFFFFFFE00
002FFE4BFFFF40
00BFF40FF7FFC0
01FFD00FE1FFE0
03FF401FE0BFF0
0BFE002FD07FF4
0FFD003FC03FF4
1FFC003F802FF8
2FF8007F402FF8
3FF400BF402FF8
7FF000FF002FF8
7FF000FE002FF8
BFE001FD002FF8
BFE002FC002FF4
BFE003FC003FF4
BFE003F8007FF0
BFE007F4007FE0
BFE00BF000BFD0
7FF00FF001FFC0
7FF41FE002FF80
3FF81FD007FF00
2FFD2FC01FFD00
0FFF3FC07FF800
07FFFF86FFE000
02FFFFFFFF8000
00BFFFFFFE0000
001FFFFFE40000
0002FFF9000000
0002FD00000000
0003FC00000000
0003F800000000
0001F400000000
ENDCHAR
STARTCHAR oslashacute
ENCODING 511
SWIDTH 459 0
DWIDTH 17 0
BBX 21 35 1 -5
BITMAP
0000B8000000
0001FE000000
0003FE000000
0007FE000000
000BFC000000
001FF4000000
002FD0000000
003F80000000
00BE14000000
00FCBC000000
00B4BC000000
0000F8000000
0000F4000000
002FF8000000
01FFFF400000
07FFFFD00000
0FFFFFF00000
2FF7EFF40000
3FD3DBF80000
7FC7D7FEBF40
BF87C7FFFF40
BF8BC7FFFF40
BF8B87FFF900
BF8F8BF94000
BFDF4FF40000
7FEF6FF00000
3FFFFFD00000
1FFFFF800000
07FFFE000000
01BFE4000000
007D00000000
007C00000000
00BC00000000
00B800000000
005000000000
ENDCHAR
STARTCHAR uni0200
ENCODING 512
SWIDTH 786 0
DWIDTH 28 0
BBX 31 42 2 0
BITMAP
0000001400500000
0000007F03F80000
000000BF47FC0000
000000BF87FD0000
0000007FC2FE0000
0000002FD0FE0000
0000000FE0BF0000
00000007E03F4000
00000002D01E0000
0000000000000000
0000000000000000
00000006BFFE9400
000001BFFFFFFF00
00001BFFFFFFFF40
0000BFFFFFFFFF00
0003FFF94005A800
000FFF9000000000
003FFD0000BE0000
00BFF40002FF4000
02FFD00003FF4000
03FF400003FF0000
0BFE000007FF0000
0FFD000007FE0000
2FF800000BFD0000
3FF400000FFD0000
3FF000001FFC0000
7FF000001FF80000
BFE000002FF80000
BFE000003FF40000
FFD000007FF40000
FFD00000BFF00000
FFD00000FFF00000
FFD00001FFF00000
FFD00002FFE00000
BFE00007FFE00038
7FF0000FFFF000FC
3FF8002FFFF002F8
2FFE01FF7FF81FF4
0FFFFFFE3FFFFFE0
07FFFFF81FFFFF80
01FFFFE007FFFD00
001BFA0001BFA000
ENDCHAR
STARTCHAR uni0201
ENCODING 513
SWIDTH 470 0
DWIDTH 17 0
BBX 21 30 1 0
BITMAP
0BD06E000000
1FE0FF400000
1FF0FF800000
1FF4BFC00000
0BF87FD00000
03FC2FE00000
02FD0FF00000
00FE07F40000
007F02F40000
002F41F80000
000E00740000
000000000000
000000000000
0006F8000000
002FFE500000
00FFFFF80000
03FFFFF80000
0BFF4BF40000
1FFC0FF40000
2FF41FF00000
3FE01FF00000
7FD02FE00000
BFC03FE00740
BF807FD01F80
BF80BFD07F40
BFD1FFE1FF00
7FFFFFFFFD00
3FFFDBFFF400
1FFF87FFD000
06F901BE0000
ENDCHAR
STARTCHAR uni0202
ENCODING 514
SWIDTH 786 0
DWIDTH 28 0
BBX 31 41 2 0
BITMAP
000000001AE90000
00000002FFFFD000
0000000BFFFFF400
0000002FFFFFFC00
0000003FE40BFD00
0000007F8002FE00
0000002E0000B800
0000000000000000
0000000000000000
0000000000000000
00000006BFFE9400
000001BFFFFFFF00
00001BFFFFFFFF40
0000BFFFFFFFFF00
0003FFF94005A800
000FFF9000000000
003FFD0000BE0000
00BFF40002FF4000
02FFD00003FF4000
03FF400003FF0000
0BFE000007FF0000
0FFD000007FE0000
2FF800000BFD0000
3FF400000FFD0000
3FF000001FFC0000
7FF000001FF80000
BFE000002FF80000
BFE000003FF40000
FFD000007FF40000
FFD00000BFF00000
FFD00000FFF00000
FFD00001FFF00000
FFD00002FFE00000
BFE00007FFE00038
7FF0000FFFF000FC
3FF8002FFFF002F8
2FFE01FF7FF81FF4
0FFFFFFE3FFFFFE0
07FFFFF81FFFFF80
01FFFFE007FFFD00
001BFA0001BFA000
ENDCHAR
STARTCHAR uni0203
ENCODING 515
SWIDTH 470 0
DWIDTH 17 0
BBX 21 28 1 0
BITMAP
0001AF900000
000BFFFD0000
002FFFFF4000
00BFFFFFD000
01FF90BFE000
02FE002FF000
02FC000FF000
02F8000BE000
005000014000
000000000000
000000000000
0006F8000000
002FFE500000
00FFFFF80000
03FFFFF80000
0BFF4BF40000
1FFC0FF40000
2FF41FF00000
3FE01FF00000
7FD02FE00000
BFC03FE00740
BF807FD01F80
BF80BFD07F40
BFD1FFE1FF00
7FFFFFFFFD00
3FFFDBFFF400
1FFF87FFD000
06F901BE0000
ENDCHAR
STARTCHAR uni0204
ENCODING 516
SWIDTH 686 0
DWIDTH 25 0
BBX 29 42 1 0
BITMAP
0000050050000000
00003F41FC000000
00007FC2FD000000
00007FD2FE000000
00002FD1FF000000
00001FE0BF400000
00000BF03F800000
000003F41F800000
000001E00B400000
0000000000000000
0000000000000000
000005BFFA000000
00006FFFFFE00000
0002FFFFFFFC0000
000FFFFFFFFE0000
003FFF400BFF4000
00BFF80002FF4000
00FFE00001FF8000
01FFD00000FF8000
01FFC00001FF8000
01FFC00001FF4000
01FFD00001FF0000
00BFF00000B80000
007FFE4000000000
001FFFFF00000000
0002FFFF40000000
001FFFFF00000000
01FFFFFD00000000
0BFFE40000000000
1FFE000000000000
3FF8000000000000
7FF0000000000000
BFE0000000000000
FFD0000000000000
FFE0000000000000
BFF0000000001A00
7FFD00000005BF40
2FFF940005BFFF00
0FFFFFFFFFFFFE00
02FFFFFFFFFFF800
006FFFFFFFFE4000
0001AFFFEA500000
ENDCHAR
STARTCHAR uni0205
ENCODING 517
SWIDTH 393 0
DWIDTH 14 0
BBX 18 30 1 0
BITMAP
6E02F40000
FF47F80000
FF87FC0000
BFC7FD0000
7FD2FE0000
2FE0FF0000
0FF0BF4000
07F03F8000
02F41FC000
01F80BD000
00B4038000
0000000000
0000000000
001BF80000
01FFFE0000
07FFFF8000
0FFFFF8000
2FF47FC000
3FD03FC000
7FC07F8000
BF81FF0000
BF9BFD0000
BFFFF401E0
BFFE400BE0
BFE0006FE0
7FF406FFD0
2FFFFFFF40
0FFFFFFD00
07FFFFE000
006FF90000
ENDCHAR
STARTCHAR uni0206
ENCODING 518
SWIDTH 686 0
DWIDTH 25 0
BBX 29 41 1 0
BITMAP
0000001AFA400000
000001FFFFE00000
000007FFFFFC0000
00000FFFFFFE0000
00002FF407FF0000
00002FD000FF0000
00001E40007D0000
0000000000000000
0000000000000000
0000000000000000
000005BFFA000000
00006FFFFFE00000
0002FFFFFFFC0000
000FFFFFFFFE0000
003FFF400BFF4000
00BFF80002FF4000
00FFE00001FF8000
01FFD00000FF8000
01FFC00001FF8000
01FFC00001FF4000
01FFD00001FF0000
00BFF00000B80000
007FFE4000000000
001FFFFF00000000
0002FFFF40000000
001FFFFF00000000
01FFFFFD00000000
0BFFE40000000000
1FFE000000000000
3FF8000000000000
7FF0000000000000
BFE0000000000000
FFD0000000000000
FFE0000000000000
BFF0000000001A00
7FFD00000005BF40
2FFF940005BFFF00
0FFFFFFFFFFFFE00
02FFFFFFFFFFF800
006FFFFFFFFE4000
0001AFFFEA500000
ENDCHAR
STARTCHAR uni0207
ENCODING 519
SWIDTH 393 0
DWIDTH 14 0
BBX 18 28 1 0
BITMAP
0006FA4000
007FFFE000
01FFFFFC00
07FFFFFE00
0BFD07FF00
0FF401FF40
1FE000BF40
0FC0007F40
0500001500
0000000000
0000000000
001BF80000
01FFFE0000
07FFFF8000
0FFFFF8000
2FF47FC000
3FD03FC000
7FC07F8000
BF81FF0000
BF9BFD0000
BFFFF401E0
BFFE400BE0
BFE0006FE0
7FF406FFD0
2FFFFFFF40
0FFFFFFD00
07FFFFE000
006FF90000
ENDCHAR
STARTCHAR uni0208
ENCODING 520
SWIDTH 495 0
DWIDTH 18 0
BBX 21 42 -1 0
BITMAP
000140050000
000BF03F4000
000FF47F8000
000FF87FC000
0007FC3FD000
0002FC1FE000
0001FD0BF000
0000BE03F400
00002D01E000
000000000000
000000000000
001BFFFFFF40
003FFFFFFFC0
007FFFFFFF80
002FFFFFFE00
00000FFC0000
00001FF80000
00001FF80000
00002FF40000
00002FF40000
00003FF40000
00003FF00000
00003FF00000
00007FE00000
00007FE00000
0000BFD00000
0000BFD00000
0000FFC00000
0000FFC00000
0001FF800000
0001FF800000
0002FF800000
0002FF400000
0003FF400000
0003FF000000
0007FF000000
0007FE000000
0007FE000000
1AFFFFFE4000
7FFFFFFFC000
BFFFFFFF8000
7FFFFFFE0000
ENDCHAR
STARTCHAR uni0209
ENCODING 521
SWIDTH 246 0
DWIDTH 9 0
BBX 17 30 -3 0
BITMAP
2E01B80000
7F83FD0000
BFC3FE0000
7FD2FF0000
2FE1FF4000
1FF0BF4000
0BF43F8000
03F81FC000
01FC0FD000
00BC07E000
003802D000
0000000000
0000000000
0002F40000
000BF80000
000FF40000
001FF40000
001FF00000
002FF00000
003FE00000
003FD00000
003FD00000
007FC00B40
007FC01F40
007FC07F40
007FD2FF00
003FFFFC00
002FFFF400
000FFF8000
0006F90000
ENDCHAR
STARTCHAR uni020A
ENCODING 522
SWIDTH 495 0
DWIDTH 18 0
BBX 22 41 -1 0
BITMAP
000002BE9000
00002FFFFD00
0000FFFFFF40
0002FFFFFFC0
0007FE41BFD0
0007F8002FD0
0003E0000B80
000000000000
000000000000
000000000000
001BFFFFFF40
003FFFFFFFC0
007FFFFFFF80
002FFFFFFE00
00000FFC0000
00001FF80000
00001FF80000
00002FF40000
00002FF40000
00003FF40000
00003FF00000
00003FF00000
00007FE00000
00007FE00000
0000BFD00000
0000BFD00000
0000FFC00000
0000FFC00000
0001FF800000
0001FF800000
0002FF800000
0002FF400000
0003FF400000
0003FF000000
0007FF000000
0007FE000000
0007FE000000
1AFFFFFE4000
7FFFFFFFC000
BFFFFFFF8000
7FFFFFFE0000
ENDCHAR
STARTCHAR uni020B
ENCODING 523
SWIDTH 246 0
DWIDTH 9 0
BBX 15 28 -1 0
BITMAP
006BE400
02FFFF40
0FFFFFD0
2FFFFFF0
7FE46FF8
BF800BF8
BF0007FC
BD0002F8
14000050
00000000
00000000
002F4000
00BF8000
00FF4000
01FF4000
01FF0000
02FF0000
03FE0000
03FD0000
03FD0000
07FC00B4
07FC01F4
07FC07F4
07FD2FF0
03FFFFC0
02FFFF40
00FFF800
006F9000
ENDCHAR
STARTCHAR uni020C
ENCODING 524
SWIDTH 816 0
DWIDTH 29 0
BBX 27 42 2 0
BITMAP
00001500500000
00007F03F80000
0000BF47FC0000
0000BF83FD0000
00007FC2FE0000
00002FD0FF0000
00000FE07F0000
000007F02F4000
000002D01F0000
00000000000000
00000000000000
000001BFE90000
00002FFFFFD000
0002FFFFFFF800
000BFFFFFFFE00
002FFE402FFF40
00BFF40003FFC0
01FFD00001FFE0
03FF400000BFF0
0BFE0000007FF4
0FFD0000003FF4
1FFC0000002FF8
2FF80000002FF8
3FF40000002FF8
7FF00000002FF8
7FF00000002FF8
BFE00000002FF8
BFE00000002FF4
BFE00000003FF4
BFE00000007FF0
BFE00000007FE0
BFE0000000BFD0
7FF0000001FFC0
7FF4000002FF80
3FF8000007FF00
2FFD00001FFD00
0FFF40007FF800
07FFE006FFE000
02FFFFFFFF8000
00BFFFFFFE0000
001FFFFFE40000
0001AFF9000000
ENDCHAR
STARTCHAR uni020D
ENCODING 525
SWIDTH 451 0
DWIDTH 16 0
BBX 20 30 1 0
BITMAP
7D02E00000
FF0BF80000
FF4BFC0000
FF87FD0000
7FC2FE0000
2FD1FF0000
1FE0BF4000
0BF03F8000
03F41FC000
01F80FC000
00B4078000
0000000000
0000000000
001BF80000
01FFFF4000
07FFFFD000
0FFFFFE000
2FF4FFF400
3FE0FFF415
7FC0BFFFFF
BF807FFFFF
BF801FFFFE
BF800BFFA4
BFC00FF000
BFD01FE000
7FE07FD000
2FFFFF8000
1FFFFF0000
07FFFD0000
00BF900000
ENDCHAR
STARTCHAR uni020E
ENCODING 526
SWIDTH 816 0
DWIDTH 29 0
BBX 27 41 2 0
BITMAP
0000001AE90000
000002FFFFD000
00000BFFFFF800
00002FFFFFFD00
00003FE40BFE00
00007F8002FE00
00002E0000B800
00000000000000
00000000000000
00000000000000
000001BFE90000
00002FFFFFD000
0002FFFFFFF800
000BFFFFFFFE00
002FFE402FFF40
00BFF40003FFC0
01FFD00001FFE0
03FF400000BFF0
0BFE0000007FF4
0FFD0000003FF4
1FFC0000002FF8
2FF80000002FF8
3FF40000002FF8
7FF00000002FF8
7FF00000002FF8
BFE00000002FF8
BFE00000002FF4
BFE00000003FF4
BFE00000007FF0
BFE00000007FE0
BFE0000000BFD0
7FF0000001FFC0
7FF4000002FF80
3FF8000007FF00
2FFD00001FFD00
0FFF40007FF800
07FFE006FFE000
02FFFFFFFF8000
00BFFFFFFE0000
001FFFFFE40000
0001AFF9000000
ENDCHAR
STARTCHAR uni020F
ENCODING 527
SWIDTH 451 0
DWIDTH 16 0
BBX 20 28 1 0
BITMAP
0006FA4000
007FFFE000
02FFFFF800
07FFFFFE00
0FFD07FF00
1FF401FF40
1FD000BF40
1FC0007F00
0500001400
0000000000
0000000000
001BF80000
01FFFF4000
07FFFFD000
0FFFFFE000
2FF4FFF400
3FE0FFF415
7FC0BFFFFF
BF807FFFFF
BF801FFFFE
BF800BFFA4
BFC00FF000
BFD01FE000
7FE07FD000
2FFFFF8000
1FFFFF0000
07FFFD0000
00BF900000
ENDCHAR
STARTCHAR uni0210
ENCODING 528
SWIDTH 880 0
DWIDTH 32 0
BBX 35 42 2 0
BITMAP
000005401400000000
00001FD0BE00000000
00002FE0FF00000000
00002FF0FF40000000
00000FF0BF80000000
00000BF43FC0000000
000003F81FD0000000
000001FC0BD0000000
000000B803C0000000
000000000000000000
000000000000000000
0000016FFE90000000
00001FFFFFFD000000
0001FFFFFFFF800000
000BFFFFFFFFE00000
002FFE4006FFF40000
00BFE00000BFF80000
01FF8000002FFC0000
03FE01FD001FFC0000
0BF803FE001FFC0000
0FF007FE001FFC0000
1FE00BFE002FF80000
2FD00BFD003FF40000
3FC00FFD00BFE00000
7F800FFC02FFC00000
BF401FF81FFF400000
BF41FFFFFFF8000000
FF03FFFFFF90000000
FF03FFFFFD00000000
FF01FFFFFF80000000
FF003FF6FFE0000000
FF007FE0BFF4000000
FF007FE03FF8000000
BF00BFD01FFD000010
BF40BFD00FFE0000B4
7F80FFC007FF4002F4
3FC0FFC003FFC00BF0
2FE1FF8001FFE02FE0
0FFFFF8000FFFFFF80
07FFFF40007FFFFE00
01FFFE00001FFFF800
001BF4000002FF9000
ENDCHAR
STARTCHAR uni0211
ENCODING 529
SWIDTH 455 0
DWIDTH 16 0
BBX 21 30 1 0
BITMAP
1F80B9000000
3FD1FE000000
3FE2FF000000
2FF1FF400000
1FF4BF800000
0BF47FC00000
03F82FD00000
01FC0FE00000
00FD07F00000
007E02F00000
002D00E00000
000000000000
000000000000
02F402F80000
0BF41FFD0000
0FF47FFE0000
1FF0FFFD0000
2FE2FFFD0000
2FE7FFFC0000
3FDFD7FC0B40
3FEF87FD2F40
3FFF07FFFF40
3FFE07FFFE00
7FFC02FFF400
7FF8006E8000
3FF400000000
3FF000000000
3FE000000000
2FD000000000
0B8000000000
ENDCHAR
ENDFONT
